<svg width="161" height="141" viewBox="0 0 161 141" fill="none" xmlns="http://www.w3.org/2000/svg">
<g clip-path="url(#clip0_67_16)">
<path d="M107.111 71.7608L106.416 73.9142L106.311 74.0981L106.22 74.2162C105.364 74.4389 104.482 74.5405 103.599 74.5182C104.411 72.1443 104.684 69.6187 104.398 67.1255C104.371 66.7864 104.43 66.4458 104.57 66.1358C104.71 65.8257 104.926 65.5563 105.198 65.3529C106.672 64.2289 107.762 62.6734 108.316 60.9015L108.748 57.4743C108.715 57.007 108.632 56.5447 108.499 56.0955C108.499 55.938 108.395 55.8198 108.355 55.7147H108.015C107.506 55.6847 107.028 55.4616 106.677 55.0909C106.327 54.7201 106.13 54.2295 106.128 53.7188C106.193 47.2584 105.512 43.2141 104.333 40.4172C102.341 37.0426 99.2624 35.3355 95.5938 33.4972C94.9517 33.2215 94.2835 32.9194 93.6284 32.578C81.6661 45.1049 71.7608 28.9933 57.5711 53.2593H57.0863C56.9029 53.6795 56.7064 54.0996 56.523 54.5724L56.4181 54.7825C56.1523 55.2439 55.7145 55.5806 55.2009 55.7185C54.6874 55.8564 54.1402 55.7842 53.6798 55.5178C53.3566 55.3339 53.1732 55.2552 53.1295 55.2814C53.0509 55.2814 52.9592 55.4915 52.8412 55.7673C52.5861 56.408 52.4399 57.0871 52.4089 57.7763C52.2647 60.6126 53.1819 64.3418 55.0293 66.1407C55.2184 66.3206 55.3701 66.5362 55.4758 66.7751C55.5815 67.0139 55.639 67.2714 55.6451 67.5326C55.8547 76.199 59.6937 79.508 64.3581 83.5392L66.3234 85.2462C71.0009 89.4219 75.9404 91.5753 80.7358 91.5753C85.5313 91.5753 90.1563 89.5532 94.5063 85.3513H97.677H98.0177C98.6597 85.3513 99.472 85.3513 100.389 85.3513L99.3279 86.3623L97.3888 88.2007C92.1479 93.2036 86.5663 95.6197 80.8276 95.6197C75.0888 95.6197 69.1404 93.1117 63.703 88.2663L61.79 86.5856C57.1912 82.6463 53.2867 79.2454 52.0682 71.8658L45.7529 72.3779C44.5425 72.5569 43.3101 72.2548 42.3188 71.5361C41.3274 70.8173 40.6556 69.7388 40.4465 68.5305L37.9964 49.123C37.9314 48.5083 37.9889 47.8867 38.1658 47.2945C38.3427 46.7023 38.6354 46.1513 39.0268 45.6735C39.4182 45.1957 39.9005 44.8007 40.4456 44.5114C40.9908 44.2222 41.5879 44.0446 42.2022 43.9888L44.2593 43.8181C44.1362 43.5495 44.065 43.2598 44.0496 42.9646C42.818 22.8086 51.4917 10.1373 63.2182 4.05764C69.2118 1.08327 75.8679 -0.296564 82.5472 0.0506616C89.2264 0.397887 95.7043 2.46051 101.359 6.04041C112.076 12.9604 119.073 25.6186 115.928 43.2272C115.878 43.472 115.798 43.7099 115.693 43.9363L118.824 44.2908C119.486 44.359 120.128 44.5593 120.712 44.8797C121.295 45.2002 121.809 45.6344 122.223 46.1568C122.637 46.6792 122.942 47.2793 123.121 47.9217C123.3 48.5642 123.349 49.236 123.266 49.8977L120.842 68.3598C120.634 69.6894 119.917 70.8851 118.842 71.6921C117.768 72.4991 116.421 72.8536 115.09 72.6799C114.733 74.0742 114.296 75.4466 113.78 76.7899C113.334 77.9308 112.666 78.971 111.814 79.8494C109.194 82.5544 100.73 82.5544 97.7294 82.5544H89.8681C88.9647 83.4445 87.8871 84.1374 86.7032 84.5894C85.5193 85.0414 84.2548 85.2427 82.9894 85.1806C78.6395 85.1806 75.1281 82.8695 75.1281 80.0201C75.1281 77.1707 78.6395 74.8597 82.9894 74.8597C84.212 74.8344 85.4274 75.0524 86.5654 75.5009C87.7033 75.9494 88.7413 76.6196 89.6191 77.4727H97.677C100.035 77.4727 107.032 77.4727 108.237 76.2515C108.601 75.8742 108.886 75.4278 109.076 74.9384L109.967 72.1547L107.111 71.8264V71.7608ZM49.7884 35.6769C54.2432 14.8513 78.4692 1.86477 101.464 15.0876C103.533 16.2775 105.418 17.7638 107.058 19.4996C104.838 15.7777 101.777 12.6295 98.1225 10.308C93.3756 7.28126 87.927 5.53947 82.3081 5.25255C76.6865 4.90334 71.0726 6.04942 66.0352 8.57468C57.4139 12.9867 50.7318 21.8632 49.7884 35.6769ZM58.6717 95.856L70.752 127.62L76.8314 110.3L73.8572 107.044C71.6167 103.761 72.3897 100.045 76.4776 99.3751C77.9712 99.2317 79.4735 99.201 80.9717 99.2832C82.6205 99.1761 84.2761 99.2421 85.9112 99.4802C89.7633 100.321 90.1694 104.063 88.2434 107.044L85.3216 110.3L91.3879 127.633L102.328 95.856C110.19 102.973 137.979 104.404 146.666 109.25C158.694 115.999 158.366 128.946 161 141.026H0C2.62044 129.064 2.3453 115.894 14.3338 109.25C25.0121 103.275 49.9325 103.735 58.6717 95.856Z" fill="#F79221"/>
</g>
<defs>
<clipPath id="clip0_67_16">
<rect width="161" height="141" fill="white"/>
</clipPath>
</defs>
</svg>
