<svg width="156" height="156" viewBox="0 0 156 156" fill="none" xmlns="http://www.w3.org/2000/svg">
<path d="M138.227 143.609L118.995 129.435L99.6283 143.587C99.4703 143.699 99.2845 143.766 99.0912 143.78C98.8979 143.793 98.7045 143.754 98.532 143.665C98.3596 143.577 98.2148 143.443 98.1134 143.278C98.012 143.113 97.9578 142.923 97.9569 142.729V118.081C97.9559 117.915 97.9942 117.751 98.0688 117.603C98.1433 117.455 98.252 117.327 98.3858 117.229C98.5196 117.131 98.6747 117.066 98.8385 117.04C99.0022 117.014 99.1698 117.027 99.3275 117.078L103.205 119.34C103.651 119.474 103.985 119.886 103.985 120.354V133.503L118.393 122.649C118.575 122.519 118.793 122.449 119.017 122.449C119.241 122.449 119.459 122.519 119.641 122.649L134.082 133.057L133.815 120.354C133.815 119.908 134.104 119.507 134.528 119.351L138.495 116.978C138.654 116.923 138.825 116.906 138.992 116.931C139.159 116.955 139.318 117.019 139.455 117.117C139.593 117.215 139.705 117.345 139.782 117.495C139.859 117.645 139.899 117.812 139.899 117.981V142.751C139.899 143.152 139.676 143.509 139.319 143.687C139.177 143.77 139.015 143.812 138.851 143.81C138.627 143.811 138.408 143.741 138.227 143.609ZM2.78577 126.527V22.8986C2.78577 13.9286 10.0843 6.64115 19.0766 6.63H109.467C118.471 6.63 125.758 13.9286 125.769 22.9209V55.2352C125.769 55.3742 125.742 55.5118 125.689 55.6402C125.636 55.7687 125.558 55.8854 125.459 55.9837C125.361 56.082 125.244 56.1599 125.116 56.2131C124.988 56.2663 124.85 56.2937 124.711 56.2937H118.003C117.724 56.2937 117.456 56.1837 117.258 55.9876C117.06 55.7915 116.947 55.5251 116.944 55.2463V22.9097C116.944 18.7869 113.601 16.6697 109.479 16.6697H19.0766C14.9538 16.6697 12.8032 18.7869 12.8032 22.9097V126.538C12.8032 130.65 14.9538 132.333 19.0766 132.333H89.2766C89.8561 132.333 90.3241 132.812 90.3241 133.391V141.771C90.3241 141.91 90.2967 142.047 90.2435 142.176C90.1903 142.304 90.1123 142.421 90.014 142.519C89.9157 142.617 89.799 142.695 89.6706 142.749C89.5421 142.802 89.4045 142.829 89.2655 142.829H19.0766C14.7559 142.823 10.614 141.103 7.55983 138.047C4.50566 134.991 2.78871 130.848 2.78577 126.527ZM118.928 118.504C111.313 118.498 104.011 115.472 98.6257 110.088C93.24 104.704 90.2103 97.4041 90.2015 89.7891C90.2103 82.1742 93.24 74.8739 98.6257 69.4903C104.011 64.1068 111.313 61.0799 118.928 61.074C126.541 61.0829 133.839 64.111 139.223 69.4942C144.606 74.8775 147.634 82.1761 147.643 89.7891C147.634 97.4022 144.606 104.701 139.223 110.084C133.839 115.467 126.541 118.495 118.928 118.504ZM118.928 69.5649C113.566 69.5708 108.425 71.7034 104.634 75.4949C100.842 79.2864 98.7094 84.4271 98.7035 89.7891C98.7035 100.932 107.774 110.013 118.928 110.013C130.071 110.013 139.152 100.943 139.152 89.7891C139.146 84.4271 137.013 79.2864 133.222 75.4949C129.43 71.7034 124.29 69.5708 118.928 69.5649ZM27.8572 115.206C27.2666 115.206 26.7986 114.693 26.7986 114.058V106.091C26.7986 105.456 27.2666 104.943 27.8572 104.943H81.0086C81.5881 104.943 82.0672 105.456 82.0672 106.091V114.058C82.0672 114.693 81.5881 115.206 81.0086 115.206H27.8572ZM118.928 102.202C115.727 102.067 112.702 100.699 110.484 98.3864C108.267 96.0734 107.03 92.9932 107.03 89.7891C107.03 86.5851 108.267 83.5049 110.484 81.1919C112.702 78.8788 115.727 77.5117 118.928 77.376C122.129 77.5117 125.154 78.8788 127.371 81.1919C129.588 83.5049 130.826 86.5851 130.826 89.7891C130.826 92.9932 129.588 96.0734 127.371 98.3864C125.154 100.699 122.129 102.067 118.928 102.202ZM118.928 82.6354C117.964 82.5989 117.002 82.7575 116.101 83.1015C115.2 83.4456 114.377 83.9681 113.683 84.6377C112.989 85.3074 112.437 86.1103 112.06 86.9985C111.684 87.8866 111.49 88.8416 111.492 89.8063C111.493 90.771 111.69 91.7254 112.069 92.6124C112.448 93.4993 113.003 94.3006 113.699 94.968C114.396 95.6355 115.22 96.1555 116.122 96.4967C117.024 96.838 117.986 96.9935 118.95 96.954C120.8 96.8782 122.549 96.0893 123.83 94.7526C125.11 93.416 125.824 91.6354 125.821 89.784C125.819 87.9326 125.099 86.1543 123.814 84.8216C122.529 83.489 120.778 82.7055 118.928 82.6354ZM27.8572 91.0371C27.7164 91.0363 27.5772 91.0062 27.4487 90.9486C27.3202 90.8911 27.205 90.8074 27.1106 90.7029C26.9077 90.4808 26.7963 90.1902 26.7986 89.8894V81.9112C26.7986 81.2872 27.2666 80.7746 27.8572 80.7746H81.0086C81.5881 80.7746 82.0672 81.2872 82.0672 81.9112V89.8894C82.0672 90.1903 81.9558 90.48 81.7552 90.7029C81.6608 90.8074 81.5457 90.8911 81.4171 90.9486C81.2886 91.0062 81.1495 91.0363 81.0086 91.0371H27.8572ZM27.8572 68.6623C27.2666 68.6623 26.7986 68.1497 26.7986 67.5257V59.5474C26.7986 58.9123 27.2666 58.3997 27.8572 58.3997H81.0086C81.5881 58.3997 82.0672 58.9123 82.0672 59.5474V67.5257C82.0672 68.1497 81.5881 68.6623 81.0086 68.6623H27.8572ZM27.8572 45.3069C27.2666 45.3069 26.7986 44.7943 26.7986 44.1591V36.1809C26.7986 35.5569 27.2666 35.0443 27.8572 35.0443H100.698C101.289 35.0443 101.757 35.5569 101.757 36.1809V44.1591C101.757 44.46 101.645 44.7497 101.445 44.9726C101.35 45.0771 101.235 45.1608 101.107 45.2183C100.978 45.2759 100.839 45.306 100.698 45.3069H27.8572Z" fill="#F79221"/>
</svg>
