<svg width="168" height="168" viewBox="0 0 168 168" fill="none" xmlns="http://www.w3.org/2000/svg">
<g clip-path="url(#clip0_67_8)">
<path d="M153.234 0C161.376 0 168 6.62419 168 14.7656V34.4531C168 42.5946 161.376 49.2188 153.234 49.2188H138.141V128.625H152.906C154.212 128.625 155.464 129.144 156.387 130.067C157.31 130.99 157.828 132.242 157.828 133.547V153.234C157.828 161.376 151.204 168 143.062 168H44.625C36.4836 168 29.8594 161.376 29.8594 153.234V49.2188H14.7656C6.62419 49.2188 0 42.5946 0 34.4531V14.7656C0 6.62419 6.62419 0 14.7656 0H153.234ZM84 69.2344C92.1414 69.2344 98.7656 75.8586 98.7656 84C98.7667 87.0754 97.8231 90.077 96.0625 92.5986C94.302 95.1202 91.8093 97.0402 88.9219 98.0989V104.016C88.9219 105.321 88.4033 106.573 87.4803 107.496C86.5573 108.419 85.3054 108.938 84 108.938C82.6946 108.938 81.4427 108.419 80.5197 107.496C79.5967 106.573 79.0781 105.321 79.0781 104.016V98.2432C76.5174 97.4059 74.046 95.8965 71.8292 93.7493C71.3595 93.3008 70.9832 92.7638 70.722 92.1693C70.4608 91.5747 70.3198 90.9344 70.3072 90.2851C70.2946 89.6358 70.4106 88.9905 70.6485 88.3862C70.8864 87.782 71.2416 87.2308 71.6935 86.7644C72.1454 86.2981 72.6851 85.9257 73.2816 85.6689C73.878 85.4121 74.5194 85.2758 75.1688 85.268C75.8181 85.2601 76.4626 85.3809 77.0651 85.6233C77.6675 85.8656 78.2161 86.2248 78.6791 86.6801C81.0351 88.9612 83.5419 89.7068 85.7404 88.7749C87.6435 87.969 88.9219 86.0501 88.9219 84C88.9205 82.6951 88.4015 81.444 87.4788 80.5212C86.556 79.5985 85.3049 79.0795 84 79.0781C80.0336 79.0781 76.2969 77.4559 73.4816 74.5106C70.7424 71.6454 69.2344 67.9074 69.2344 63.9844C69.2344 57.7999 73.1378 52.2244 78.9469 50.1073L79.0781 50.0627V44.2969C79.0781 42.9915 79.5967 41.7396 80.5197 40.8166C81.4427 39.8936 82.6946 39.375 84 39.375C85.3054 39.375 86.5573 39.8936 87.4803 40.8166C88.4033 41.7396 88.9219 42.9915 88.9219 44.2969V50.0141C92.169 51.1074 95.2665 53.2849 97.9269 56.4533C98.7497 57.4548 99.1441 58.7404 99.0247 60.031C98.9053 61.3216 98.2816 62.513 97.289 63.3465C96.2965 64.1801 95.0152 64.5884 93.7234 64.483C92.4316 64.3776 91.2335 63.7669 90.3892 62.7834C87.7866 59.6859 84.8439 58.4364 82.3161 59.3578C81.3681 59.7056 80.5496 60.3355 79.9706 61.1627C79.3917 61.9899 79.0802 62.9747 79.0781 63.9844C79.0781 66.78 81.3776 69.2344 84 69.2344ZM44.625 158.156H129.143C128.583 156.576 128.296 154.911 128.297 153.234V29.5312H39.7031V153.234C39.7045 154.539 40.2235 155.79 41.1462 156.713C42.069 157.636 43.3201 158.155 44.625 158.156ZM147.984 138.469H138.141V153.234C138.142 154.539 138.661 155.79 139.584 156.713C140.506 157.636 141.758 158.155 143.062 158.156C144.367 158.155 145.619 157.636 146.541 156.713C147.464 155.79 147.983 154.539 147.984 153.234V138.469ZM158.156 34.4531V14.7656C158.155 13.4607 157.636 12.2096 156.713 11.2869C155.79 10.3641 154.539 9.84514 153.234 9.84375H14.7656C13.4607 9.84514 12.2096 10.3641 11.2869 11.2869C10.3641 12.2096 9.84514 13.4607 9.84375 14.7656V34.4531C9.84514 35.7581 10.3641 37.0092 11.2869 37.9319C12.2096 38.8546 13.4607 39.3736 14.7656 39.375H29.8594V29.5312H24.6094C23.304 29.5312 22.0521 29.0127 21.1291 28.0897C20.2061 27.1666 19.6875 25.9147 19.6875 24.6094C19.6875 23.304 20.2061 22.0521 21.1291 21.1291C22.0521 20.2061 23.304 19.6875 24.6094 19.6875H143.391C144.696 19.6875 145.948 20.2061 146.871 21.1291C147.794 22.0521 148.312 23.304 148.312 24.6094C148.312 25.9147 147.794 27.1666 146.871 28.0897C145.948 29.0127 144.696 29.5312 143.391 29.5312H138.141V39.375H153.234C154.539 39.3736 155.79 38.8546 156.713 37.9319C157.636 37.0092 158.155 35.7581 158.156 34.4531ZM113.531 118.781C114.837 118.781 116.089 119.3 117.012 120.223C117.935 121.146 118.453 122.398 118.453 123.703C118.453 125.008 117.935 126.26 117.012 127.183C116.089 128.106 114.837 128.625 113.531 128.625H54.4688C53.1634 128.625 51.9115 128.106 50.9885 127.183C50.0654 126.26 49.5469 125.008 49.5469 123.703C49.5469 122.398 50.0654 121.146 50.9885 120.223C51.9115 119.3 53.1634 118.781 54.4688 118.781H113.531ZM113.531 138.469C114.837 138.469 116.089 138.987 117.012 139.91C117.935 140.833 118.453 142.085 118.453 143.391C118.453 144.696 117.935 145.948 117.012 146.871C116.089 147.794 114.837 148.312 113.531 148.312H54.4688C53.1634 148.312 51.9115 147.794 50.9885 146.871C50.0654 145.948 49.5469 144.696 49.5469 143.391C49.5469 142.085 50.0654 140.833 50.9885 139.91C51.9115 138.987 53.1634 138.469 54.4688 138.469H113.531Z" fill="#F79221"/>
</g>
<defs>
<clipPath id="clip0_67_8">
<rect width="168" height="168" fill="white"/>
</clipPath>
</defs>
</svg>
