<svg width="41" height="41" viewBox="0 0 41 41" fill="none" xmlns="http://www.w3.org/2000/svg">
<mask id="mask0_2_8" style="mask-type:luminance" maskUnits="userSpaceOnUse" x="0" y="0" width="41" height="41">
<path d="M0.882812 0.53125H39.8828V39.5312H0.882812V0.53125Z" fill="white" stroke="white"/>
</mask>
<g mask="url(#mask0_2_8)">
<path d="M33.2377 14.3181C33.2377 21.4324 20.3806 38.6038 20.3806 38.6038C20.3806 38.6038 7.52344 21.4324 7.52344 14.3181C7.52344 10.9082 8.87803 7.63789 11.2892 5.22671C13.7004 2.81553 16.9707 1.46094 20.3806 1.46094C23.7905 1.46094 27.0608 2.81553 29.472 5.22671C31.8831 7.63789 33.2377 10.9082 33.2377 14.3181Z" stroke="#F79221" stroke-width="1.5" stroke-linecap="round" stroke-linejoin="round"/>
<path d="M20.3795 18.6027C22.7464 18.6027 24.6652 16.6839 24.6652 14.317C24.6652 11.95 22.7464 10.0312 20.3795 10.0312C18.0125 10.0312 16.0938 11.95 16.0938 14.317C16.0938 16.6839 18.0125 18.6027 20.3795 18.6027Z" stroke="#F79221" stroke-width="1.5" stroke-linecap="round" stroke-linejoin="round"/>
</g>
</svg>
