<svg width="156" height="165" viewBox="0 0 156 165" fill="none" xmlns="http://www.w3.org/2000/svg">
<g clip-path="url(#clip0_67_13)">
<path d="M100.525 146.416C100.028 149.021 99.1543 151.411 97.8914 153.6C96.5881 155.842 94.8818 157.87 92.7859 159.642C90.6765 161.415 88.3924 162.757 85.9069 163.657C83.4213 164.557 80.7879 165 78.0068 165C75.2122 165 72.5788 164.543 70.1067 163.657C67.6345 162.757 65.3371 161.428 63.2411 159.642C61.1317 157.856 59.4389 155.842 58.1356 153.6C56.8324 151.357 55.9456 148.887 55.462 146.174C55.2201 144.858 56.1069 143.596 57.4235 143.354C57.4639 143.354 57.8535 143.314 57.8535 143.314H98.187C99.5305 143.314 100.632 144.402 100.632 145.758C100.619 145.986 100.578 146.201 100.525 146.416ZM27.1533 0.335518C29.612 -0.644707 32.3931 0.563789 33.3739 3.02106C34.3547 5.47834 33.1455 8.25788 30.6868 9.23811C25.3664 11.3597 20.9058 14.3004 17.3453 18.1138C13.7984 21.9273 11.1247 26.6539 9.37807 32.3338C8.5988 34.8582 5.9117 36.2816 3.38582 35.5028C0.859936 34.7239 -0.564231 32.0384 0.21503 29.514C2.40502 22.3973 5.79078 16.4354 10.3186 11.5745C14.8463 6.72712 20.4758 2.99421 27.1533 0.335518ZM125.313 9.23811C122.855 8.25788 121.645 5.47834 122.626 3.02106C123.607 0.563789 126.388 -0.644707 128.847 0.335518C135.524 2.99421 141.154 6.72712 145.682 11.588C150.209 16.4622 153.609 22.4241 155.785 29.5274C156.564 32.0518 155.14 34.7374 152.614 35.5162C150.088 36.295 147.401 34.8717 146.622 32.3472C144.875 26.6539 142.202 21.9273 138.655 18.1273C135.094 14.3004 130.634 11.3597 125.313 9.23811ZM96.615 16.0325C99.3558 17.1202 101.989 18.4227 104.515 19.94C104.609 20.0071 104.717 20.0609 104.811 20.128C107.229 21.6185 109.486 23.2567 111.555 25.0291C115.976 28.8292 119.657 33.2872 122.572 38.336C124.023 40.8604 125.273 43.4923 126.308 46.2047C127.369 49.0111 128.162 51.8712 128.699 54.8118C129.223 57.7659 129.492 60.7872 129.492 63.889C129.492 70.012 129.492 73.3287 129.492 73.7315C129.505 76.8736 129.519 79.9486 129.545 82.9429V82.9698C129.559 85.6822 129.734 88.408 130.069 91.1339C130.405 93.8328 130.889 96.4378 131.521 98.9488C132.152 101.42 133.012 103.81 134.073 106.092C135.175 108.442 136.519 110.752 138.09 112.994H138.104C139.662 115.196 141.611 117.385 143.948 119.534C146.367 121.749 149.161 123.938 152.359 126.059C154.186 127.281 154.683 129.765 153.447 131.592C152.681 132.733 151.419 133.364 150.129 133.364V133.378H114.054H78.0068H41.9324H5.87139C3.65453 133.378 1.8676 131.592 1.8676 129.376C1.8676 127.926 2.64686 126.65 3.80232 125.952C7.04028 123.763 9.82144 121.588 12.1458 119.44C14.4567 117.305 16.3914 115.116 17.9499 112.86C17.9902 112.793 18.044 112.726 18.0977 112.672C19.6025 110.47 20.8923 108.227 21.9537 105.945C23.042 103.622 23.9153 101.232 24.5602 98.7742C24.5737 98.7205 24.5871 98.6668 24.6005 98.6265C25.2186 96.2364 25.6888 93.712 26.0113 91.0667C26.3337 88.408 26.5084 85.6553 26.5084 82.8221V63.889C26.5084 60.8409 26.7771 57.8197 27.3279 54.7984C27.8788 51.7906 28.6715 48.9036 29.7329 46.1509C30.7809 43.3983 32.0438 40.753 33.5083 38.2286C36.4641 33.126 40.132 28.7083 44.6195 24.8814C46.8095 23.015 49.1741 21.3096 51.7134 19.7923C54.2796 18.2615 56.9399 16.9725 59.6807 15.9251C61.5886 15.2 63.5636 14.5958 65.5789 14.0989C66.2641 11.6954 67.4465 9.74836 69.1259 8.25788C71.4368 6.20344 74.4732 5.18293 78.2486 5.22321C81.9837 5.25007 85.0067 6.284 87.2907 8.33845C95.3655 15.5223 85.3157 11.5745 96.615 16.0325Z" fill="#F79221"/>
</g>
<defs>
<clipPath id="clip0_67_13">
<rect width="156" height="165" fill="white"/>
</clipPath>
</defs>
</svg>
