<svg width="400" height="400" viewBox="0 0 400 400" fill="none" xmlns="http://www.w3.org/2000/svg">
<path d="M277.12 44.672L276.088 42.968C267.376 28.568 251.624 19.952 235.016 21.008C232.877 21.143 230.752 21.4345 228.656 21.88C213.56 25.08 200.424 36.528 194.976 51.152C191.776 59.752 190.88 69.656 184.8 76.48C176.896 85.36 163.464 85.64 151.656 85.28C139.848 84.92 126.416 85.224 118.544 94.144C113.616 99.744 112.048 107.672 112.448 115.16C113.496 134.96 127.296 152.672 144.848 161.472C162.4 170.272 183.064 171.072 202.272 167.192C229.184 161.768 254.768 146.872 270.152 123.864C285.536 100.856 289.424 69.504 277.12 44.672Z" fill="#F5F5F5"/>
<path d="M385.768 380.224C385.768 380.336 301.872 380.432 198.408 380.432C94.9442 380.432 11.0322 380.336 11.0322 380.224C11.0322 380.112 94.9122 380 198.4 380C301.888 380 385.768 380.104 385.768 380.224Z" fill="#263238"/>
<path d="M196.592 164.312V165.112H193.392V164.48L195.232 162.304H193.44V161.504H196.552V162.136L194.712 164.312H196.592Z" fill="#263238"/>
<path d="M190.728 160.8V162.688H183.2V161.208L187.504 156.12H183.312V154.232H190.6V155.712L186.28 160.8H190.728Z" fill="#263238"/>
<path d="M179.944 156.472V160.272H164.744V157.296L173.424 147.032H164.968V143.2H179.656V146.176L170.984 156.44L179.944 156.472Z" fill="#263238"/>
<path d="M174.4 124.912H162.792V139.848H141.272V124.912H100V110.512L135.008 61.7841H157.872L126.088 107.384H141.928V94.1361H162.776V107.408H174.4V124.912Z" fill="#F79221"/>
<path d="M178.84 100.8C178.84 75.0481 193.336 60.2161 213.296 60.2161C233.256 60.2161 247.64 75.0721 247.64 100.8C247.64 126.528 233.144 141.384 213.296 141.384C193.448 141.384 178.84 126.584 178.84 100.8ZM225.448 100.8C225.448 84.4081 220.32 78.2801 213.296 78.2801C206.272 78.2801 201.032 84.4081 201.032 100.8C201.032 117.192 206.16 123.328 213.296 123.328C220.432 123.328 225.448 117.216 225.448 100.8Z" fill="#F79221"/>
<path d="M328.8 124.912H317.2V139.848H295.68V124.912H254.4V110.512L289.416 61.7841H312.272L280.496 107.384H296.328V94.1361H317.176V107.408H328.8V124.912Z" fill="#F79221"/>
<g opacity="0.3">
<path d="M174.4 124.912H162.792V139.848H141.272V124.912H100V110.512L135.008 61.7841H157.872L126.088 107.384H141.928V94.1361H162.776V107.408H174.4V124.912Z" fill="black"/>
<path d="M178.84 100.8C178.84 75.0481 193.336 60.2161 213.296 60.2161C233.256 60.2161 247.64 75.0721 247.64 100.8C247.64 126.528 233.144 141.384 213.296 141.384C193.448 141.384 178.84 126.584 178.84 100.8ZM225.448 100.8C225.448 84.4081 220.32 78.2801 213.296 78.2801C206.272 78.2801 201.032 84.4081 201.032 100.8C201.032 117.192 206.16 123.328 213.296 123.328C220.432 123.328 225.448 117.216 225.448 100.8Z" fill="black"/>
<path d="M328.8 124.912H317.2V139.848H295.68V124.912H254.4V110.512L289.416 61.7841H312.272L280.496 107.384H296.328V94.1361H317.176V107.408H328.8V124.912Z" fill="black"/>
</g>
<path d="M167.928 124.912H156.328V139.848H134.808V124.912H93.5518V110.512L128.568 61.7841H151.424L119.648 107.384H135.48V94.1361H156.328V107.408H167.928V124.912Z" fill="#F79221"/>
<path d="M172.376 100.8C172.376 75.0481 186.872 60.2161 206.832 60.2161C226.792 60.2161 241.176 75.0721 241.176 100.8C241.176 126.528 226.68 141.384 206.832 141.384C186.984 141.384 172.376 126.584 172.376 100.8ZM218.984 100.8C218.984 84.4081 213.856 78.2801 206.832 78.2801C199.808 78.2801 194.568 84.4081 194.568 100.8C194.568 117.192 199.696 123.328 206.832 123.328C213.968 123.328 218.984 117.216 218.984 100.8Z" fill="#F79221"/>
<path d="M322.344 124.912H310.744V139.848H289.224V124.912H248V110.512L283.016 61.7841H305.84L274.064 107.384H289.896V94.1361H310.744V107.408H322.344V124.912Z" fill="#F79221"/>
<path d="M203.032 46.5441C203.032 41.9281 206.656 38.5441 211.568 38.5441C216.48 38.5441 220.112 41.9201 220.112 46.5441C220.112 51.1681 216.488 54.5441 211.568 54.5441C206.648 54.5441 203.032 51.1521 203.032 46.5441ZM215.72 46.5441C215.745 45.984 215.656 45.4248 215.458 44.9001C215.261 44.3754 214.959 43.8961 214.572 43.4911C214.184 43.0861 213.719 42.7638 213.203 42.5436C212.688 42.3234 212.133 42.2099 211.572 42.2099C211.012 42.2099 210.457 42.3234 209.941 42.5436C209.426 42.7638 208.96 43.0861 208.573 43.4911C208.185 43.8961 207.883 44.3754 207.686 44.9001C207.489 45.4248 207.4 45.984 207.424 46.5441C207.4 47.1041 207.489 47.6633 207.686 48.188C207.883 48.7127 208.185 49.192 208.573 49.597C208.96 50.002 209.426 50.3244 209.941 50.5446C210.457 50.7648 211.012 50.8783 211.572 50.8783C212.133 50.8783 212.688 50.7648 213.203 50.5446C213.719 50.3244 214.184 50.002 214.572 49.597C214.959 49.192 215.261 48.7127 215.458 48.188C215.656 47.6633 215.745 47.1041 215.72 46.5441Z" fill="#263238"/>
<path d="M221.448 48.2561C221.448 44.6721 224.28 42.1281 228.168 42.1281C232.056 42.1281 234.88 44.6721 234.88 48.2561C234.88 51.8401 232.096 54.416 228.168 54.416C224.24 54.416 221.448 51.8481 221.448 48.2561ZM230.664 48.2561C230.664 46.4561 229.592 45.4401 228.168 45.4401C226.744 45.4401 225.664 46.4561 225.664 48.2561C225.664 50.0561 226.76 51.1041 228.168 51.1041C229.576 51.1041 230.664 50.0721 230.664 48.2561Z" fill="#263238"/>
<path d="M250.136 48.272C250.136 52.048 247.528 54.416 244.296 54.416C243.688 54.4462 243.08 54.351 242.511 54.1363C241.941 53.9216 241.421 53.592 240.984 53.168V58.48H236.8V42.328H240.8V43.512C241.242 43.0296 241.788 42.6543 242.396 42.4145C243.005 42.1746 243.66 42.0767 244.312 42.128C247.528 42.128 250.136 44.496 250.136 48.272ZM245.92 48.272C245.92 46.472 244.824 45.44 243.424 45.44C242.024 45.44 240.92 46.472 240.92 48.272C240.92 50.072 242.016 51.104 243.424 51.104C244.832 51.104 245.92 50.072 245.92 48.272Z" fill="#263238"/>
<path d="M251.128 53.1921L252.376 50.3361C253.641 51.0567 255.073 51.4345 256.528 51.4321C257.928 51.4321 258.392 51.1281 258.392 50.6321C258.392 49.0321 251.368 50.8481 251.368 46.0881C251.368 43.8481 253.432 42.1361 257.16 42.1361C258.783 42.1029 260.391 42.448 261.856 43.1441L260.608 45.9761C259.561 45.3943 258.382 45.0913 257.184 45.0961C255.776 45.0961 255.272 45.4961 255.272 45.8961C255.272 47.5361 262.272 45.7601 262.272 50.4801C262.272 52.6721 260.256 54.3841 256.392 54.3841C254.566 54.4321 252.756 54.0223 251.128 53.1921Z" fill="#263238"/>
<path d="M263.552 52.1121C263.613 51.4933 263.902 50.9194 264.362 50.5018C264.823 50.0842 265.423 49.8529 266.044 49.8529C266.666 49.8529 267.265 50.0842 267.726 50.5018C268.187 50.9194 268.475 51.4933 268.536 52.1121C268.5 52.7486 268.222 53.3472 267.759 53.785C267.295 54.2229 266.682 54.4668 266.044 54.4668C265.407 54.4668 264.793 54.2229 264.33 53.785C263.867 53.3472 263.588 52.7486 263.552 52.1121ZM263.552 38.8561H268.512L267.672 48.6241H264.36L263.552 38.8561Z" fill="#263238"/>
<path d="M109.2 306.68H99.3281V354.096H109.2V306.68Z" fill="#E0E0E0"/>
<path d="M68.9521 300.576C69.1121 300.576 99.3521 310.056 99.3521 310.056H109.216L143.848 300.576H68.9521Z" fill="#E0E0E0"/>
<path d="M41.3599 141.544C36.9839 142.528 33.0719 146.568 33.7279 154.632C33.7279 154.632 30.2399 155.288 30.4559 161.616C30.6719 167.944 30.0239 207.216 37.8719 228.576C44.3279 246.136 55.4719 283.696 59.2639 296.52C59.6387 297.789 60.4139 298.902 61.4737 299.694C62.5335 300.485 63.8211 300.913 65.1439 300.912H150.52C152.024 300.907 153.511 300.599 154.893 300.006C156.275 299.413 157.524 298.549 158.565 297.463C159.606 296.378 160.417 295.094 160.951 293.688C161.485 292.282 161.73 290.783 161.672 289.28C161.542 286.385 160.294 283.654 158.193 281.659C156.091 279.665 153.297 278.562 150.4 278.584L88.1439 279.232C88.1439 279.232 84.3279 258.672 80.3999 258.432C80.3999 258.432 82.1439 245.56 75.5999 241.856C75.5999 241.856 76.9039 225.968 69.9279 224.536C69.9279 224.536 71.0159 211.24 65.1279 208.88C65.1279 208.88 68.3999 196.92 62.2959 190.816C62.2959 190.816 64.0399 176.856 62.2959 166.384C60.5519 155.912 59.9119 137.408 41.3599 141.544Z" fill="#455A64"/>
<path d="M154.896 290.576C154.896 290.576 154.752 290.576 154.464 290.576H153.2L148.296 290.616L130.016 290.672L67.4641 290.744H67.3201L67.2721 290.608L58.4721 265.088C53.3601 250.136 48.5201 235.88 44.2561 222.872C43.1921 219.616 42.1681 216.472 41.2081 213.336C40.7108 211.814 40.2995 210.264 39.9761 208.696C39.8112 207.93 39.6884 207.155 39.6081 206.376C39.5201 205.576 39.3841 204.84 39.3361 204.08C38.7841 198.008 38.6561 192.328 38.5361 187.152C38.4001 176.8 38.5361 168.416 38.6801 162.632C38.7601 159.744 38.8241 157.504 38.8641 155.968L38.9361 154.232C38.9361 153.84 38.9761 153.648 38.9761 153.648C38.9761 153.648 38.9761 153.848 38.9761 154.232C38.9761 154.616 38.9761 155.216 38.9761 155.968C38.9761 157.504 38.9121 159.752 38.8641 162.632C38.7841 168.424 38.6801 176.8 38.8641 187.152C38.9761 192.32 39.1201 197.992 39.6641 204.048C39.7201 204.848 39.8481 205.56 39.9361 206.328C40.0185 207.1 40.144 207.866 40.3121 208.624C40.652 210.194 41.0821 211.743 41.6001 213.264C42.5601 216.36 43.5921 219.528 44.6641 222.784C48.9441 235.784 53.8001 250.032 58.9041 264.984C61.9441 273.784 64.8881 282.408 67.7041 290.512L67.5121 290.376L130.064 290.448L148.344 290.504H153.248H154.512C154.752 290.56 154.896 290.576 154.896 290.576Z" fill="#263238"/>
<path d="M78.856 279.328C78.6135 279.586 78.3454 279.82 78.056 280.024C77.52 280.448 76.76 281.088 75.848 281.888C73.4675 283.986 71.2529 286.265 69.224 288.704C67.1969 291.144 65.3519 293.73 63.704 296.44C63.072 297.48 62.576 298.336 62.248 298.936C62.0921 299.255 61.9045 299.558 61.688 299.84C61.7927 299.501 61.9321 299.174 62.104 298.864C62.392 298.24 62.848 297.36 63.448 296.296C65.0327 293.52 66.8584 290.888 68.904 288.432C70.9421 285.973 73.2023 283.708 75.656 281.664C76.6 280.864 77.392 280.28 77.952 279.896C78.2321 279.675 78.5352 279.484 78.856 279.328Z" fill="#263238"/>
<path d="M88.144 279.2C88.144 279.2 87.936 279.2 87.528 279.2L85.7359 279.248L78.856 279.36H78.768V279.272L78.624 278.424C78.5376 278.151 78.4334 277.884 78.312 277.624C78.0295 277.063 77.5384 276.635 76.944 276.432C75.5507 276.131 74.0955 276.363 72.864 277.08L72.576 277.216L72.68 276.92C73.6455 274.098 73.7842 271.058 73.08 268.16C72.2867 264.74 70.3786 261.681 67.656 259.464L67.552 259.384L67.6 259.264C68.459 256.823 68.5755 254.182 67.9348 251.674C67.2941 249.167 65.9249 246.906 64 245.176L63.896 245.096L63.944 244.968C64.9838 241.597 64.9242 237.982 63.7736 234.647C62.6231 231.312 60.4413 228.429 57.544 226.416L57.448 226.352V226.24C57.5122 224.033 57.4428 221.823 57.24 219.624C57.0494 217.375 56.634 215.15 56 212.984C55.344 210.888 54.352 208.792 52.6 207.576L52.472 207.488L52.52 207.344C53.4479 204.13 53.8133 200.779 53.6 197.44C53.4737 195.855 53.1347 194.294 52.592 192.8C52.0342 191.362 51.2211 190.037 50.192 188.888L50.096 188.776L50.168 188.656C51.9225 185.87 52.8849 182.659 52.952 179.368C52.9649 176.396 51.9977 173.503 50.2 171.136V171.088V171.032C50.2982 167.081 49.5024 163.16 47.872 159.56C47.1731 158.102 46.1691 156.812 44.928 155.776C43.8692 154.924 42.6297 154.324 41.304 154.024C40.2375 153.795 39.1438 153.719 38.056 153.8L36.752 153.944L35.68 154.16C35.04 154.28 34.568 154.456 34.248 154.528C33.928 154.6 33.752 154.648 33.752 154.648C34.3762 154.423 35.0118 154.231 35.656 154.072L36.728 153.832L38.048 153.664C39.1475 153.567 40.2552 153.632 41.336 153.856C42.6981 154.142 43.9747 154.742 45.064 155.608C46.3401 156.654 47.3745 157.964 48.096 159.448C49.765 163.08 50.5857 167.044 50.496 171.04V170.944C52.3482 173.361 53.3495 176.323 53.344 179.368C53.286 182.731 52.3125 186.014 50.528 188.864V188.632C51.5883 189.807 52.4308 191.161 53.016 192.632C53.5804 194.177 53.9303 195.792 54.056 197.432C54.285 200.824 53.9196 204.23 52.976 207.496L52.8 207.2C54.696 208.52 55.696 210.696 56.368 212.8C57.02 214.99 57.4436 217.242 57.632 219.52C57.8362 221.738 57.903 223.966 57.832 226.192L57.744 226.008C60.7196 228.068 62.9609 231.024 64.142 234.445C65.3232 237.866 65.3827 241.575 64.312 245.032L64.256 244.816C66.2384 246.605 67.6427 248.944 68.2896 251.534C68.9365 254.125 68.7967 256.849 67.888 259.36L67.832 259.16C70.6116 261.425 72.5499 264.558 73.336 268.056C74.0436 271.011 73.8853 274.108 72.88 276.976L72.7039 276.816C73.3855 276.48 74.1094 276.238 74.856 276.096C75.5609 275.94 76.2943 275.97 76.984 276.184C77.3181 276.305 77.6239 276.493 77.8826 276.736C78.1413 276.98 78.3473 277.274 78.488 277.6C78.6157 277.885 78.7226 278.179 78.808 278.48L78.952 279.36L78.856 279.272H85.7359H87.528L88.144 279.2Z" fill="#263238"/>
<g opacity="0.3">
<path d="M76.72 241.6L48.168 245.28C48.5976 246.039 49.1965 246.688 49.918 247.178C50.6394 247.668 51.4641 247.985 52.328 248.104C54.0545 248.321 55.8035 248.286 57.52 248C64.9124 247.198 72.3531 246.93 79.784 247.2C78.9514 245.236 77.925 243.36 76.72 241.6Z" fill="black"/>
</g>
<path d="M62.608 189.272C60.6402 189.529 58.6564 189.644 56.672 189.616C54.6911 189.722 52.7054 189.695 50.728 189.536C52.6958 189.278 54.6797 189.164 56.664 189.192C58.6449 189.086 60.6307 189.113 62.608 189.272Z" fill="#263238"/>
<path d="M62.3438 372.8C62.3438 372.8 66.9118 358.864 73.2078 355.488C83.3198 350.072 106.64 347.488 106.64 347.488L109.192 354.08C109.192 354.08 78.0957 355.304 73.1917 361.576C70.3955 365.17 67.7892 368.909 65.3838 372.776L62.3438 372.8Z" fill="#E0E0E0"/>
<path d="M66.328 380.2C69.9731 380.2 72.928 377.245 72.928 373.6C72.928 369.955 69.9731 367 66.328 367C62.6829 367 59.728 369.955 59.728 373.6C59.728 377.245 62.6829 380.2 66.328 380.2Z" fill="#263238"/>
<path d="M146.624 372.552C146.624 372.552 142.056 358.616 135.76 355.24C125.648 349.824 102.336 347.24 102.336 347.24L99.7759 353.832C99.7759 353.832 130.872 355.056 135.776 361.336C138.573 364.93 141.18 368.668 143.584 372.536L146.624 372.552Z" fill="#E0E0E0"/>
<path d="M144.296 380.2C147.941 380.2 150.896 377.245 150.896 373.6C150.896 369.955 147.941 367 144.296 367C140.651 367 137.696 369.955 137.696 373.6C137.696 377.245 140.651 380.2 144.296 380.2Z" fill="#263238"/>
<path d="M100.856 351.04L102.304 368.976L106.384 369.784V351.04" fill="#E0E0E0"/>
<path d="M104.256 380.2C107.901 380.2 110.856 377.245 110.856 373.6C110.856 369.955 107.901 367 104.256 367C100.611 367 97.6558 369.955 97.6558 373.6C97.6558 377.245 100.611 380.2 104.256 380.2Z" fill="#263238"/>
<path d="M55.1997 210.592C56.7852 210.055 58.4119 209.648 60.0637 209.376C61.6894 208.973 63.3458 208.705 65.0157 208.576C63.4306 209.114 61.8038 209.521 60.1517 209.792C58.5258 210.194 56.8695 210.461 55.1997 210.592Z" fill="#263238"/>
<path d="M69.3441 224.552C68.8226 224.798 68.2713 224.976 67.7041 225.08C66.6721 225.344 65.2401 225.648 63.6401 225.88C62.0401 226.112 60.5841 226.28 59.5281 226.344C58.9573 226.42 58.3789 226.42 57.8081 226.344C57.8081 226.224 60.4001 225.976 63.5761 225.472C66.7521 224.968 69.3121 224.44 69.3441 224.552Z" fill="#263238"/>
<path d="M81.1357 259.128C80.5151 259.301 79.8757 259.398 79.2317 259.416C78.0477 259.536 76.4077 259.64 74.5917 259.696C72.7757 259.752 71.1357 259.696 69.9437 259.696C69.3013 259.712 68.6593 259.65 68.0317 259.512C68.6664 259.411 69.3096 259.373 69.9517 259.4L74.5837 259.296L79.2077 259.136C79.8485 259.069 80.4944 259.066 81.1357 259.128Z" fill="#263238"/>
<path d="M84.456 271.656C84.456 271.784 81.8 272.36 78.704 273.68C75.608 275 73.32 276.504 73.248 276.4C73.6707 275.967 74.1561 275.6 74.688 275.312C75.9159 274.535 77.2056 273.861 78.544 273.296C79.8793 272.727 81.2602 272.272 82.672 271.936C83.2518 271.765 83.8517 271.671 84.456 271.656Z" fill="#263238"/>
<path d="M137.832 301.064C137.832 301.176 122.096 301.24 102.688 301.192C83.2801 301.144 67.5361 301.032 67.5361 300.912C67.5361 300.792 83.2721 300.736 102.688 300.776C122.104 300.816 137.832 300.944 137.832 301.064Z" fill="#263238"/>
<path d="M108.704 310.4C107.148 310.61 105.576 310.68 104.008 310.608C102.437 310.68 100.862 310.61 99.3037 310.4C100.863 310.194 102.437 310.125 104.008 310.192C105.576 310.125 107.147 310.194 108.704 310.4Z" fill="#263238"/>
<path d="M109.152 348.624C107.708 349.437 106.087 349.885 104.431 349.928C102.774 349.971 101.132 349.609 99.6479 348.872C101.218 349.272 102.828 349.486 104.448 349.512C106.045 349.398 107.623 349.1 109.152 348.624Z" fill="#263238"/>
<path d="M206.336 200.424C206.336 200.424 202.576 194.656 200.4 192.688C198.72 191.176 190.568 188.176 186.904 186.872C185.729 186.457 184.494 186.24 183.248 186.232C178.448 186.184 165.76 186.232 159.296 187.384C151.24 188.856 204.688 230.888 204.688 230.888L249.208 230.992L252.12 220L222.4 213.864L206 200.856" fill="#E0E0E0"/>
<g opacity="0.3">
<path d="M171.6 188.904C171.6 188.904 174.544 189.048 178.648 189.704C182.752 190.36 187.256 190.568 189.512 192.568C191.024 193.904 200.272 194.168 200.272 194.168L187.472 193.696L171.6 188.904Z" fill="black"/>
</g>
<path d="M167.376 187.848C167.646 187.844 167.915 187.876 168.176 187.944C168.696 188.04 169.456 188.192 170.376 188.424C172.224 188.88 174.752 189.584 177.528 190.416L180.592 191.368H180.544C182.631 191.461 184.704 191.753 186.736 192.24C186.905 192.553 187.034 192.886 187.12 193.232C186.906 192.949 186.724 192.643 186.576 192.32L186.624 192.368C184.589 192.026 182.534 191.809 180.472 191.72H180.424L177.352 190.792L170.248 188.688L168.088 188.072C167.842 188.027 167.603 187.952 167.376 187.848Z" fill="#263238"/>
<path d="M283.68 230.576C283.744 230.24 282.8 226.408 282.704 226.024C282.608 225.64 279.68 221.224 279.68 221.224L278.08 220.736C278.08 220.736 270.64 218.968 269.136 219.072L268.088 219.184C268.088 219.184 266.136 219.328 265.368 219.464C264.6 219.6 259.84 221.272 259.84 221.272C258.673 221.519 257.478 221.608 256.288 221.536C254.646 221.27 253.02 220.917 251.416 220.48L249.512 230.96L253.112 230.848C254.235 231.246 255.396 231.533 256.576 231.704C257.872 231.792 261.544 232.192 261.544 232.192C261.544 232.192 267.216 234.592 268.64 231.248C270.064 227.904 264.592 227.56 264.592 227.56L266.288 226.36L270.632 225.912L271.76 226.272L273 228.192C273 228.192 272.664 232.432 275.4 232.144L276.12 232.064L276.504 227.712L275.208 223.312L278.072 227.656C278.072 227.656 278.32 231.416 279.56 231.904C279.655 231.947 279.759 231.966 279.864 231.96C281.368 231.912 281.664 231.488 281.664 231.488L281.976 230.728C281.976 230.728 283.464 231.72 283.68 230.576Z" fill="#FFBF9D"/>
<path d="M267.416 219.2C267.869 219.134 268.33 219.153 268.776 219.256C269.874 219.404 270.95 219.692 271.976 220.112C273.022 220.514 273.949 221.175 274.672 222.032C274.991 222.375 275.197 222.808 275.264 223.272C275.192 223.272 274.992 222.816 274.464 222.224C273.717 221.467 272.817 220.877 271.824 220.496C269.472 219.56 267.392 219.352 267.416 219.2Z" fill="#FF9A6C"/>
<path d="M270.216 223.776C270.328 223.776 270.408 224.232 270.464 224.776C270.52 225.32 270.536 225.784 270.424 225.816C270.312 225.848 270.112 225.4 270.048 224.824C269.984 224.248 270.096 223.768 270.216 223.776Z" fill="#FF9A6C"/>
<path d="M267.416 223.92C267.504 223.84 268.296 224.72 269.56 225.328C270.824 225.936 271.96 226.128 271.96 226.224C271.058 226.353 270.14 226.166 269.36 225.696C268.524 225.35 267.836 224.722 267.416 223.92Z" fill="#FF9A6C"/>
<path d="M258.344 224.312C258.745 224.346 259.131 224.484 259.464 224.712C260.316 225.18 261.047 225.84 261.6 226.64C261.771 226.897 261.926 227.164 262.064 227.44L261.848 227.328C262.889 227.119 263.968 227.211 264.96 227.592C263.942 227.577 262.924 227.622 261.912 227.728H261.768L261.696 227.6C261.564 227.343 261.417 227.095 261.256 226.856C260.455 225.831 259.467 224.968 258.344 224.312Z" fill="#FF9A6C"/>
<path d="M278.24 220.696C278.665 221.035 279.03 221.444 279.32 221.904C280.085 222.969 280.704 224.131 281.16 225.36C281.62 226.589 281.908 227.876 282.016 229.184C282.108 229.713 282.108 230.255 282.016 230.784C281.77 228.986 281.363 227.213 280.8 225.488C280.09 223.818 279.234 222.214 278.24 220.696Z" fill="#FF9A6C"/>
<path d="M207.376 346.224L206.576 367.872C206.576 367.872 228.28 376 228.52 380L186.488 379.912L186.4 346.12L207.376 346.224Z" fill="#455A64"/>
<path d="M193.6 366.024C193.196 366.145 192.852 366.412 192.633 366.772C192.414 367.133 192.337 367.562 192.416 367.976C192.52 368.386 192.779 368.74 193.139 368.964C193.498 369.187 193.93 369.263 194.344 369.176C194.773 369.046 195.138 368.761 195.369 368.376C195.599 367.992 195.679 367.536 195.592 367.096C195.435 366.682 195.125 366.345 194.725 366.154C194.326 365.964 193.869 365.934 193.448 366.072" fill="#E0E0E0"/>
<path d="M186.488 379.904L186.616 376.496L226.864 377.856C226.864 377.856 228.728 378.656 228.52 379.992L186.488 379.904Z" fill="#263238"/>
<path d="M207.24 367.656C207.24 367.864 206.2 367.952 205.192 368.608C204.184 369.264 203.64 370.128 203.448 370.048C203.256 369.968 203.568 368.784 204.808 368.008C206.048 367.232 207.28 367.472 207.24 367.656Z" fill="white"/>
<path d="M211.64 369.488C211.688 369.688 210.8 370.032 210.096 370.904C209.392 371.776 209.2 372.688 208.992 372.68C208.784 372.672 208.656 371.504 209.552 370.448C210.448 369.392 211.64 369.296 211.64 369.488Z" fill="white"/>
<path d="M214.136 374.768C213.944 374.816 213.664 373.792 214.192 372.664C214.72 371.536 215.68 371.064 215.792 371.272C215.904 371.48 215.28 372.072 214.864 372.968C214.448 373.864 214.336 374.752 214.136 374.768Z" fill="white"/>
<path d="M206.88 362.704C206.792 362.888 205.848 362.608 204.688 362.704C203.528 362.8 202.624 363.144 202.52 362.968C202.416 362.792 203.28 362.064 204.648 361.992C206.016 361.92 206.976 362.544 206.88 362.704Z" fill="white"/>
<path d="M173.688 344L160.088 360.8C160.088 360.8 172.584 380.32 170.4 383.68L136.8 358.4L156.968 331.304L173.688 344Z" fill="#455A64"/>
<path d="M150.768 351.536C150.37 351.394 149.934 351.402 149.542 351.56C149.15 351.718 148.829 352.014 148.64 352.392C148.48 352.78 148.473 353.214 148.622 353.607C148.77 353.999 149.063 354.32 149.44 354.504C149.861 354.656 150.324 354.647 150.739 354.478C151.154 354.31 151.492 353.994 151.688 353.592C151.812 353.167 151.766 352.71 151.561 352.317C151.355 351.925 151.005 351.628 150.584 351.488" fill="#E0E0E0"/>
<path d="M136.8 358.4L138.936 355.752L170.336 380.968C170.336 380.968 171.344 382.744 170.384 383.672L136.8 358.4Z" fill="#263238"/>
<path d="M160.728 361.048C160.6 361.208 159.72 360.664 158.52 360.584C157.32 360.504 156.368 360.872 156.264 360.688C156.16 360.504 157.12 359.752 158.576 359.888C160.032 360.024 160.88 360.92 160.728 361.048Z" fill="white"/>
<path d="M163.152 365.152C163.072 365.344 162.152 365.088 161.072 365.36C159.992 365.632 159.28 366.248 159.12 366.12C158.96 365.992 159.56 364.984 160.904 364.664C162.248 364.344 163.272 364.992 163.152 365.152Z" fill="white"/>
<path d="M161.984 370.872C161.808 370.8 162.192 369.808 163.296 369.224C164.4 368.64 165.424 368.864 165.392 369.056C165.36 369.248 164.52 369.36 163.632 369.856C162.744 370.352 162.16 370.984 161.984 370.872Z" fill="white"/>
<path d="M163.408 356.864C163.232 356.96 162.648 356.168 161.672 355.536C160.696 354.904 159.752 354.648 159.776 354.448C159.8 354.248 160.928 354.176 162.072 354.944C163.216 355.712 163.584 356.8 163.408 356.864Z" fill="white"/>
<path d="M205.208 194.616C209.281 193.531 213.441 192.8 217.64 192.432C221.861 192.072 226.105 192.764 229.992 194.448C230.568 194.712 234.424 196.936 234.304 197.56C234.224 198.008 230.584 196.544 230.176 196.76C226.24 198.64 221.68 198.872 217.376 198.168C213.202 197.446 209.121 196.263 205.208 194.64" fill="#263238"/>
<path d="M183.456 193.016L221.264 195.504C231.824 196.024 240.32 202.592 239.512 213.104L239.384 214.072C238.746 218.777 236.361 223.069 232.702 226.096C229.044 229.123 224.381 230.662 219.64 230.408C210.488 229.904 200.384 229.24 195.544 228.52C185.504 227.064 185.312 216.8 185.312 216.8C185.312 216.8 184.416 216.688 181.456 216.416L171.856 209.496L183.456 193.016Z" fill="#FFBF9D"/>
<path d="M185.312 216.8C185.949 212.159 187.907 207.799 190.952 204.24C190.952 204.24 182.952 206.368 182.512 216.512L185.312 216.8Z" fill="#FF9A6C"/>
<path d="M212.52 221.312C212.728 221.472 212.056 222.664 212.256 224.208C212.456 225.752 213.376 226.784 213.208 226.976C213.04 227.168 212.776 226.936 212.352 226.488C211.804 225.876 211.458 225.111 211.36 224.296C211.254 223.49 211.408 222.672 211.8 221.96C212.104 221.44 212.424 221.24 212.52 221.312Z" fill="#263238"/>
<path d="M213.64 207.504C213.824 207.688 213 208.776 212.976 210.336C212.952 211.896 213.72 213.048 213.52 213.208C213.44 213.296 213.104 213.104 212.72 212.6C212.265 211.919 212.031 211.115 212.048 210.296C212.067 209.48 212.348 208.693 212.848 208.048C213.216 207.576 213.6 207.416 213.64 207.504Z" fill="#263238"/>
<path d="M204.568 216.44C204.709 217.288 204.747 218.151 204.68 219.008C204.68 219.408 204.68 219.808 204.952 219.896C205.356 219.987 205.778 219.95 206.16 219.792L209.32 219.032C213.816 217.992 217.488 217.296 217.528 217.48C217.568 217.664 213.96 218.648 209.464 219.688L206.264 220.4C205.747 220.59 205.18 220.59 204.664 220.4C204.532 220.324 204.42 220.219 204.335 220.093C204.251 219.967 204.196 219.823 204.176 219.672C204.148 219.446 204.148 219.218 204.176 218.992C204.197 218.128 204.328 217.27 204.568 216.44Z" fill="#263238"/>
<path d="M221.944 213.664C221.584 213.4 222.2 211.96 222.488 210.136C222.776 208.312 222.696 206.76 223.128 206.632C223.328 206.576 223.648 206.936 223.88 207.616C224.147 208.519 224.204 209.472 224.047 210.401C223.891 211.329 223.524 212.21 222.976 212.976C222.536 213.552 222.12 213.784 221.944 213.664Z" fill="#263238"/>
<path d="M220 228.384C219.688 228.016 220.208 226.784 220.408 225.288C220.608 223.792 220.504 222.464 220.912 222.216C221.104 222.104 221.432 222.352 221.712 222.952C222.033 223.773 222.127 224.666 221.984 225.536C221.878 226.413 221.532 227.243 220.984 227.936C220.56 228.416 220.176 228.544 220 228.384Z" fill="#263238"/>
<path d="M213.712 195.32C213.808 195.16 216.688 188.688 209.792 187.976C202.896 187.264 203.6 194.376 203.792 194.376C203.984 194.376 213.712 195.32 213.712 195.32Z" fill="#FFBF9D"/>
<path d="M206.624 192.536C206.624 192.536 206.552 192.408 206.48 192.192C206.391 191.894 206.42 191.573 206.56 191.296C206.904 190.592 208.12 190.096 209.368 190.192C209.961 190.235 210.538 190.41 211.056 190.704C211.258 190.796 211.436 190.935 211.575 191.108C211.714 191.282 211.81 191.486 211.856 191.704C211.877 191.847 211.848 191.993 211.774 192.117C211.699 192.241 211.584 192.336 211.448 192.384C211.248 192.456 211.112 192.384 211.096 192.432C211.08 192.48 211.2 192.592 211.488 192.568C211.664 192.544 211.827 192.463 211.952 192.336C212.114 192.16 212.2 191.927 212.192 191.688C212.166 191.4 212.066 191.123 211.902 190.885C211.738 190.647 211.516 190.455 211.256 190.328C210.691 189.969 210.044 189.757 209.376 189.712C207.976 189.608 206.6 190.184 206.216 191.152C206.142 191.332 206.109 191.525 206.12 191.719C206.131 191.913 206.186 192.102 206.28 192.272C206.464 192.504 206.616 192.56 206.624 192.536Z" fill="#FF9A6C"/>
<path d="M231.496 227.048C232.008 228.224 235.944 225.208 237.456 222.584C239.728 218.584 241.456 212.376 240.76 208.448C239.888 203.712 237.96 199.648 233.984 196.96C229.918 194.325 225.224 192.821 220.384 192.6C218.921 192.405 217.432 192.603 216.072 193.176C214.472 193.976 213.32 195.76 211.216 195.48C210.837 195.417 210.449 195.431 210.075 195.52C209.702 195.609 209.349 195.772 209.04 196C207.576 197.136 208.696 198.8 209.896 199.632C212.456 201.4 215.672 201.88 218.76 202.304C220.938 202.724 223.17 202.787 225.368 202.488C226.552 202.256 227.688 201.816 228.88 201.688C229.472 201.566 230.083 201.575 230.672 201.713C231.26 201.851 231.812 202.115 232.288 202.488C232.476 202.678 232.647 202.884 232.8 203.104C233.549 204.146 234.007 205.369 234.128 206.647C234.249 207.925 234.028 209.212 233.488 210.376C231.744 214.136 229.064 220.584 230.216 222.448C231.88 225.12 233.064 225.832 233.064 225.832L231.496 227.048Z" fill="#263238"/>
<path d="M213.832 191.952C213.702 191.135 213.346 190.371 212.802 189.747C212.259 189.123 211.551 188.664 210.76 188.424C210.76 188.368 211.072 188.336 211.56 188.464C212.18 188.636 212.737 188.986 213.16 189.472C213.584 189.951 213.862 190.543 213.96 191.176C213.96 191.656 213.888 191.952 213.832 191.952Z" fill="white"/>
<path d="M201.184 212.856C201.029 212.493 200.746 212.2 200.389 212.033C200.032 211.867 199.625 211.838 199.248 211.952L199.448 211.864C199.096 211.816 198.738 211.891 198.435 212.076C198.132 212.261 197.902 212.545 197.784 212.88C197.681 213.22 197.681 213.583 197.784 213.923C197.886 214.263 198.087 214.565 198.36 214.792C198.665 215.039 199.039 215.184 199.43 215.209C199.821 215.233 200.211 215.135 200.544 214.928C200.868 214.705 201.107 214.379 201.223 214.003C201.339 213.627 201.325 213.223 201.184 212.856Z" fill="#FF9A6C"/>
<path d="M200.8 214.64C201.031 214.367 201.159 214.021 201.16 213.664C201.191 213.291 201.116 212.917 200.944 212.584C200.63 212.26 200.203 212.07 199.752 212.056C199.301 211.986 198.841 212.083 198.456 212.328C198.301 212.425 198.167 212.554 198.064 212.705C197.961 212.857 197.89 213.028 197.856 213.208C197.825 213.561 197.9 213.914 198.072 214.224C198.072 214.224 197.944 214.224 197.808 214.032C197.629 213.784 197.542 213.481 197.56 213.176C197.581 212.946 197.653 212.722 197.769 212.522C197.885 212.322 198.043 212.149 198.232 212.016C198.696 211.687 199.27 211.552 199.832 211.64C200.113 211.651 200.389 211.723 200.64 211.85C200.891 211.977 201.112 212.156 201.288 212.376C201.499 212.779 201.566 213.241 201.48 213.688C201.454 213.986 201.33 214.267 201.128 214.488C200.912 214.648 200.8 214.664 200.8 214.64Z" fill="#263238"/>
<g opacity="0.1">
<path d="M239.952 206.6C238.854 203.053 236.713 199.919 233.807 197.607C230.902 195.296 227.367 193.913 223.664 193.64L220.88 193.512C220.396 193.447 219.903 193.493 219.44 193.648C219.21 193.731 219.013 193.888 218.883 194.096C218.752 194.303 218.695 194.548 218.72 194.792C218.84 195.336 219.44 195.592 219.976 195.736C223.176 196.592 226.536 196.432 229.632 197.52C232.594 198.562 235.055 200.683 236.523 203.458C237.99 206.234 238.358 209.461 237.552 212.496C237.393 212.948 237.322 213.426 237.344 213.904C237.358 214.144 237.453 214.372 237.612 214.552C237.772 214.732 237.987 214.853 238.224 214.896C238.446 214.878 238.66 214.807 238.848 214.689C239.036 214.57 239.192 214.408 239.304 214.216C240.896 212.096 240.736 209.128 239.952 206.6Z" fill="white"/>
</g>
<path d="M211.952 213.368C211.952 213.416 211.592 213.424 211.088 213.192C210.423 212.878 209.895 212.334 209.601 211.66C209.307 210.986 209.266 210.229 209.488 209.528C209.664 209 209.912 208.728 209.952 208.776C209.992 208.824 209.864 209.104 209.776 209.576C209.651 210.214 209.723 210.875 209.983 211.471C210.243 212.067 210.679 212.57 211.232 212.912C211.656 213.208 212 213.304 211.952 213.368Z" fill="#FF9A6C"/>
<path d="M209.96 226.512C209.617 225.851 209.502 225.095 209.632 224.362C209.762 223.628 210.13 222.959 210.68 222.456C210.784 222.536 210.232 223.312 210.04 224.44C209.848 225.568 210.08 226.48 209.96 226.512Z" fill="#FF9A6C"/>
<path d="M136.8 253.048C137.28 252.872 171.2 254.528 182.208 255.496C193.216 256.464 212.296 261.656 213.24 274.616C214.04 285.016 213.856 357.496 213.856 357.496H184.256L183.552 280.896L137.576 269.296L136.8 253.048Z" fill="#263238"/>
<g opacity="0.3">
<path d="M161.112 257.928C161.112 257.928 177.592 260.904 190.752 264.64C203.912 268.376 209.72 276.368 211.64 281.128C213.56 285.888 214.472 293 210.432 299.672C207.88 303.896 195.088 318.76 195.088 318.76C195.088 318.76 192.448 276.104 192.32 275.456C192.192 274.808 161.112 257.928 161.112 257.928Z" fill="black"/>
</g>
<path d="M210.192 285.976C208.8 277.752 199.488 272 188.072 267.72C176.824 263.488 147.392 253.032 147.392 253.032L140.344 251.296H137.192L136.152 248.176C136.152 248.176 116.152 242.392 87.2641 253.048L86.2801 253.848C86.2801 253.848 85.4081 274.92 89.4801 279.448C89.4801 279.448 135.496 278.8 137.912 279C140.328 279.2 174.072 294.512 174.072 294.512L145.184 338.824L169.072 355.512C169.072 355.512 183.472 334.984 192.272 322.712C204.84 305.096 211.84 295.688 210.192 285.976Z" fill="#263238"/>
<path d="M210.192 285.976C210.192 285.976 210.264 286.472 210.384 287.44C210.506 288.873 210.452 290.316 210.224 291.736C209.822 294.036 209.114 296.272 208.12 298.384C206.785 301.252 205.248 304.022 203.52 306.672C199.696 312.696 194.512 319.672 188.76 327.896L169.208 355.608L169.112 355.744L168.976 355.648L145.08 338.976L144.936 338.872L145.032 338.72C153.872 325.16 163.624 310.176 173.904 294.4L173.984 294.696C167.584 291.795 161.018 288.861 154.288 285.896C150.928 284.432 147.544 282.96 144.112 281.528C142.392 280.832 140.672 280.096 138.912 279.488C138.7 279.41 138.484 279.346 138.264 279.296C138.05 279.223 137.825 279.19 137.6 279.2C137.144 279.2 136.672 279.2 136.208 279.2H133.384C118.304 279.28 103.6 279.488 89.4878 279.672H89.3918L89.3278 279.608C88.6227 278.704 88.101 277.672 87.7918 276.568C87.4525 275.502 87.1852 274.414 86.9918 273.312C86.6082 271.144 86.3412 268.957 86.1918 266.76C85.9118 262.4 85.8878 258.112 86.0238 253.888V253.8L86.0958 253.744L87.0798 252.944C95.241 249.929 103.742 247.93 112.392 246.992C116.44 246.558 120.516 246.424 124.584 246.592C128.494 246.664 132.386 247.135 136.2 248H136.288V248.088C136.648 249.184 136.984 250.208 137.32 251.216L137.16 251.104H140.36L147.416 252.848L176.024 263.208L187.784 267.472C191.078 268.687 194.285 270.125 197.384 271.776C202.984 274.752 206.712 278.248 208.368 281.184C208.741 281.818 209.072 282.475 209.36 283.152C209.555 283.649 209.723 284.157 209.864 284.672C210.056 285.512 210.136 285.936 210.136 285.936C210.136 285.936 210.024 285.512 209.824 284.68C209.728 284.264 209.504 283.776 209.296 283.184C209.192 282.88 209.008 282.584 208.856 282.256C208.693 281.901 208.503 281.558 208.288 281.232C206.616 278.328 202.888 274.88 197.296 271.928C194.196 270.296 190.989 268.876 187.696 267.68L176 263.488L147.376 253.184L140.328 251.448H137.128V251.336L136 248.224L136.12 248.336C132.371 247.46 128.544 246.967 124.696 246.864C120.646 246.702 116.589 246.841 112.56 247.28C103.942 248.222 95.4732 250.221 87.3438 253.232H87.3998L86.4158 254.032L86.4878 253.888C86.3518 258.088 86.3838 262.384 86.6638 266.688C86.7998 268.87 87.0508 271.044 87.4158 273.2C87.6179 274.282 87.8851 275.35 88.2158 276.4C88.5112 277.45 89.0055 278.433 89.6718 279.296L89.5198 279.224C103.64 279.04 118.32 278.824 133.424 278.744H136.248C136.72 278.744 137.192 278.744 137.664 278.744C137.908 278.742 138.151 278.78 138.384 278.856C138.623 278.907 138.859 278.977 139.088 279.064C140.872 279.68 142.584 280.408 144.312 281.112C147.744 282.544 151.136 284.016 154.488 285.488C161.197 288.432 167.765 291.365 174.192 294.288L174.408 294.384L174.28 294.584L145.384 338.888L145.336 338.632L169.208 355.336H168.976L188.584 327.656C194.352 319.448 199.56 312.456 203.4 306.496C205.122 303.882 206.66 301.15 208 298.32C208.999 296.223 209.717 294.004 210.136 291.72C210.371 290.306 210.441 288.87 210.344 287.44C210.232 286.48 210.192 285.976 210.192 285.976Z" fill="#455A64"/>
<path d="M188.408 289.112C187.653 289.289 186.889 289.425 186.12 289.52C182.455 290.188 178.959 291.575 175.832 293.6C174.632 294.4 173.928 294.912 173.88 294.864C174.403 294.284 175.004 293.778 175.664 293.36C177.201 292.267 178.867 291.367 180.624 290.68C182.379 289.991 184.211 289.515 186.08 289.264C186.847 289.12 187.629 289.069 188.408 289.112Z" fill="#455A64"/>
<path d="M183.216 216.296V218.832L177.032 219.408L176.68 218.112L178.344 214.248L183.216 216.296Z" fill="#F79221"/>
<path d="M178.384 218.296L170.4 234.28L172.168 262.968L168.16 269.224L163.944 262.008L164.672 234.712L177.104 217.12L178.384 218.296Z" fill="#F79221"/>
<path d="M180.8 191.624C180.8 191.624 169.536 187.352 158.648 186.64C147.76 185.928 134.296 193.232 127.864 196.088C121.432 198.944 96.8401 223.288 91.5201 231.384C88.4721 236.04 84.4081 246.584 84.4081 246.584C83.7201 250.264 86.2881 253.848 86.2881 253.848L135.8 254.216H145.088L149.016 245.824C149.016 245.824 156.512 245.288 158.656 241.184C160.8 237.08 168.656 231.008 168.656 231.008L177.6 216.208L183.488 217.456L186.752 192.312L180.8 191.624Z" fill="#E0E0E0"/>
<path d="M144.096 202.88C144.055 203.176 143.98 203.466 143.872 203.744C143.688 204.384 143.456 205.152 143.176 206.064C142.439 208.615 141.836 211.202 141.368 213.816C140.913 216.434 140.601 219.076 140.432 221.728C140.384 222.672 140.336 223.48 140.304 224.128C140.307 224.426 140.277 224.724 140.216 225.016C140.151 224.725 140.124 224.426 140.136 224.128C140.136 223.56 140.136 222.728 140.136 221.728C140.21 219.046 140.478 216.372 140.936 213.728C141.4 211.097 142.047 208.501 142.872 205.96C143.192 204.984 143.48 204.208 143.672 203.68C143.782 203.398 143.924 203.129 144.096 202.88Z" fill="#263238"/>
<path d="M165.8 301.528C165.8 301.528 169.192 305.48 170.24 306.912C171.184 308.192 172.12 312.88 172.48 317.456C172.505 317.728 172.463 318.002 172.356 318.254C172.249 318.505 172.081 318.726 171.868 318.897C171.655 319.067 171.402 319.182 171.133 319.231C170.864 319.28 170.588 319.261 170.328 319.176C170.101 319.089 169.902 318.945 169.749 318.757C169.596 318.568 169.495 318.343 169.456 318.104C168.728 314.792 168.536 313.384 168.536 313.384C168.44 311.784 168.272 312.008 168.224 313.088C168.176 314.168 169.024 320.144 169.024 320.144C169.024 320.144 171.312 328.296 170.696 329.208C170.565 329.389 170.394 329.539 170.197 329.645C170 329.751 169.781 329.812 169.557 329.822C169.333 329.832 169.11 329.791 168.904 329.703C168.698 329.615 168.515 329.481 168.368 329.312C168.056 328.888 165.48 322.112 165.48 322.112L164.8 318.4C164.8 318.4 166.128 330.128 165.384 331.048C165.274 331.216 165.125 331.355 164.951 331.454C164.776 331.554 164.581 331.61 164.38 331.62C164.18 331.629 163.98 331.591 163.797 331.508C163.614 331.426 163.453 331.301 163.328 331.144C162.808 330.68 162.28 325.496 162.28 325.496L161.072 318.576L161.288 331.768C161.288 331.768 161.152 333.016 160.168 333.064C159.184 333.112 158.568 331.664 158.568 331.664L157.152 318.064C157.152 318.064 157.608 325.624 157.096 326.024C156.416 326.552 155.8 326.376 155.576 325.792C155.12 324.616 154.456 317.792 154.456 317.792L153.832 304.848L153.376 300.568L164.704 296.512L165.8 301.528Z" fill="#FFBF9D"/>
<g opacity="0.3">
<path d="M141.256 220.688C137.737 231.584 135.256 242.789 133.848 254.152C133.987 258.266 134.458 262.362 135.256 266.4C136.56 272.872 147.176 300.936 147.176 300.936L154.448 301.568L148.32 251.712L154.448 228.408L141.256 220.688Z" fill="black"/>
</g>
<path d="M173.856 199.432C178.84 200.968 179.776 211.072 178.704 213.952C175.272 223.192 164.304 231.872 164.464 231.368L157.336 259.72L167.44 298.12L151.104 303.968C151.104 303.968 136.2 264.544 135.904 258.368C135.608 252.192 140.048 236.096 140.704 226.472C141.128 220.288 144.264 207.744 151.904 200.36" fill="#E0E0E0"/>
<path d="M151.912 200.304C151.912 200.304 151.792 200.448 151.544 200.72C151.296 200.992 150.912 201.384 150.44 201.928C149.095 203.533 147.895 205.254 146.856 207.072C145.231 209.973 143.917 213.038 142.936 216.216C142.304 218.198 141.799 220.218 141.424 222.264C141.232 223.352 141.056 224.472 140.952 225.632C140.848 226.792 140.776 228.032 140.608 229.224C140.032 234.12 138.96 239.424 137.88 245.136C137.352 247.984 136.792 250.944 136.392 254.008C136.164 255.554 136.092 257.119 136.176 258.68L136.344 259.848L136.616 261.016C136.784 261.816 137.008 262.616 137.232 263.416C138.104 266.568 139.144 269.768 140.232 273.016C141.32 276.264 142.472 279.6 143.664 282.984C146.064 289.744 148.608 296.736 151.296 303.888L151.032 303.768L158.624 301.048L167.368 297.92L167.24 298.168C163.648 284.512 160.248 271.568 157.152 259.768V259.672C159.8 249.208 162.208 239.672 164.312 231.328L164.608 231.408C164.615 231.387 164.616 231.364 164.612 231.341C164.608 231.319 164.598 231.299 164.584 231.281C164.569 231.264 164.551 231.25 164.53 231.241C164.509 231.233 164.487 231.23 164.464 231.232H164.512L164.624 231.168L164.848 231.016L165.296 230.68L166.16 229.984C166.72 229.504 167.264 229.024 167.76 228.536C168.816 227.568 169.808 226.576 170.736 225.584C172.492 223.726 174.097 221.73 175.536 219.616C176.81 217.787 177.845 215.803 178.616 213.712C179.012 211.884 179.061 209.998 178.76 208.152C178.312 204.8 177.208 202.304 176.008 200.952C175.399 200.278 174.644 199.753 173.8 199.416C173.8 199.416 174.024 199.496 174.448 199.672C174.713 199.783 174.961 199.931 175.184 200.112C175.514 200.338 175.813 200.607 176.072 200.912C177.312 202.224 178.472 204.736 178.928 208.112C179.057 209.002 179.127 209.9 179.136 210.8C179.165 211.797 179.057 212.793 178.816 213.76C178.053 215.877 177.018 217.886 175.736 219.736C174.299 221.868 172.694 223.883 170.936 225.76C170 226.76 169.008 227.76 167.952 228.736C167.424 229.232 166.88 229.72 166.352 230.2C166.072 230.432 165.784 230.672 165.488 230.904L165.032 231.248L164.792 231.408L164.664 231.488H164.584H164.512C164.484 231.491 164.455 231.488 164.429 231.478C164.402 231.468 164.379 231.451 164.36 231.43C164.341 231.409 164.327 231.383 164.32 231.356C164.314 231.328 164.313 231.3 164.32 231.272L164.624 231.352L157.528 259.712V259.616L167.648 298.016L167.696 298.2L167.52 298.264L158.776 301.392L151.176 304.112L150.984 304.184L150.912 303.992C148.224 296.832 145.68 289.832 143.288 283.072C142.104 279.688 140.944 276.36 139.864 273.096C138.784 269.832 137.752 266.616 136.872 263.448C136.648 262.648 136.432 261.848 136.264 261.048C136.168 260.648 136.08 260.248 135.992 259.864C135.904 259.48 135.872 259.064 135.816 258.648C135.732 257.066 135.81 255.479 136.048 253.912C136.456 250.824 137.016 247.872 137.56 245.016C138.656 239.304 139.744 234.016 140.336 229.128C140.504 227.912 140.568 226.728 140.688 225.552C140.808 224.376 140.984 223.248 141.184 222.16C141.569 220.108 142.084 218.082 142.728 216.096C143.725 212.909 145.066 209.84 146.728 206.944C147.779 205.121 149.003 203.404 150.384 201.816C151.36 200.8 151.912 200.304 151.912 200.304Z" fill="#263238"/>
<path d="M178.4 205.992C178.318 205.285 178.318 204.571 178.4 203.864C178.478 202.155 178.643 200.452 178.896 198.76C179.147 197.068 179.489 195.391 179.92 193.736C180.059 193.037 180.282 192.357 180.584 191.712C180.516 192.417 180.39 193.115 180.208 193.8C179.944 195.08 179.608 196.856 179.312 198.824C179.016 200.792 178.824 202.584 178.696 203.888C178.661 204.597 178.562 205.301 178.4 205.992Z" fill="#263238"/>
<g opacity="0.3">
<path d="M180.208 192.304C180.04 192.232 179.864 192.4 179.752 192.552C178.707 193.765 177.871 195.144 177.28 196.632C176.392 199.288 177.336 202.232 178.144 204.952C178.897 207.547 179.168 210.259 178.944 212.952L178.744 213.888C179.604 212.203 179.847 210.27 179.432 208.424C179.011 206.597 178.686 204.749 178.456 202.888C178.272 199.456 179.656 196.16 180.344 192.8C180.384 192.64 180.392 192.376 180.208 192.304Z" fill="black"/>
</g>
<path d="M124.392 267.472H119.296V303.936H124.392V267.472Z" fill="#E0E0E0"/>
<path d="M46.4397 243.648C46.8949 244.726 47.7282 245.601 48.7831 246.108C49.8379 246.614 51.0416 246.718 52.1677 246.4C64.1108 243.111 76.7035 242.981 88.7117 246.024C105.568 250.208 111.72 259.288 114.008 265C114.569 266.368 115.526 267.536 116.756 268.356C117.986 269.175 119.434 269.609 120.912 269.6H121.6C122.311 269.595 123.012 269.432 123.652 269.123C124.292 268.814 124.856 268.367 125.302 267.813C125.749 267.26 126.066 266.614 126.233 265.923C126.399 265.231 126.409 264.512 126.264 263.816C124.52 255.896 113.984 242.136 95.1517 237.048C72.4877 230.92 56.7517 235 49.4317 237.28C48.8026 237.481 48.2217 237.809 47.7253 238.245C47.2289 238.68 46.8278 239.214 46.5469 239.812C46.2661 240.409 46.1116 241.058 46.0932 241.719C46.0747 242.379 46.1927 243.036 46.4397 243.648Z" fill="#455A64"/>
<path d="M46.44 243.648C46.44 243.648 46.368 243.496 46.256 243.184C46.0631 242.57 45.9955 241.924 46.0574 241.283C46.1192 240.643 46.3092 240.021 46.616 239.456C47.1469 238.489 47.9944 237.735 49.016 237.32C55.5433 235.161 62.345 233.943 69.216 233.704C73.954 233.535 78.6977 233.784 83.392 234.448C84.656 234.648 85.944 234.832 87.24 235.056L91.184 235.856L95.184 236.848C96.512 237.28 97.896 237.648 99.24 238.136C100.584 238.624 101.96 239.136 103.288 239.784C103.952 240.104 104.64 240.376 105.296 240.736L107.28 241.8C109.955 243.321 112.486 245.083 114.84 247.064C117.275 249.123 119.483 251.438 121.424 253.968L122.16 254.936L122.84 255.96C123.056 256.296 123.296 256.632 123.504 256.984L124.112 258.056C124.941 259.496 125.609 261.022 126.104 262.608C126.208 263.016 126.328 263.408 126.432 263.824C126.513 264.245 126.543 264.675 126.52 265.104C126.444 266.391 125.87 267.597 124.921 268.469C123.971 269.341 122.72 269.809 121.432 269.776C119.782 269.867 118.144 269.445 116.744 268.568C115.368 267.695 114.31 266.402 113.728 264.88C113.151 263.458 112.438 262.094 111.6 260.808C111.208 260.152 110.736 259.56 110.296 258.952C109.856 258.344 109.368 257.768 108.848 257.232C106.868 255.081 104.602 253.213 102.112 251.68C99.7401 250.227 97.2355 249.003 94.632 248.024C92.164 247.12 89.6383 246.383 87.072 245.816C82.4754 244.757 77.7866 244.149 73.072 244C66.2387 243.768 59.4084 244.542 52.8 246.296C52.2507 246.478 51.6811 246.591 51.104 246.632C50.4492 246.66 49.7955 246.554 49.1832 246.32C48.571 246.086 48.0131 245.73 47.544 245.272C47.0752 244.824 46.7117 244.278 46.48 243.672C46.7603 244.255 47.1422 244.783 47.608 245.232C48.1738 245.754 48.857 246.133 49.6 246.336C50.0807 246.458 50.5766 246.509 51.072 246.488C51.638 246.437 52.1963 246.322 52.736 246.144C59.3636 244.326 66.2273 243.517 73.096 243.744C77.8389 243.86 82.5583 244.45 87.184 245.504C89.7657 246.069 92.3072 246.804 94.792 247.704C97.424 248.686 99.9556 249.918 102.352 251.384C104.874 252.927 107.171 254.811 109.176 256.984C109.704 257.52 110.152 258.136 110.648 258.72C111.144 259.304 111.568 259.944 111.968 260.608C112.825 261.912 113.552 263.297 114.136 264.744C114.691 266.186 115.695 267.412 117 268.24C118.335 269.072 119.894 269.472 121.464 269.384C122.647 269.417 123.797 268.988 124.67 268.187C125.542 267.387 126.068 266.278 126.136 265.096C126.157 264.702 126.13 264.307 126.056 263.92C125.96 263.528 125.84 263.12 125.736 262.744C125.25 261.187 124.595 259.687 123.784 258.272L123.2 257.2C122.992 256.856 122.76 256.52 122.536 256.184L121.84 255.2L121.112 254.24C119.188 251.735 117.002 249.442 114.592 247.4C112.258 245.434 109.749 243.685 107.096 242.176L105.136 241.112C104.488 240.752 103.8 240.488 103.144 240.168C101.824 239.52 100.464 239.04 99.144 238.528C97.824 238.016 96.44 237.664 95.144 237.24L91.144 236.24L87.216 235.44C85.92 235.208 84.64 235.024 83.384 234.816C78.7093 234.142 73.9849 233.874 69.264 234.016C62.4204 234.229 55.6401 235.398 49.12 237.488C48.1234 237.876 47.294 238.6 46.776 239.536C46.3879 240.214 46.1761 240.979 46.16 241.76C46.1408 242.401 46.2356 243.04 46.44 243.648Z" fill="#263238"/>
<path d="M54.7998 241.72C54.7998 242.484 54.5732 243.231 54.1486 243.867C53.724 244.502 53.1205 244.997 52.4145 245.29C51.7084 245.582 50.9315 245.659 50.182 245.51C49.4324 245.361 48.7439 244.993 48.2035 244.452C47.6631 243.912 47.2951 243.223 47.146 242.474C46.9969 241.724 47.0735 240.947 47.3659 240.241C47.6584 239.535 48.1536 238.932 48.7891 238.507C49.4245 238.083 50.1716 237.856 50.9358 237.856C51.4435 237.855 51.9464 237.954 52.4157 238.148C52.885 238.342 53.3114 238.626 53.6704 238.985C54.0294 239.344 54.314 239.771 54.5078 240.24C54.7016 240.709 54.8008 241.212 54.7998 241.72Z" fill="white"/>
<path d="M284 215.88H302.224L300.8 225.904C300.8 225.904 299.616 230.832 296.8 230.832H288.904C287.933 230.237 287.093 229.452 286.433 228.524C285.773 227.596 285.308 226.544 285.064 225.432L284 215.88Z" fill="#455A64"/>
<path d="M284 215.88C284.026 215.985 284.045 216.092 284.056 216.2C284.056 216.424 284.128 216.72 284.184 217.088C284.288 217.888 284.44 219.016 284.632 220.424C284.824 221.832 285.048 223.576 285.304 225.536C285.552 226.608 286.014 227.618 286.661 228.507C287.309 229.397 288.129 230.146 289.072 230.712H289H295.312C295.872 230.712 296.44 230.712 296.992 230.712C297.538 230.681 298.056 230.46 298.456 230.088C299.292 229.285 299.921 228.291 300.288 227.192C300.449 226.77 300.588 226.34 300.704 225.904C301.192 222.36 301.656 218.992 302.08 215.88L302.224 216.048L289.144 215.976L285.376 215.936H284.36H284C284.109 215.923 284.219 215.923 284.328 215.936H285.312L289.048 215.896L302.224 215.824H302.384V215.984C301.96 219.096 301.504 222.472 301.032 226.008C300.919 226.459 300.777 226.903 300.608 227.336C300.218 228.484 299.556 229.522 298.68 230.36C298.228 230.776 297.645 231.019 297.032 231.048C296.456 231.048 295.896 231.048 295.336 231.048H289.024H288.984C288.01 230.459 287.166 229.678 286.503 228.752C285.84 227.826 285.372 226.776 285.128 225.664C284.864 223.656 284.688 221.904 284.52 220.464C284.352 219.024 284.24 217.928 284.16 217.128L284.064 216.256C284.028 216.134 284.006 216.007 284 215.88Z" fill="#263238"/>
<path d="M300.8 221.048L301.072 220.984C300.904 220.984 301.12 220.984 301.152 220.984C301.349 220.972 301.547 220.972 301.744 220.984C301.552 220.984 301.744 220.984 301.816 220.984L302.128 221.064L302.384 221.144C302.504 221.184 302.384 221.144 302.336 221.144L302.504 221.224C302.677 221.319 302.846 221.423 303.008 221.536C303.112 221.608 303.008 221.536 302.968 221.536L303.072 221.624C303.15 221.695 303.225 221.769 303.296 221.848C303.352 221.912 303.464 222.064 303.36 221.912C303.424 222 303.48 222.088 303.536 222.176C303.592 222.264 303.624 222.344 303.664 222.424C303.704 222.504 303.664 222.424 303.664 222.376C303.69 222.433 303.711 222.492 303.728 222.552C303.764 222.654 303.794 222.758 303.816 222.864C303.816 222.904 303.872 223.168 303.856 223.04C303.84 222.912 303.856 223.176 303.856 223.216C303.864 223.325 303.864 223.435 303.856 223.544C303.856 223.608 303.856 223.672 303.856 223.736C303.856 223.904 303.856 223.8 303.856 223.736C303.846 223.795 303.832 223.854 303.816 223.912C303.8 224.005 303.776 224.096 303.744 224.184C303.744 224.256 303.624 224.504 303.744 224.312C303.658 224.497 303.559 224.677 303.448 224.848L303.368 224.96C303.368 224.96 303.48 224.832 303.368 224.92C303.256 225.008 303.2 225.096 303.112 225.184C303.024 225.272 302.88 225.368 302.976 225.304C303.072 225.24 302.856 225.376 302.824 225.392L302.584 225.528L302.464 225.592C302.6 225.52 302.528 225.592 302.464 225.592C302.4 225.592 302.048 225.704 301.84 225.76C301.632 225.816 301.896 225.76 301.912 225.76H301.728H301.104H300.928L300.576 225.648C300.728 225.712 300.456 225.584 300.456 225.584C300.331 225.511 300.194 225.463 300.051 225.443C299.908 225.424 299.762 225.432 299.623 225.469C299.483 225.505 299.352 225.568 299.237 225.656C299.122 225.743 299.025 225.852 298.952 225.976C298.879 226.101 298.831 226.238 298.811 226.381C298.791 226.524 298.8 226.67 298.836 226.809C298.873 226.949 298.936 227.08 299.023 227.195C299.11 227.31 299.219 227.407 299.344 227.48C300.395 228.027 301.613 228.157 302.756 227.846C303.899 227.535 304.883 226.804 305.512 225.8C306.104 224.748 306.287 223.514 306.024 222.336C305.89 221.763 305.645 221.222 305.302 220.744C304.958 220.267 304.524 219.861 304.024 219.552C303.472 219.205 302.855 218.976 302.211 218.878C301.567 218.781 300.909 218.817 300.28 218.984C299.999 219.061 299.76 219.247 299.616 219.501C299.472 219.755 299.434 220.055 299.512 220.336C299.589 220.617 299.775 220.856 300.029 221C300.282 221.144 300.583 221.181 300.864 221.104L300.8 221.048Z" fill="#455A64"/>
<path d="M300.8 221.048C300.685 221.103 300.558 221.125 300.432 221.112C300.243 221.103 300.059 221.047 299.897 220.949C299.735 220.851 299.6 220.715 299.504 220.552C299.425 220.42 299.373 220.274 299.351 220.121C299.329 219.969 299.338 219.814 299.377 219.665C299.416 219.516 299.484 219.376 299.577 219.254C299.67 219.132 299.787 219.029 299.92 218.952C300.256 218.799 300.616 218.707 300.984 218.68C301.39 218.629 301.802 218.629 302.208 218.68C303.141 218.82 304.012 219.232 304.712 219.864C305.528 220.589 306.052 221.588 306.184 222.672C306.346 223.87 306.061 225.086 305.384 226.088C305.011 226.611 304.535 227.051 303.984 227.381C303.433 227.712 302.821 227.925 302.184 228.008C301.615 228.088 301.036 228.072 300.472 227.96C300.201 227.897 299.933 227.816 299.672 227.72L299.288 227.544C299.147 227.481 299.022 227.388 298.92 227.272C298.731 227.037 298.628 226.745 298.628 226.444C298.628 226.143 298.731 225.851 298.92 225.616C299.118 225.398 299.384 225.254 299.675 225.207C299.966 225.161 300.264 225.215 300.52 225.36L300.312 225.488C300.313 225.453 300.327 225.419 300.35 225.393C300.374 225.367 300.405 225.35 300.44 225.344C300.52 225.344 300.528 225.344 300.52 225.344H300.576C300.576 225.256 300.688 225.568 300.512 225.6H300.424H300.36V225.56C300.28 225.24 300.584 225.328 300.496 225.32H300.544L300.656 225.36C300.805 225.408 300.958 225.445 301.112 225.472C301.112 225.472 301.112 225.472 301.192 225.512C301.272 225.552 301.24 225.512 301.232 225.648C301.224 225.784 301.12 225.76 301.112 225.76H301.04H300.976H300.92C300.92 225.76 300.84 225.72 300.88 225.584C300.92 225.448 300.984 225.52 301 225.512H301.36C301.512 225.52 301.664 225.52 301.816 225.512V225.784H301.768H301.696C301.66 225.784 301.625 225.77 301.6 225.744C301.584 225.722 301.575 225.695 301.575 225.668C301.575 225.641 301.584 225.614 301.6 225.592C301.6 225.536 301.6 225.552 301.6 225.544L301.664 225.504H301.792L302.024 225.44L302.264 225.376H302.368C302.312 225.32 302.368 225.648 302.448 225.608H302.504H302.456L302.328 225.368L302.64 225.2L302.784 225.112C302.813 225.104 302.843 225.104 302.872 225.112C302.898 225.12 302.923 225.134 302.944 225.152C302.965 225.178 302.977 225.21 302.977 225.244C302.977 225.278 302.965 225.31 302.944 225.336H302.896C302.87 225.346 302.842 225.346 302.816 225.336C302.793 225.332 302.772 225.322 302.754 225.309C302.736 225.295 302.722 225.277 302.712 225.256C302.664 225.184 302.76 225.08 302.712 225.104C302.804 225.038 302.89 224.963 302.968 224.88L303.08 224.76C303.08 224.76 303.216 224.76 303.248 224.848C303.28 224.936 303.248 224.912 303.248 224.928L303.2 224.984L302.992 224.832C303.136 224.632 303.24 224.416 303.36 224.216L303.584 224.32V224.36C303.584 224.36 303.584 224.36 303.488 224.36C303.472 224.359 303.457 224.355 303.443 224.348C303.428 224.341 303.416 224.331 303.405 224.319C303.395 224.307 303.387 224.294 303.382 224.279C303.377 224.264 303.375 224.248 303.376 224.232V224.144C303.398 224.095 303.417 224.044 303.432 223.992C303.432 223.888 303.488 223.784 303.512 223.68V223.6C303.512 223.6 303.512 223.6 303.56 223.528C303.577 223.518 303.596 223.513 303.616 223.513C303.636 223.513 303.655 223.518 303.672 223.528H303.72C303.728 223.559 303.728 223.593 303.72 223.624V223.704C303.8 223.792 303.384 223.752 303.496 223.704V223.632C303.492 223.608 303.492 223.584 303.496 223.56C303.496 223.456 303.496 223.352 303.496 223.256C303.504 223.158 303.504 223.059 303.496 222.96V222.872C303.498 222.853 303.504 222.835 303.514 222.818C303.523 222.801 303.536 222.787 303.552 222.776C303.568 222.764 303.588 222.758 303.608 222.758C303.628 222.758 303.648 222.764 303.664 222.776C303.673 222.779 303.682 222.784 303.689 222.791C303.695 222.798 303.701 222.807 303.704 222.816C303.704 222.856 303.704 222.856 303.704 222.856V222.904C303.707 222.92 303.707 222.936 303.704 222.952C303.704 222.952 303.704 222.952 303.64 222.992C303.615 222.999 303.589 222.997 303.566 222.986C303.543 222.976 303.524 222.958 303.512 222.936L303.472 222.76C303.432 222.578 303.382 222.399 303.32 222.224L303.512 222.152V222.192C303.514 222.204 303.514 222.217 303.511 222.229C303.508 222.241 303.503 222.252 303.495 222.262C303.488 222.272 303.478 222.28 303.467 222.286C303.456 222.292 303.444 222.295 303.432 222.296C303.352 222.296 303.352 222.296 303.344 222.296C303.344 222.296 303.344 222.232 303.288 222.2L303.208 222.032L303.016 221.736L303.176 221.632V221.672C303.184 221.685 303.188 221.701 303.188 221.716C303.188 221.731 303.184 221.747 303.176 221.76C303.167 221.773 303.155 221.784 303.141 221.792C303.127 221.799 303.112 221.803 303.096 221.803C303.08 221.803 303.064 221.799 303.051 221.792C303.037 221.784 303.025 221.773 303.016 221.76L302.96 221.688C302.924 221.642 302.884 221.599 302.84 221.56L302.608 221.336L302.72 221.208H302.768C302.576 221.472 302.688 221.272 302.648 221.328L302.544 221.264L302.344 221.136C302.228 221.056 302.104 220.986 301.976 220.928L302.04 220.792H302.104H302.152C302.152 220.792 302.192 220.888 302.152 220.904H302.112H302.4L302.272 220.856L302.032 220.784L301.808 220.728H301.704C301.752 220.728 301.608 220.784 301.704 220.616H301.792V220.728H301.264H301.064C301.064 220.728 301.064 220.728 301.064 220.68H301.184C301.184 220.68 301.184 220.68 301.184 220.72H301.12C301.02 220.743 300.918 220.756 300.816 220.76C300.909 220.713 301.009 220.681 301.112 220.664H301.152H301.064H301.792V220.776H301.704C301.8 220.6 301.648 220.68 301.704 220.664H301.832L302.072 220.712L302.32 220.784L302.448 220.824C302.4 221.016 302.4 220.944 302.392 220.952H302.312L302.376 220.816C302.509 220.876 302.637 220.945 302.76 221.024L302.968 221.144L303.08 221.208L303.04 221.272L302.984 221.224L303.096 221.096C303.182 221.166 303.265 221.241 303.344 221.32C303.344 221.368 303.432 221.4 303.48 221.456L303.536 221.528C303.536 221.528 303.496 221.528 303.48 221.528V221.488L303.64 221.384C303.704 221.48 303.776 221.576 303.84 221.688L303.928 221.856C303.928 221.856 303.984 221.904 303.928 221.944L303.872 221.992C303.851 221.985 303.829 221.985 303.808 221.992H303.768V221.936L303.96 221.864C304.032 222.049 304.091 222.239 304.136 222.432V222.504V222.56C304.136 222.56 304.136 222.56 304.072 222.56C304.008 222.56 304.072 222.56 304.032 222.56C304.023 222.556 304.014 222.554 304.004 222.554C303.994 222.554 303.985 222.556 303.976 222.56H303.928H303.992H304.032C304.032 222.56 304.072 222.56 304.08 222.56H304V222.616C304 222.712 304 222.832 304 222.936C304.012 223.042 304.012 223.15 304 223.256C304.004 223.285 304.004 223.315 304 223.344C304 223.344 303.96 223.344 303.904 223.344H303.768V223.272C303.768 223.272 303.848 223.272 303.832 223.272C304.008 223.272 303.936 223.272 303.952 223.272V223.352C303.952 223.456 303.896 223.576 303.864 223.688C303.851 223.746 303.833 223.802 303.808 223.856V223.928C303.496 223.8 303.608 223.832 303.6 223.816V223.776L303.824 223.88C303.696 224.096 303.592 224.328 303.44 224.544L303.232 224.392L303.288 224.328H303.336C303.336 224.328 303.392 224.328 303.408 224.384V224.424C303.408 224.424 303.456 224.488 303.448 224.472L303.328 224.6C303.246 224.686 303.157 224.766 303.064 224.84C303.008 224.792 303.008 224.752 302.992 224.76C302.976 224.768 302.992 224.76 302.992 224.72L302.952 224.648C302.952 224.648 302.992 224.696 302.952 224.704C302.912 224.712 302.952 224.776 302.952 224.776C302.951 224.793 302.954 224.809 302.963 224.824C302.972 224.838 302.985 224.849 303 224.856H302.96L302.808 224.952L302.488 225.128L302.36 224.888H302.416H302.512C302.632 224.888 302.656 225.184 302.592 225.12H302.552L302.424 225.168L302.184 225.232L301.936 225.296H301.816C301.816 225.296 301.816 225.36 301.768 225.176C301.768 225.176 301.768 225.016 301.768 225.032H301.88V225.304C301.717 225.316 301.554 225.316 301.392 225.304C301.309 225.312 301.226 225.312 301.144 225.304H301.056V225.168C301.056 225.168 301.056 225.088 301.056 225.048H301.144C301.144 225.048 301.144 225.112 301.144 225.12C301.144 225.128 301.144 225.12 301.144 225.168C301.144 225.168 301.144 225.168 301.144 225.224C301.151 225.248 301.151 225.273 301.144 225.296C300.979 225.265 300.816 225.225 300.656 225.176L300.536 225.136H300.464V225.088C300.466 225.061 300.466 225.035 300.464 225.008C300.568 224.8 300.512 224.896 300.528 224.872H300.576C300.576 224.872 300.576 224.968 300.536 224.984L300.472 225.096H300.416C300.445 225.104 300.475 225.104 300.504 225.096C300.526 225.091 300.547 225.082 300.565 225.068C300.583 225.054 300.598 225.036 300.608 225.016V224.976C300.608 224.976 300.608 224.976 300.496 224.976L300.4 225.112C300.205 225.007 299.982 224.969 299.763 225.004C299.545 225.039 299.344 225.144 299.192 225.304C299.052 225.484 298.977 225.705 298.977 225.932C298.977 226.159 299.052 226.38 299.192 226.56C299.377 226.72 299.592 226.842 299.824 226.92C300.071 227.012 300.325 227.085 300.584 227.136C301.11 227.247 301.651 227.266 302.184 227.192C302.782 227.118 303.359 226.921 303.876 226.612C304.394 226.304 304.842 225.891 305.192 225.4C305.845 224.469 306.13 223.329 305.992 222.2C305.876 221.179 305.393 220.235 304.632 219.544C303.964 218.929 303.129 218.526 302.232 218.384C301.509 218.249 300.763 218.31 300.072 218.56C299.948 218.633 299.839 218.73 299.753 218.846C299.666 218.961 299.604 219.092 299.568 219.232C299.512 219.472 299.552 219.725 299.68 219.936C299.76 220.086 299.874 220.214 300.013 220.312C300.152 220.409 300.312 220.472 300.48 220.496C300.559 220.695 300.666 220.881 300.8 221.048Z" fill="#263238"/>
<path d="M296.296 212.336C296.507 212.137 296.697 211.917 296.864 211.68C297.069 211.349 297.206 210.98 297.266 210.596C297.327 210.211 297.309 209.818 297.216 209.44C297.078 208.923 296.778 208.463 296.36 208.128C295.92 207.744 295.36 207.44 294.84 206.984C294.573 206.745 294.351 206.461 294.184 206.144C294.003 205.803 293.952 205.408 294.04 205.032C294.14 204.65 294.345 204.304 294.632 204.032C294.896 203.752 295.192 203.512 295.432 203.232C295.703 202.992 295.916 202.694 296.056 202.36C296.16 202.029 296.16 201.675 296.056 201.344C295.841 200.695 295.479 200.104 295 199.616C294.547 199.152 294.181 198.61 293.92 198.016C293.723 197.482 293.662 196.907 293.744 196.344C293.86 195.531 294.253 194.782 294.856 194.224C295.02 194.079 295.2 193.953 295.392 193.848L295.6 193.76C295.363 193.926 295.136 194.105 294.92 194.296C294.367 194.857 294.015 195.586 293.92 196.368C293.85 196.909 293.916 197.459 294.112 197.968C294.377 198.53 294.737 199.041 295.176 199.48C295.686 199.989 296.07 200.611 296.296 201.296C296.415 201.673 296.415 202.079 296.296 202.456C296.147 202.829 295.914 203.163 295.616 203.432C295.072 203.976 294.424 204.424 294.264 205.096C294.221 205.422 294.265 205.753 294.391 206.057C294.518 206.36 294.722 206.625 294.984 206.824C295.464 207.256 296.024 207.568 296.48 207.976C296.705 208.169 296.9 208.395 297.056 208.648C297.198 208.881 297.303 209.135 297.368 209.4C297.464 209.798 297.474 210.213 297.398 210.615C297.323 211.018 297.162 211.4 296.928 211.736C296.769 211.985 296.552 212.191 296.296 212.336Z" fill="#263238"/>
<path d="M292.8 212.336C293.007 212.136 293.194 211.916 293.36 211.68C293.569 211.351 293.708 210.982 293.768 210.597C293.829 210.211 293.81 209.818 293.712 209.44C293.581 208.919 293.28 208.457 292.856 208.128C292.416 207.744 291.856 207.44 291.344 206.984C291.074 206.748 290.852 206.463 290.688 206.144C290.504 205.804 290.45 205.409 290.536 205.032C290.643 204.653 290.847 204.308 291.128 204.032C291.4 203.752 291.688 203.512 291.928 203.232C292.194 202.989 292.404 202.692 292.544 202.36C292.654 202.03 292.654 201.674 292.544 201.344C292.329 200.695 291.967 200.104 291.488 199.616C291.035 199.15 290.667 198.608 290.4 198.016C290.203 197.482 290.142 196.907 290.224 196.344C290.339 195.528 290.735 194.779 291.344 194.224C291.505 194.075 291.685 193.949 291.88 193.848C291.944 193.807 292.014 193.778 292.088 193.76C291.851 193.926 291.624 194.105 291.408 194.296C290.855 194.858 290.501 195.586 290.4 196.368C290.329 196.91 290.398 197.46 290.6 197.968C290.865 198.53 291.225 199.041 291.664 199.48C292.172 199.991 292.555 200.613 292.784 201.296C292.903 201.673 292.903 202.079 292.784 202.456C292.632 202.828 292.4 203.161 292.104 203.432C291.56 203.976 290.904 204.424 290.744 205.096C290.702 205.422 290.747 205.753 290.873 206.056C291 206.359 291.203 206.624 291.464 206.824C291.944 207.256 292.512 207.568 292.96 207.976C293.188 208.169 293.385 208.395 293.544 208.648C293.679 208.884 293.784 209.137 293.856 209.4C293.948 209.799 293.956 210.212 293.881 210.614C293.805 211.016 293.647 211.398 293.416 211.736C293.259 211.981 293.049 212.186 292.8 212.336Z" fill="#263238"/>
<path d="M318.485 164.245L316.719 165.724L339.1 192.445L340.867 190.965L318.485 164.245Z" fill="#263238"/>
<path d="M321.094 160.496L319.328 161.975L341.709 188.696L343.476 187.216L321.094 160.496Z" fill="#263238"/>
<path d="M342.078 191.999L340.129 190.769L317.758 226.211L319.707 227.441L342.078 191.999Z" fill="#263238"/>
<path d="M347.123 192.978L345.174 191.749L323.239 226.501L325.187 227.731L347.123 192.978Z" fill="#263238"/>
<path d="M342.192 187.552L338.68 192.304C338.25 192.883 338.048 193.599 338.112 194.317C338.175 195.035 338.5 195.705 339.024 196.2C339.466 196.615 340.024 196.884 340.623 196.971C341.223 197.058 341.834 196.959 342.376 196.688L347.104 194.288C347.517 194.085 347.876 193.788 348.154 193.422C348.432 193.055 348.62 192.628 348.704 192.176L348.752 191.888C348.846 191.362 348.795 190.821 348.604 190.322C348.414 189.823 348.092 189.386 347.672 189.056L345.272 187.144C345.047 186.959 344.786 186.823 344.506 186.743C344.226 186.663 343.932 186.642 343.644 186.68C343.355 186.718 343.077 186.816 342.827 186.965C342.578 187.115 342.361 187.315 342.192 187.552Z" fill="#263238"/>
<path d="M342.192 187.552C342.192 187.552 342.232 187.44 342.376 187.28C342.595 187.037 342.869 186.85 343.176 186.736C343.658 186.556 344.189 186.556 344.672 186.736C344.965 186.842 345.237 187.002 345.472 187.208L346.272 187.832L347.168 188.52C347.51 188.758 347.832 189.026 348.128 189.32C348.45 189.675 348.686 190.099 348.818 190.559C348.949 191.02 348.973 191.505 348.888 191.976C348.835 192.504 348.652 193.012 348.354 193.451C348.057 193.891 347.654 194.25 347.184 194.496L344.32 195.944L342.872 196.68C342.397 196.964 341.868 197.147 341.32 197.216C340.815 197.263 340.306 197.186 339.838 196.993C339.369 196.8 338.954 196.496 338.628 196.108C338.303 195.719 338.076 195.257 337.968 194.762C337.86 194.267 337.874 193.753 338.008 193.264C338.128 192.85 338.329 192.464 338.6 192.128L339.28 191.232L341.36 188.528C341.602 188.191 341.87 187.873 342.16 187.576C341.968 187.945 341.743 188.296 341.488 188.624L339.512 191.408C339.012 191.984 338.614 192.642 338.336 193.352C338.23 193.763 338.22 194.192 338.304 194.608C338.389 195.024 338.566 195.415 338.824 195.752C339.11 196.119 339.485 196.409 339.913 196.593C340.34 196.778 340.808 196.852 341.272 196.808C341.77 196.742 342.25 196.573 342.68 196.312L344.128 195.576L346.984 194.128C347.37 193.909 347.704 193.609 347.963 193.249C348.222 192.888 348.399 192.475 348.483 192.039C348.567 191.603 348.555 191.154 348.448 190.724C348.341 190.293 348.141 189.89 347.864 189.544C347.584 189.254 347.281 188.987 346.96 188.744C346.656 188.496 346.368 188.256 346.08 188.032L345.28 187.384C345.063 187.187 344.814 187.03 344.544 186.92C344.097 186.769 343.614 186.769 343.168 186.92C342.805 187.067 342.474 187.282 342.192 187.552Z" fill="#455A64"/>
<path d="M306.632 230.992C306.632 230.992 309.368 225.184 320.112 225.2H325.056C325.056 225.2 334.712 227.28 335.872 231.008L306.632 230.992Z" fill="#263238"/>
<path d="M313.296 159.008L315.52 167.808C315.543 167.903 315.593 167.989 315.663 168.058C315.733 168.126 315.82 168.174 315.916 168.195C316.011 168.217 316.111 168.212 316.203 168.18C316.296 168.148 316.378 168.091 316.44 168.016L323.072 161.224C323.133 161.153 323.173 161.066 323.19 160.974C323.206 160.881 323.198 160.786 323.165 160.698C323.132 160.61 323.077 160.532 323.004 160.473C322.932 160.414 322.844 160.375 322.752 160.36L313.888 158.4C313.806 158.387 313.722 158.394 313.643 158.42C313.564 158.447 313.493 158.491 313.435 158.551C313.377 158.61 313.334 158.683 313.31 158.763C313.285 158.842 313.281 158.926 313.296 159.008Z" fill="#263238"/>
<path d="M313.296 159.008C313.296 159.008 313.24 158.944 313.248 158.792C313.259 158.676 313.306 158.566 313.382 158.477C313.457 158.388 313.559 158.325 313.672 158.296C313.83 158.264 313.993 158.264 314.152 158.296L314.688 158.4L316 158.664L319.48 159.392L321.576 159.84L322.704 160.08C322.833 160.094 322.956 160.14 323.063 160.212C323.17 160.285 323.258 160.382 323.32 160.496C323.383 160.624 323.408 160.768 323.391 160.91C323.374 161.052 323.316 161.186 323.224 161.296L320.272 164.328L316.584 168.088C316.503 168.184 316.398 168.257 316.28 168.301C316.162 168.344 316.035 168.357 315.911 168.337C315.787 168.316 315.671 168.265 315.573 168.186C315.474 168.107 315.398 168.005 315.352 167.888C315.248 167.496 315.176 167.184 315.088 166.848C314.928 166.184 314.776 165.544 314.624 164.944C314.344 163.76 314.088 162.712 313.872 161.808C313.656 160.904 313.536 160.296 313.408 159.752C313.335 159.508 313.294 159.255 313.288 159C313.392 159.232 313.475 159.473 313.536 159.72C313.688 160.256 313.88 160.928 314.104 161.744C314.328 162.56 314.632 163.688 314.944 164.864L315.448 166.752L315.712 167.752C315.734 167.805 315.769 167.852 315.815 167.888C315.86 167.924 315.914 167.947 315.971 167.956C316.028 167.965 316.087 167.959 316.141 167.939C316.195 167.918 316.243 167.884 316.28 167.84L319.952 164.064L322.912 161.04C322.954 160.988 322.98 160.925 322.987 160.859C322.994 160.792 322.981 160.725 322.951 160.666C322.92 160.607 322.873 160.558 322.815 160.524C322.757 160.491 322.69 160.476 322.624 160.48L321.504 160.224L319.408 159.744L315.944 158.944L314.64 158.624L314.112 158.496C313.98 158.444 313.838 158.422 313.696 158.432C313.604 158.451 313.518 158.495 313.45 158.56C313.382 158.625 313.334 158.709 313.312 158.8C313.288 158.928 313.312 159.008 313.296 159.008Z" fill="#455A64"/>
<path d="M306.736 184.096C311.128 178.216 313.616 172.232 313.2 166.112L304.952 158.168C296.952 155.504 285.952 163.896 285.952 163.896C285.952 163.896 288.68 178.696 306.736 184.096Z" fill="#263238"/>
<path d="M317.668 152.347L317.924 152.588C319.088 153.679 319.771 155.188 319.822 156.783C319.873 158.378 319.289 159.927 318.198 161.091L310.75 169.034L301.716 160.562L309.17 152.614C309.71 152.038 310.358 151.574 311.078 151.249C311.797 150.924 312.574 150.744 313.363 150.719C314.152 150.694 314.939 150.825 315.677 151.105C316.416 151.384 317.092 151.806 317.668 152.347Z" fill="#263238"/>
<path d="M312.64 165.832C312.045 165.852 311.452 165.754 310.896 165.544C309.527 165.119 308.264 164.407 307.192 163.456C306.112 162.507 305.245 161.34 304.648 160.032C304.375 159.507 304.206 158.933 304.152 158.344C304.445 158.85 304.712 159.371 304.952 159.904C305.597 161.129 306.459 162.227 307.496 163.144C308.537 164.056 309.732 164.776 311.024 165.272C312 165.64 312.648 165.76 312.64 165.832Z" fill="#455A64"/>
<path d="M345.048 190.4C345.048 190.547 345.004 190.691 344.922 190.813C344.84 190.936 344.724 191.031 344.588 191.087C344.452 191.144 344.303 191.158 344.158 191.13C344.014 191.101 343.882 191.03 343.777 190.926C343.673 190.822 343.603 190.689 343.574 190.545C343.545 190.401 343.56 190.251 343.616 190.115C343.673 189.979 343.768 189.863 343.89 189.781C344.013 189.7 344.156 189.656 344.304 189.656C344.401 189.656 344.498 189.675 344.588 189.713C344.679 189.75 344.761 189.805 344.83 189.874C344.899 189.943 344.954 190.025 344.991 190.115C345.028 190.206 345.048 190.302 345.048 190.4Z" fill="#455A64"/>
<path d="M317.496 164.64C317.496 164.787 317.452 164.931 317.37 165.053C317.289 165.176 317.172 165.271 317.037 165.327C316.901 165.384 316.751 165.398 316.607 165.37C316.462 165.341 316.33 165.27 316.226 165.166C316.122 165.062 316.051 164.929 316.022 164.785C315.993 164.641 316.008 164.491 316.064 164.355C316.121 164.219 316.216 164.103 316.338 164.021C316.461 163.94 316.605 163.896 316.752 163.896C316.949 163.896 317.138 163.974 317.278 164.114C317.417 164.253 317.496 164.443 317.496 164.64Z" fill="#455A64"/>
<path d="M320.32 161.752C320.32 161.899 320.276 162.043 320.194 162.165C320.112 162.288 319.996 162.383 319.86 162.439C319.724 162.496 319.575 162.51 319.43 162.482C319.286 162.453 319.154 162.382 319.049 162.278C318.945 162.174 318.875 162.041 318.846 161.897C318.817 161.753 318.832 161.603 318.888 161.467C318.944 161.331 319.04 161.215 319.162 161.133C319.285 161.052 319.428 161.008 319.576 161.008C319.673 161.008 319.77 161.027 319.86 161.065C319.951 161.102 320.033 161.157 320.102 161.226C320.171 161.295 320.226 161.377 320.263 161.467C320.3 161.557 320.32 161.654 320.32 161.752Z" fill="#455A64"/>
<path d="M342.032 193.104C342.032 193.251 341.988 193.395 341.907 193.517C341.825 193.64 341.709 193.735 341.573 193.791C341.437 193.848 341.287 193.862 341.143 193.834C340.998 193.805 340.866 193.734 340.762 193.63C340.658 193.526 340.587 193.393 340.558 193.249C340.53 193.105 340.544 192.955 340.601 192.819C340.657 192.683 340.752 192.567 340.875 192.485C340.997 192.404 341.141 192.36 341.288 192.36C341.485 192.36 341.675 192.438 341.814 192.578C341.954 192.717 342.032 192.907 342.032 193.104Z" fill="#455A64"/>
<path d="M312.536 243.968L312.312 373.048H191.928V243.616H184.208V373.048V380.224H191.928H312.312H320.032V373.048L320.256 243.968H312.536Z" fill="#E0E0E0"/>
<path d="M312.536 244H320.256H320.296C320.296 261.208 320.24 310.48 320.192 380.256V380.416H320H184.176H184V380.216C184 342.392 184 301.232 184 258.52V243.4H192.136V243.608C192.136 289.272 192.136 332.864 192.136 373.04L191.944 372.848L312.328 372.888L312.176 373.04C312.408 293.392 312.552 245.168 312.552 243.96C312.552 245.168 312.552 293.392 312.488 373.04V373.192H312.328L191.944 373.232H191.752V373.04C191.752 332.864 191.752 289.272 191.752 243.608L191.96 243.816H184.24L184.448 243.608V258.52C184.448 301.232 184.448 342.392 184.448 380.216L184.248 380.016L320.072 380.056L319.912 380.216C320.088 310.44 320.208 261.168 320.256 243.96L320.296 244H312.536Z" fill="#263238"/>
<path d="M343.504 230.992H169.072V244.912H343.504V230.992Z" fill="#AE7461"/>
<path d="M212.8 230.736L212.352 230.84C212.064 230.896 211.632 230.96 211.08 231.088C209.976 231.312 208.392 231.696 206.464 232.264C204.536 232.832 202.256 233.6 199.744 234.496C197.232 235.392 194.48 236.4 191.528 237.304C188.757 238.162 185.917 238.778 183.04 239.144C180.704 239.442 178.34 239.461 176 239.2C174.41 239.021 172.846 238.664 171.336 238.136C170.925 237.996 170.522 237.836 170.128 237.656C169.856 237.544 169.72 237.472 169.72 237.472C169.72 237.472 169.872 237.512 170.152 237.616C170.432 237.72 170.832 237.896 171.368 238.048C172.881 238.535 174.442 238.862 176.024 239.024C178.366 239.261 180.728 239.229 183.064 238.928C185.924 238.547 188.747 237.926 191.504 237.072C194.448 236.168 197.2 235.168 199.72 234.288C202.24 233.408 204.52 232.648 206.456 232.104C207.988 231.658 209.542 231.289 211.112 231C211.664 230.888 212.104 230.84 212.392 230.792C212.68 230.744 212.8 230.736 212.8 230.736Z" fill="#6F4439"/>
<path d="M301.768 243.592C301.704 243.532 301.646 243.468 301.592 243.4C301.434 243.205 301.265 243.018 301.088 242.84C300.408 242.143 299.629 241.55 298.776 241.08C297.425 240.343 295.954 239.85 294.432 239.624C292.413 239.343 290.362 239.394 288.36 239.776C285.925 240.249 283.521 240.866 281.16 241.624C278.452 242.516 275.653 243.107 272.816 243.384C271.27 243.494 269.717 243.389 268.2 243.072C266.624 242.725 265.09 242.21 263.624 241.536C260.624 240.216 257.728 238.424 254.528 237.128C248.088 234.536 241.28 234.336 235.368 235.096C230.101 235.853 224.942 237.23 220 239.2C215.76 240.8 212.424 242.4 210.112 243.408L207.448 244.616C206.84 244.896 206.512 245.032 206.512 245.032C206.512 245.032 206.824 244.864 207.424 244.576L210.064 243.32C212.368 242.248 215.704 240.688 219.936 239.04C224.881 237.043 230.049 235.649 235.328 234.888C241.264 234.088 248.128 234.304 254.608 236.912C257.808 238.224 260.728 240.016 263.704 241.328C265.155 241.996 266.672 242.509 268.232 242.856C269.727 243.173 271.259 243.278 272.784 243.168C275.606 242.896 278.39 242.319 281.088 241.448C283.449 240.697 285.854 240.088 288.288 239.624C290.31 239.248 292.38 239.207 294.416 239.504C295.949 239.745 297.427 240.254 298.784 241.008C299.636 241.492 300.41 242.101 301.08 242.816C301.328 243.057 301.558 243.316 301.768 243.592Z" fill="#6F4439"/>
<path d="M342.488 235.296C340.644 236.016 338.748 236.594 336.816 237.024C335.92 237.232 334.936 237.448 333.872 237.6C332.808 237.752 331.656 237.912 330.448 238.048C325.191 238.52 319.892 238.13 314.76 236.896C313.584 236.592 312.464 236.32 311.448 235.968C310.432 235.616 309.472 235.296 308.616 234.968C306.766 234.261 304.973 233.411 303.256 232.424C303.386 232.468 303.512 232.525 303.632 232.592L304.696 233.096C305.152 233.328 305.72 233.6 306.392 233.896C307.064 234.192 307.816 234.528 308.68 234.824C309.544 235.12 310.472 235.488 311.504 235.792C312.536 236.096 313.648 236.4 314.816 236.696C319.919 237.89 325.179 238.268 330.4 237.816C331.6 237.688 332.744 237.592 333.808 237.4C334.872 237.208 335.848 237.048 336.744 236.856C337.64 236.664 338.44 236.448 339.144 236.264C339.848 236.08 340.448 235.912 340.928 235.752L342.056 235.4C342.196 235.351 342.341 235.316 342.488 235.296Z" fill="#6F4439"/>
<path d="M242.592 227.488H189.064C188.065 227.488 187.256 228.297 187.256 229.296V229.4C187.256 230.398 188.065 231.208 189.064 231.208H242.592C243.59 231.208 244.4 230.398 244.4 229.4V229.296C244.4 228.297 243.59 227.488 242.592 227.488Z" fill="#455A64"/>
<path d="M257.824 181.6L244.448 229.68C244.308 230.177 243.977 230.599 243.527 230.854C243.078 231.108 242.546 231.175 242.048 231.04C241.55 230.9 241.129 230.569 240.874 230.12C240.619 229.67 240.552 229.139 240.688 228.64L254.072 180.52C254.21 180.022 254.54 179.598 254.99 179.343C255.44 179.088 255.973 179.022 256.472 179.16C256.721 179.23 256.955 179.349 257.159 179.51C257.362 179.671 257.532 179.87 257.658 180.097C257.783 180.324 257.863 180.574 257.891 180.832C257.92 181.09 257.897 181.351 257.824 181.6Z" fill="#455A64"/>
<path d="M246.936 185.32C246.856 185.408 243.112 181.904 238.576 177.512C234.04 173.12 230.432 169.512 230.512 169.4C230.592 169.288 234.328 172.808 238.864 177.208C243.4 181.608 247.016 185.24 246.936 185.32Z" fill="#263238"/>
<path d="M245.112 191.072C244.654 190.939 244.207 190.771 243.776 190.568L240.216 189.072C237.2 187.808 233.016 186.088 228.4 184.272C223.784 182.456 219.528 180.888 216.464 179.768L212.8 178.4C212.349 178.26 211.91 178.083 211.488 177.872C211.954 177.957 212.412 178.082 212.856 178.248C213.728 178.52 214.984 178.928 216.528 179.456C219.624 180.504 223.872 182.032 228.528 183.856C233.184 185.68 237.328 187.448 240.304 188.776C241.8 189.448 243 190 243.824 190.376C244.269 190.578 244.699 190.81 245.112 191.072Z" fill="#263238"/>
<path d="M244.376 196.8C243.285 196.968 242.177 196.992 241.08 196.872C239.976 196.895 238.874 196.78 237.8 196.528C239.995 196.341 242.204 196.432 244.376 196.8Z" fill="#263238"/>
<path d="M341.776 357.472C341.776 357.472 338.456 334.6 338.728 321.296C339 307.992 338.728 293.016 338.728 293.016H340.264C340.264 293.016 339.224 319.416 340.352 335.36C341.48 351.304 344.456 357.472 344.456 357.472H341.792" fill="#263238"/>
<path d="M351.688 267.28C351.448 266.471 350.962 265.758 350.296 265.24C349.32 264.624 348.048 264.88 346.96 265.24C342.328 266.88 338.224 275.512 336.352 280.056L342.496 300.776C353.6 290.504 355.52 276.992 351.688 267.28Z" fill="#455A64"/>
<path d="M349.936 266.08C349.916 266.172 349.883 266.26 349.84 266.344C349.768 266.544 349.664 266.8 349.544 267.104C349.272 267.752 348.896 268.704 348.44 269.88C347.536 272.232 346.384 275.48 345.352 279.224C344.32 282.968 343.616 286.352 343.184 288.824C342.96 290.064 342.8 291.072 342.696 291.768C342.64 292.096 342.6 292.36 342.56 292.568C342.55 292.661 342.528 292.752 342.496 292.84C342.488 292.747 342.488 292.653 342.496 292.56C342.496 292.344 342.544 292.08 342.576 291.76C342.656 291.056 342.792 290.04 342.992 288.792C343.52 285.558 344.228 282.356 345.112 279.2C346.002 276.027 347.07 272.908 348.312 269.856C348.784 268.68 349.184 267.744 349.488 267.104C349.624 266.808 349.736 266.56 349.832 266.368C349.851 266.267 349.886 266.17 349.936 266.08Z" fill="#263238"/>
<path d="M339.768 305.768C336.968 304.176 334.625 301.89 332.964 299.129C331.304 296.369 330.382 293.228 330.288 290.008C330.064 285.416 331.48 280.904 333.08 276.584C333.177 276.196 333.406 275.854 333.728 275.616C333.993 275.516 334.279 275.485 334.559 275.527C334.84 275.569 335.104 275.683 335.328 275.856C339.512 278.256 342.056 282.792 343.4 287.416C344.373 290.484 344.697 293.72 344.352 296.92C343.824 300.283 342.225 303.386 339.792 305.768" fill="#455A64"/>
<path d="M339.768 305.768C339.758 305.675 339.758 305.581 339.768 305.488V304.688C339.768 303.992 339.768 302.992 339.68 301.76C339.518 298.541 339.16 295.335 338.608 292.16C337.976 288.448 337.2 285.128 336.624 282.728L335.944 279.88L335.768 279.08C335.741 278.992 335.725 278.9 335.72 278.808C335.763 278.889 335.795 278.975 335.816 279.064C335.872 279.272 335.944 279.52 336.04 279.864C336.224 280.528 336.488 281.464 336.8 282.688C337.416 285.088 338.224 288.408 338.864 292.128C339.412 295.302 339.746 298.509 339.864 301.728C339.864 302.96 339.864 303.96 339.864 304.656C339.864 304.976 339.864 305.24 339.864 305.456C339.846 305.564 339.813 305.668 339.768 305.768Z" fill="#263238"/>
<g opacity="0.3">
<path d="M339.768 305.768C336.968 304.176 334.625 301.89 332.964 299.129C331.304 296.369 330.382 293.228 330.288 290.008C330.064 285.416 331.48 280.904 333.08 276.584C333.177 276.196 333.406 275.854 333.728 275.616C333.993 275.516 334.279 275.485 334.559 275.527C334.84 275.569 335.104 275.683 335.328 275.856C339.512 278.256 342.056 282.792 343.4 287.416C344.373 290.484 344.697 293.72 344.352 296.92C343.824 300.283 342.225 303.386 339.792 305.768" fill="black"/>
</g>
<path d="M346.272 340.8C351.944 342.048 356.608 346.048 362.088 348C365.704 349.288 369.8 349.744 372.688 352.272C372 350.52 370.352 349.352 368.752 348.36C364.244 345.526 359.429 343.213 354.4 341.464C351.832 340.576 349.032 339.864 346.4 340.568" fill="#455A64"/>
<path d="M338.064 345.816C330.96 345.696 323.48 339.648 316.416 339.288C323.808 336.888 334.408 338.848 338.064 345.816Z" fill="#455A64"/>
<path d="M340.84 328.8C344.501 327.591 348.406 327.316 352.2 328C355.974 328.691 359.683 329.697 363.288 331.008C362.92 328.544 360.928 326.696 359.048 325.056C357.679 323.774 356.19 322.628 354.6 321.632C353.001 320.633 351.15 320.112 349.264 320.128C348.132 320.199 347.026 320.498 346.012 321.008C344.999 321.518 344.099 322.228 343.368 323.096C341.933 324.663 341.046 326.653 340.84 328.768" fill="#455A64"/>
<path d="M326.264 320.928C321.792 317.112 315.016 317.48 309.136 317.616C318.584 322.117 327.494 327.669 335.696 334.168C335.936 330.008 331.912 325.752 326.264 320.928Z" fill="#455A64"/>
<g opacity="0.3">
<path d="M326.264 320.928C321.792 317.112 315.016 317.48 309.136 317.616C318.584 322.117 327.494 327.669 335.696 334.168C335.936 330.008 331.912 325.752 326.264 320.928Z" fill="black"/>
</g>
<path d="M342.856 315.656C345.038 314.144 347.336 312.806 349.728 311.656C352.088 310.592 354.28 308.888 356.552 307.656C359.504 306.056 362.056 303.84 364.76 301.864C367.464 299.888 370.44 298.096 373.752 297.576C371.025 297.087 368.221 297.249 365.568 298.048C362.929 298.842 360.355 299.843 357.872 301.04C354.384 302.64 350.832 304.24 347.984 306.776C345.136 309.312 342.552 311.84 342.856 315.656Z" fill="#455A64"/>
<path d="M361.952 345.816L361.728 345.712L361.112 345.392C360.576 345.112 359.808 344.688 358.84 344.2C358.36 343.952 357.832 343.688 357.24 343.4C356.648 343.112 356.048 342.84 355.392 342.552C353.98 341.919 352.516 341.411 351.016 341.032C349.532 340.619 347.968 340.578 346.464 340.912C345.805 341.055 345.158 341.248 344.528 341.488C343.988 341.707 343.468 341.975 342.976 342.288C342.257 342.734 341.598 343.272 341.016 343.888C340.6 344.328 340.4 344.592 340.384 344.584C340.416 344.509 340.459 344.438 340.512 344.376C340.644 344.18 340.788 343.993 340.944 343.816C341.506 343.163 342.155 342.589 342.872 342.112C343.379 341.784 343.915 341.503 344.472 341.272C345.109 341.02 345.764 340.816 346.432 340.664C347.973 340.305 349.579 340.338 351.104 340.76C352.618 341.142 354.093 341.661 355.512 342.312C356.168 342.608 356.784 342.896 357.352 343.184C357.92 343.472 358.456 343.736 358.952 343.984C359.912 344.496 360.672 344.944 361.192 345.256L361.784 345.616C361.888 345.76 361.96 345.808 361.952 345.816Z" fill="#263238"/>
<path d="M332.8 342.288C332.955 342.311 333.106 342.357 333.248 342.424C333.643 342.566 334.028 342.734 334.4 342.928C335.647 343.554 336.793 344.363 337.8 345.328C338.806 346.29 339.661 347.398 340.336 348.616C340.543 348.983 340.727 349.363 340.888 349.752C340.957 349.891 341.006 350.039 341.032 350.192C340.992 350.192 340.728 349.608 340.184 348.712C338.755 346.363 336.732 344.432 334.32 343.112C333.36 342.576 332.752 342.336 332.8 342.288Z" fill="#263238"/>
<path d="M317.048 320.568C317.153 320.586 317.255 320.616 317.352 320.656L318.208 320.96L319.552 321.456C320.072 321.656 320.64 321.944 321.288 322.256C324.621 323.799 327.731 325.782 330.536 328.152C332.071 329.466 333.511 330.886 334.848 332.4C335.937 333.636 336.96 334.929 337.912 336.272C338.712 337.424 339.336 338.384 339.76 339.04L340.24 339.84C340.306 339.923 340.36 340.014 340.4 340.112C340.325 340.037 340.258 339.954 340.2 339.864C340.08 339.704 339.896 339.456 339.672 339.128C339.224 338.48 338.592 337.528 337.76 336.408C336.928 335.288 335.896 334.008 334.672 332.584C333.331 331.089 331.893 329.683 330.368 328.376C327.58 326.005 324.502 323.997 321.208 322.4C320.576 322.112 320.016 321.816 319.496 321.6L318.168 321.064L317.368 320.712C317.257 320.676 317.149 320.628 317.048 320.568Z" fill="#263238"/>
<path d="M351.504 324.8C351.313 324.799 351.122 324.775 350.936 324.728L350.28 324.608C350.032 324.56 349.736 324.56 349.408 324.528C347.723 324.377 346.03 324.71 344.528 325.488C343.707 325.92 342.957 326.476 342.304 327.136C341.767 327.672 341.289 328.265 340.88 328.904C340.509 329.5 340.182 330.123 339.904 330.768C339.923 330.578 339.972 330.391 340.048 330.216C340.225 329.724 340.453 329.252 340.728 328.808C341.119 328.139 341.595 327.523 342.144 326.976C342.797 326.282 343.563 325.703 344.408 325.264C345.951 324.463 347.698 324.142 349.424 324.344C349.752 324.392 350.056 324.408 350.304 324.472L350.96 324.632C351.146 324.671 351.329 324.727 351.504 324.8Z" fill="#263238"/>
<path d="M358.64 302.624C358.561 302.693 358.472 302.75 358.376 302.792L357.576 303.224C356.88 303.592 355.888 304.144 354.688 304.824C353.488 305.504 352.072 306.424 350.568 307.496C348.928 308.645 347.392 309.936 345.976 311.352C345.245 312.064 344.613 312.872 344.096 313.752C343.632 314.64 343.184 315.504 342.776 316.336C342.043 317.799 341.386 319.3 340.808 320.832C340.423 321.865 340.1 322.92 339.84 323.992C339.77 324.391 339.679 324.786 339.568 325.176C339.561 325.072 339.561 324.968 339.568 324.864C339.568 324.656 339.616 324.36 339.712 323.976C339.937 322.891 340.233 321.822 340.6 320.776C341.158 319.228 341.804 317.714 342.536 316.24C342.944 315.44 343.384 314.536 343.848 313.64C344.371 312.729 345.014 311.892 345.76 311.152C347.186 309.725 348.739 308.432 350.4 307.288C351.92 306.216 353.352 305.344 354.568 304.64C355.784 303.936 356.792 303.424 357.496 303.08L358.296 302.688L358.64 302.624Z" fill="#263238"/>
<path d="M338.72 324.136C338.653 323.942 338.608 323.74 338.584 323.536C338.496 323.104 338.392 322.552 338.272 321.896C337.609 318.283 336.474 314.773 334.896 311.456L334.208 309.936C334.108 309.754 334.03 309.561 333.976 309.36C334.1 309.525 334.207 309.702 334.296 309.888C334.48 310.24 334.744 310.744 335.096 311.376C335.92 313.027 336.623 314.735 337.2 316.488C337.761 318.245 338.189 320.042 338.48 321.864C338.592 322.568 338.672 323.128 338.712 323.528C338.734 323.73 338.737 323.934 338.72 324.136Z" fill="#263238"/>
<path d="M338.208 308C337.984 305.309 337.197 302.695 335.896 300.328C334.146 297.07 331.702 294.235 328.737 292.023C325.772 289.812 322.358 288.277 318.736 287.528L334.624 311.2L336.68 315.432C337.965 313.18 338.5 310.577 338.208 308Z" fill="#455A64"/>
<path d="M364.928 349.248H320.184V357.176H364.928V349.248Z" fill="#F79221"/>
<path d="M323.528 355.6L329.528 380.208H357.04L361.584 355.6H323.528Z" fill="#F79221"/>
<path d="M364.904 357.184C364.904 357.272 354.808 357.344 342.368 357.344C329.928 357.344 319.824 357.272 319.824 357.184C319.824 357.096 329.912 357.024 342.368 357.024C354.824 357.024 364.904 357.096 364.904 357.184Z" fill="#263238"/>
</svg>
