<svg width="42" height="42" viewBox="0 0 42 42" fill="none" xmlns="http://www.w3.org/2000/svg">
<g clip-path="url(#clip0_101_37)">
<path fill-rule="evenodd" clip-rule="evenodd" d="M14.5742 21.7787C14.3019 21.7313 14.0549 21.5884 13.8769 21.3754C13.6989 21.1623 13.6013 20.8927 13.6013 20.6141C13.6013 20.3355 13.6989 20.0659 13.8769 19.8529C14.0549 19.6398 14.3019 19.4969 14.5742 19.4495H27.4121C27.6844 19.4969 27.9314 19.6398 28.1094 19.8529C28.2874 20.0659 28.385 20.3355 28.385 20.6141C28.385 20.8927 28.2874 21.1623 28.1094 21.3754C27.9314 21.5884 27.6844 21.7313 27.4121 21.7787H14.5742ZM35.7451 21.7442V23.2947C35.7452 23.3591 35.7225 23.4215 35.6812 23.4708C35.6399 23.52 35.5826 23.5528 35.5195 23.5634C35.3965 23.5634 35.2734 23.6013 35.1504 23.6289C34.9192 23.6736 34.691 23.7323 34.4668 23.8046C34.046 23.9367 33.6439 24.1232 33.2705 24.3593C33.0946 24.4701 32.9267 24.5933 32.7681 24.728C32.6131 24.8581 32.468 24.9998 32.334 25.1518C32.1964 25.3049 32.0707 25.4685 31.958 25.641C31.4935 26.3568 31.2552 27.1977 31.2744 28.0528C31.2742 28.298 31.2868 28.5429 31.312 28.7867C31.3385 29.0095 31.3784 29.2304 31.4316 29.4482C31.4833 29.647 31.5495 29.8417 31.6299 30.0305C31.7048 30.2071 31.7952 30.3766 31.8999 30.537L31.9204 30.568C32.1364 30.8892 32.3913 31.1821 32.6792 31.4397C32.8305 31.5801 32.9891 31.7124 33.1543 31.8359C33.3249 31.9599 33.5017 32.0749 33.6841 32.1805C34.0566 32.3838 34.4839 32.6318 34.8667 32.8041L35.5195 33.1142L36.4902 33.5449C36.6543 33.6276 36.791 33.6965 36.9517 33.7861L37.1533 33.9204C37.2114 33.9618 37.2627 34.0031 37.3071 34.041C37.3538 34.0823 37.3973 34.1272 37.437 34.1754L37.5327 34.2994C37.5711 34.356 37.6042 34.416 37.6318 34.4786C37.6542 34.5252 37.6725 34.5736 37.6865 34.6233C37.7068 34.6829 37.7228 34.744 37.7344 34.8059C37.7489 34.8809 37.7581 34.9569 37.7617 35.0333C37.7617 35.116 37.7617 35.1987 37.7617 35.2814V35.4468C37.7481 35.5491 37.7276 35.6504 37.7002 35.75C37.6706 35.8422 37.6317 35.9311 37.584 36.0153C37.5291 36.1044 37.4611 36.1845 37.3823 36.253L37.2661 36.3391C37.1681 36.3963 37.0621 36.4381 36.9517 36.4632C36.8279 36.4975 36.7006 36.5172 36.5723 36.5217C36.4458 36.5217 36.3569 36.5217 36.2305 36.4976C36.0139 36.4621 35.8054 36.3874 35.6152 36.2771C35.5713 36.2487 35.529 36.2176 35.4888 36.1841L35.3623 36.0704C35.3214 36.0298 35.2837 35.986 35.2495 35.9395C35.2134 35.8922 35.1803 35.8428 35.1504 35.7913C35.1196 35.7362 35.0854 35.6742 35.0581 35.6156C35.0307 35.5562 35.0067 35.4952 34.9863 35.433C34.9613 35.3643 34.9407 35.2941 34.9248 35.2228C34.9055 35.141 34.8907 35.0582 34.8804 34.9747C34.8804 34.892 34.8599 34.799 34.853 34.7025C34.853 34.5992 34.853 34.4993 34.853 34.3993C34.8528 34.3592 34.8368 34.3208 34.8086 34.2925C34.7943 34.278 34.7772 34.2666 34.7584 34.2589C34.7397 34.2512 34.7195 34.2474 34.6992 34.2477H30.8403C30.8005 34.248 30.7624 34.2641 30.7344 34.2925C30.7201 34.3063 30.7087 34.3229 30.7011 34.3413C30.6934 34.3596 30.6897 34.3794 30.6899 34.3993C30.6899 34.6646 30.6899 34.9093 30.7207 35.1367C30.7515 35.3641 30.7754 35.5915 30.8164 35.8258C30.8566 36.0313 30.9103 36.2338 30.977 36.4322C31.037 36.6193 31.1089 36.8023 31.1924 36.98L31.2129 37.0213C31.2949 37.1902 31.3872 37.3659 31.4863 37.5175C31.5856 37.6723 31.6929 37.8218 31.8076 37.9654C31.9203 38.1047 32.0413 38.237 32.1699 38.3616C32.2923 38.4848 32.4224 38.5999 32.5596 38.7062L32.5903 38.7303C32.7288 38.8331 32.8726 38.9286 33.021 39.0162C33.1714 39.1093 33.3252 39.192 33.4858 39.2712C33.6465 39.3505 33.8037 39.4125 33.9712 39.4779C34.1387 39.5434 34.313 39.5916 34.4736 39.6399C34.6343 39.6881 34.7437 39.7088 34.877 39.7363C35.0103 39.7639 35.1572 39.7949 35.2871 39.8156C35.3499 39.8254 35.4072 39.8576 35.4485 39.9062C35.4899 39.9549 35.5126 40.0168 35.5127 40.0809V41.5624C35.5234 41.7033 35.5655 41.8399 35.6357 41.9621C35.6631 42.0138 35.6357 42.0551 35.6665 42.0551H37.4404C37.4608 42.0556 37.481 42.0519 37.4998 42.0443C37.5187 42.0367 37.5359 42.0253 37.5502 42.0108C37.5646 41.9963 37.5759 41.979 37.5835 41.96C37.591 41.9409 37.5947 41.9206 37.5942 41.9001V40.0878C37.5942 40.0242 37.6164 39.9627 37.6571 39.9141C37.6978 39.8655 37.7542 39.8331 37.8164 39.8225L38.042 39.7846C38.2726 39.7402 38.5007 39.6838 38.7256 39.6158C39.1433 39.486 39.5447 39.3079 39.9219 39.0852C40.0924 38.9834 40.2547 38.8682 40.4072 38.7406C40.5646 38.612 40.712 38.4715 40.8481 38.3203C40.9865 38.1678 41.1122 38.0042 41.2241 37.831C41.3404 37.6602 41.4411 37.4792 41.5249 37.2901C41.6108 37.0981 41.6828 36.9 41.7402 36.6975C41.7971 36.4847 41.8394 36.2683 41.8667 36.0497C41.8956 35.8212 41.9104 35.591 41.9111 35.3606C41.9119 35.1177 41.8982 34.8749 41.8701 34.6336C41.8429 34.4119 41.8018 34.1921 41.7471 33.9756C41.6942 33.7714 41.6244 33.572 41.5386 33.3795C41.4601 33.2016 41.3664 33.0309 41.2583 32.8696C41.1538 32.7088 41.0397 32.5546 40.9165 32.4079C40.7863 32.257 40.647 32.1143 40.4995 31.9806C40.3537 31.8472 40.2008 31.7218 40.0415 31.6051C39.8774 31.4845 39.6997 31.3674 39.522 31.2605H39.498C39.3169 31.1537 39.1255 31.0435 38.9204 30.916C38.7153 30.7885 38.5444 30.7093 38.3188 30.5956C38.0933 30.4819 37.9053 30.3854 37.6968 30.2855C37.355 30.1339 37.0405 29.9857 36.7158 29.8238L36.4526 29.6791L36.2305 29.5482C36.0972 29.4551 36.0117 29.3966 35.8887 29.2932C35.797 29.2093 35.7145 29.1157 35.6426 29.0141C35.6103 28.9714 35.5828 28.9251 35.5605 28.8763C35.5385 28.8292 35.5191 28.7809 35.5024 28.7316C35.485 28.6819 35.4701 28.6313 35.458 28.58C35.4465 28.5208 35.4385 28.461 35.4341 28.4008V28.2148V28.0425C35.4477 27.9322 35.4682 27.8229 35.4956 27.7152L35.5503 27.5567C35.5677 27.51 35.5895 27.465 35.6152 27.4223C35.6401 27.3796 35.6687 27.3393 35.7007 27.3017C35.765 27.2206 35.841 27.1498 35.9263 27.0915C35.9658 27.066 36.0069 27.043 36.0493 27.0226L36.1963 26.9744C36.2556 26.9576 36.3162 26.9461 36.3774 26.94C36.4435 26.9365 36.5096 26.9365 36.5757 26.94C36.6628 26.9394 36.7498 26.9475 36.8354 26.9641C36.9126 26.9786 36.9881 27.0005 37.061 27.0295H37.0781C37.1526 27.061 37.2237 27.1003 37.29 27.1467C37.3592 27.1925 37.4234 27.2457 37.4814 27.3052L37.502 27.3258C37.5697 27.3979 37.6272 27.4791 37.6729 27.567C37.716 27.6568 37.7515 27.7502 37.7788 27.8461V27.8806C37.815 28.0231 37.8402 28.1682 37.854 28.3147C37.854 28.4663 37.8779 28.6386 37.8813 28.8246C37.8811 28.8609 37.8931 28.8961 37.9155 28.9245C37.9436 28.953 37.9817 28.9691 38.0215 28.9693H41.8564C41.8963 28.9691 41.9344 28.953 41.9624 28.9245C41.9768 28.9101 41.9882 28.8929 41.9958 28.874C42.0034 28.855 42.0072 28.8347 42.0068 28.8143C42.0079 28.5529 41.993 28.2917 41.9624 28.0322C41.9353 27.7874 41.8931 27.5446 41.8359 27.3052C41.7819 27.08 41.7122 26.859 41.6274 26.6436C41.5463 26.4393 41.4504 26.2412 41.3403 26.051L41.3164 26.0062C41.2041 25.8149 41.0785 25.6318 40.9404 25.4584C40.8061 25.2863 40.6587 25.125 40.4995 24.976C40.3443 24.7909 40.1739 24.6191 39.9902 24.4627C39.807 24.3346 39.6151 24.2195 39.416 24.1181C39.008 23.911 38.5764 23.7548 38.1309 23.653H38.0557C37.9935 23.6424 37.9371 23.6099 37.8964 23.5614C37.8557 23.5128 37.8334 23.4513 37.8335 23.3877V21.7683C37.8333 21.7322 37.8212 21.6971 37.7993 21.6684C37.785 21.6539 37.768 21.6424 37.7492 21.6347C37.7304 21.6271 37.7102 21.6233 37.6899 21.6236H35.8887C35.8478 21.6237 35.8086 21.6397 35.7793 21.6684C35.751 21.6967 35.7351 21.7351 35.7349 21.7752L35.7451 21.7442ZM26.4277 38.8922C26.735 38.8922 27.0298 39.0153 27.2471 39.2343C27.4644 39.4534 27.5864 39.7504 27.5864 40.0602C27.5864 40.37 27.4644 40.6671 27.2471 40.8861C27.0298 41.1052 26.735 41.2282 26.4277 41.2282H2.69678C1.98155 41.2282 1.29561 40.9418 0.789868 40.432C0.284124 39.9222 0 39.2307 0 38.5098L0 2.71846C0 1.99748 0.284124 1.30603 0.789868 0.796218C1.29561 0.286408 1.98155 0 2.69678 0L35.8135 0C36.5287 0 37.2146 0.286408 37.7204 0.796218C38.2261 1.30603 38.5103 1.99748 38.5103 2.71846V15.6148C38.5103 15.9245 38.3882 16.2216 38.1709 16.4407C37.9536 16.6597 37.6589 16.7828 37.3516 16.7828C37.0443 16.7828 36.7495 16.6597 36.5322 16.4407C36.3149 16.2216 36.1929 15.9245 36.1929 15.6148V2.71846C36.192 2.61737 36.1514 2.52075 36.0801 2.44971C36.0092 2.37841 35.9136 2.33764 35.8135 2.33601H2.69678C2.59635 2.3379 2.50017 2.37717 2.42676 2.44627C2.35876 2.52062 2.31988 2.61736 2.31738 2.71846V38.5063C2.31738 38.6077 2.35735 38.705 2.4285 38.7767C2.49966 38.8485 2.59616 38.8888 2.69678 38.8888H26.4277V38.8922ZM14.5742 30.3475C14.3019 30.2938 14.0566 30.1465 13.8802 29.9306C13.7039 29.7147 13.6074 29.4437 13.6074 29.164C13.6074 28.8843 13.7039 28.6133 13.8802 28.3974C14.0566 28.1815 14.3019 28.0341 14.5742 27.9805H24.6675C24.9429 28.0303 25.1921 28.1762 25.3716 28.3926C25.5511 28.6089 25.6494 28.882 25.6494 29.164C25.6494 29.446 25.5511 29.7191 25.3716 29.9354C25.1921 30.1518 24.9429 30.2976 24.6675 30.3475H14.5742ZM14.5742 13.2305C14.292 13.2034 14.0318 13.0652 13.8501 12.8459C13.6683 12.6265 13.5797 12.3438 13.6035 12.0591C13.5807 11.7752 13.6698 11.4938 13.8516 11.2758C14.0333 11.0578 14.2929 10.9208 14.5742 10.8945H27.4121C27.6906 10.925 27.9463 11.0637 28.125 11.2811C28.3036 11.4985 28.3912 11.7776 28.3691 12.0591C28.394 12.3419 28.3076 12.6232 28.1286 12.8423C27.9495 13.0615 27.6922 13.2009 27.4121 13.2305H14.5742ZM9.00635 27.5636C9.27675 27.5636 9.54108 27.6444 9.76592 27.7958C9.99075 27.9473 10.166 28.1625 10.2695 28.4144C10.3729 28.6662 10.4 28.9433 10.3473 29.2106C10.2945 29.478 10.1643 29.7235 9.9731 29.9163C9.78189 30.109 9.53828 30.2403 9.27307 30.2935C9.00786 30.3466 8.73297 30.3193 8.48315 30.215C8.23333 30.1107 8.0198 29.9341 7.86957 29.7074C7.71934 29.4808 7.63916 29.2143 7.63916 28.9418C7.63916 28.5762 7.7832 28.2257 8.0396 27.9672C8.296 27.7088 8.64375 27.5636 9.00635 27.5636ZM9.00635 19.1257C9.27675 19.1257 9.54108 19.2065 9.76592 19.3579C9.99075 19.5094 10.166 19.7246 10.2695 19.9764C10.3729 20.2283 10.4 20.5054 10.3473 20.7727C10.2945 21.0401 10.1643 21.2856 9.9731 21.4784C9.78189 21.6711 9.53828 21.8024 9.27307 21.8556C9.00786 21.9087 8.73297 21.8814 8.48315 21.7771C8.23333 21.6728 8.0198 21.4962 7.86957 21.2695C7.71934 21.0429 7.63916 20.7764 7.63916 20.5039C7.63916 20.1383 7.7832 19.7878 8.0396 19.5293C8.296 19.2709 8.64375 19.1257 9.00635 19.1257ZM9.00635 10.6912C9.27675 10.6912 9.54108 10.7721 9.76592 10.9235C9.99075 11.0749 10.166 11.2902 10.2695 11.542C10.3729 11.7938 10.4 12.0709 10.3473 12.3383C10.2945 12.6056 10.1643 12.8512 9.9731 13.0439C9.78189 13.2367 9.53828 13.3679 9.27307 13.4211C9.00786 13.4743 8.73297 13.447 8.48315 13.3427C8.23333 13.2384 8.0198 13.0617 7.86957 12.8351C7.71934 12.6084 7.63916 12.342 7.63916 12.0694C7.63916 11.7039 7.7832 11.3533 8.0396 11.0949C8.296 10.8364 8.64375 10.6912 9.00635 10.6912Z" fill="#F79222"/>
</g>
<defs>
<clipPath id="clip0_101_37">
<rect width="42" height="42" fill="white"/>
</clipPath>
</defs>
</svg>
