<svg width="163" height="194" viewBox="0 0 163 194" fill="none" xmlns="http://www.w3.org/2000/svg">
<g clip-path="url(#clip0_67_10)">
<path fill-rule="evenodd" clip-rule="evenodd" d="M114.078 56.5518L140.064 56.6465C140.033 63.5615 137.251 70.1924 132.319 75.0392C131.149 76.1917 129.885 77.2179 128.525 78.1336L114.078 56.5518ZM1.86521 192.626C0.774534 192.121 0 191.032 0 189.737V3.15755C0 1.4209 1.40681 0 3.16137 0H33.8266H159.839C161.577 0 163 1.40511 163 3.15755V173.239C163 173.413 162.984 173.571 162.968 173.729C162.526 179.933 160.503 184.764 156.867 188.222C153.231 191.663 148.126 193.59 141.503 193.968C141.36 193.984 141.234 194 141.092 194H4.47333C3.39847 194 2.43425 193.447 1.86521 192.626ZM56.1142 55.0993H64.0335C64.4602 55.0993 64.7922 55.4466 64.7922 55.8571V71.408C64.7922 71.8343 64.4444 72.1659 64.0335 72.1659H56.1142C55.6874 72.1659 55.3555 71.8185 55.3555 71.408V55.8571C55.3555 55.4466 55.6874 55.0993 56.1142 55.0993ZM26.6345 45.5793H34.5537C34.9805 45.5793 35.3125 45.9266 35.3125 46.3371V71.4238C35.3125 71.8501 34.9647 72.1816 34.5537 72.1816H26.6345C26.2077 72.1816 25.8758 71.8343 25.8758 71.4238V46.3371C25.86 45.9266 26.2077 45.5793 26.6345 45.5793ZM41.3823 40.2272H49.3015C49.7283 40.2272 50.0602 40.5745 50.0602 40.985V71.4238C50.0602 71.8501 49.7125 72.1816 49.3015 72.1816H41.3823C40.9555 72.1816 40.6235 71.8343 40.6235 71.4238V40.985C40.6077 40.5588 40.9555 40.2272 41.3823 40.2272ZM156.693 173.16V6.29932H33.8266H6.30692V187.701H141.076H141.139C146.213 187.417 150.007 186.059 152.52 183.675C155.002 181.322 156.377 177.802 156.693 173.16ZM26.5871 168.361C24.8641 168.361 23.4573 166.956 23.4573 165.203C23.4573 163.466 24.8483 162.061 26.5871 162.061H138.025C139.748 162.061 141.155 163.466 141.155 165.203C141.155 166.94 139.764 168.361 138.025 168.361H26.5871ZM27.0929 145.374C25.37 145.374 23.9631 143.969 23.9631 142.216C23.9631 140.48 25.3541 139.059 27.0929 139.059H137.741C139.464 139.059 140.87 140.464 140.87 142.216C140.87 143.953 139.479 145.374 137.741 145.374H27.0929ZM26.5871 122.387C24.8641 122.387 23.4573 120.982 23.4573 119.229C23.4573 117.493 24.8483 116.087 26.5871 116.087H74.2131C75.936 116.087 77.3428 117.493 77.3428 119.229C77.3428 120.966 75.9518 122.387 74.2131 122.387H26.5871ZM86.3685 122.387C84.6456 122.387 83.2387 120.982 83.2387 119.229C83.2387 117.493 84.6297 116.087 86.3685 116.087H137.741C139.464 116.087 140.87 117.493 140.87 119.229C140.87 120.966 139.479 122.387 137.741 122.387H86.3685ZM26.5871 101.878C24.8641 101.878 23.4573 100.473 23.4573 98.7209C23.4573 96.9842 24.8483 95.5633 26.5871 95.5633H65.8512C67.5742 95.5633 68.981 96.9684 68.981 98.7209C68.981 100.458 67.59 101.878 65.8512 101.878H26.5871ZM26.5871 21.9608C24.8641 21.9608 23.4573 20.5557 23.4573 18.8032C23.4573 17.0508 24.8483 15.6457 26.5871 15.6457H50.0444C51.7674 15.6457 53.1742 17.0508 53.1742 18.8032C53.1742 20.5557 51.7832 21.9608 50.0444 21.9608H26.5871ZM111.422 51.405L110.031 23.6659C110 23.1133 110.426 22.6554 110.98 22.6239C111.138 22.6081 111.327 22.6081 111.533 22.6081C111.707 22.6081 111.897 22.5923 112.086 22.5923C119.721 22.5133 126.708 25.4025 131.94 30.202C137.172 35.0173 140.633 41.7428 141.171 49.3525C141.202 49.9051 140.791 50.3787 140.254 50.4103L112.466 52.3996C111.912 52.4312 111.438 52.0207 111.407 51.4839C111.422 51.4523 111.422 51.4207 111.422 51.405ZM112.07 24.5815L113.367 50.3472L139.132 48.5158C138.405 41.8376 135.259 35.9487 130.628 31.686C125.759 27.2023 119.231 24.5184 112.134 24.5973L112.07 24.5815ZM108.308 55.3519L122.234 79.444C117.998 81.8911 113.193 83.1699 108.308 83.1699C92.9283 83.1699 80.4567 70.7134 80.4567 55.3519C80.4567 41.5534 90.5889 29.8231 104.262 27.8338L108.308 55.3519Z" fill="#F79221"/>
</g>
<defs>
<clipPath id="clip0_67_10">
<rect width="163" height="194" fill="white"/>
</clipPath>
</defs>
</svg>
