<svg width="156" height="156" viewBox="0 0 156 156" fill="none" xmlns="http://www.w3.org/2000/svg">
<path d="M47.1911 0C41.9544 0 37.6553 4.30125 37.6553 9.53742V75.3112H24.2072C22.7214 75.3117 21.5175 76.5167 21.5181 78.0019C21.5186 78.7146 21.8016 79.3983 22.3051 79.9024L64.551 122.148V153.31C64.5516 154.796 65.756 156 67.2412 156C67.8227 156 68.3886 155.811 68.8544 155.462L90.3715 139.324C91.0487 138.816 91.4473 138.019 91.4473 137.173V122.148L133.693 79.9024C134.743 78.8518 134.743 77.1482 133.692 76.0982C133.188 75.5941 132.504 75.3112 131.792 75.3112H118.344V26.6537C118.344 25.9748 118.087 25.3212 117.625 24.8236L95.3752 0.860681C94.8664 0.312535 94.1525 0.000537925 93.4043 0H47.1911ZM47.1911 5.37925H89.0035V26.6526C89.0035 28.1378 90.2079 29.3422 91.6931 29.3422H112.965V75.3117H43.0351V9.53742C43.0351 7.1883 44.8425 5.37925 47.1911 5.37925ZM94.3828 7.6961L109.487 23.963H94.3828V7.6961ZM47.1911 9.41477C46.4482 9.41477 45.8463 10.0167 45.8463 10.7596V36.4331C45.8355 37.176 46.4294 37.7866 47.1723 37.7968C47.9151 37.8076 48.5257 37.2137 48.5359 36.4708C48.5359 36.4579 48.5359 36.4455 48.5359 36.4326V12.1044H59.1723C59.9152 12.1152 60.5257 11.5213 60.536 10.7784C60.5467 10.0355 59.9528 9.42499 59.21 9.41477C59.1971 9.41477 59.1847 9.41477 59.1718 9.41477H47.1911ZM60.884 49.2707C60.1411 49.26 59.5306 49.8539 59.5204 50.5967C59.5096 51.3396 60.1035 51.9501 60.8463 51.9604C60.8592 51.9604 60.8716 51.9604 60.8845 51.9604H95.1165C95.8594 51.9711 96.4699 51.3773 96.4801 50.6344C96.4909 49.8915 95.897 49.281 95.1542 49.2707C95.1412 49.2707 95.1289 49.2707 95.116 49.2707H60.884ZM60.884 62.082C60.1411 62.0712 59.5306 62.6651 59.5204 63.408C59.5096 64.1508 60.1035 64.7614 60.8463 64.7716C60.8592 64.7716 60.8716 64.7716 60.8845 64.7716H95.1165C95.8594 64.7824 96.4699 64.1885 96.4801 63.4456C96.4909 62.7027 95.897 62.0922 95.1542 62.082C95.1412 62.082 95.1289 62.082 95.116 62.082H60.884ZM30.7015 80.691H125.298L86.8566 119.133C86.3521 119.637 86.0686 120.322 86.0686 121.035V135.828L69.9308 147.932V121.035C69.9308 120.322 69.6473 119.637 69.1428 119.133L30.7015 80.691Z" fill="#F79221"/>
</svg>
