<svg width="30" height="26" viewBox="0 0 30 26" fill="none" xmlns="http://www.w3.org/2000/svg">
<g clip-path="url(#clip0_124_58)">
<path fill-rule="evenodd" clip-rule="evenodd" d="M20.2934 12.8522C22.0875 12.8522 23.7147 13.5897 24.8906 14.7787C26.066 15.9676 26.7955 17.6121 26.7955 19.4261C26.7955 21.24 26.066 22.8851 24.8906 24.0741C23.7147 25.263 22.0875 26 20.2934 26C18.4992 26 16.8721 25.263 15.6967 24.0741C14.5207 22.8851 13.7912 21.24 13.7912 19.4261C13.7912 17.6121 14.5207 15.9676 15.6967 14.7787C16.8721 13.5897 18.4992 12.8522 20.2934 12.8522ZM11.0578 23.4722H13.016C13.302 23.9959 13.6424 24.4852 14.0285 24.9342H9.61174V14.2147L0.709007 3.66399C0.348656 3.18711 0.133616 2.72089 0.0457259 2.29436C-0.0474382 1.8305 0.00412429 1.40575 0.182249 1.04439C0.367991 0.671171 0.676195 0.380893 1.08694 0.201987C1.42678 0.057441 1.83811 -0.016017 2.30276 0.00293988L28.0406 0.00116267C28.459 0.0064943 28.8082 0.0817296 29.0895 0.21502C29.499 0.408736 29.7697 0.716194 29.9051 1.0977C30.0276 1.44248 30.0293 1.8311 29.9244 2.22919C29.8131 2.65158 29.5711 3.1101 29.2201 3.55084L22.6916 11.3824C22.1725 11.2242 21.6317 11.117 21.0756 11.0637L28.0987 2.63914C28.3184 2.35893 28.469 2.08642 28.5299 1.85183C28.561 1.73394 28.568 1.64153 28.5498 1.58762C28.544 1.57162 28.5199 1.55208 28.4801 1.53312C28.3828 1.4875 28.2358 1.46025 28.0406 1.45966H2.26877C2.01213 1.44663 1.8053 1.47625 1.65705 1.54082C1.56272 1.58406 1.49885 1.63738 1.47014 1.69484C1.43557 1.76356 1.42971 1.86783 1.45549 1.99816C1.50061 2.21438 1.62776 2.47563 1.84866 2.77065L10.8821 13.4748L11.0578 13.9487V23.4722ZM5.82659 2.78368L9.87893 7.58511L8.78498 8.53355L4.73264 3.73212L5.82659 2.78368ZM10.7959 8.67158L12.2285 10.3694L11.134 11.3178L9.70139 9.62002L10.7959 8.67158ZM22.2182 16.1341C22.1338 16.0766 22.0389 16.0512 21.9416 16.0707C21.8449 16.0897 21.7623 16.1406 21.7049 16.2253L21.3768 16.6921C21.1559 16.592 20.8735 16.5269 20.6338 16.4919L20.5307 15.8811C20.5108 15.7786 20.4592 15.7004 20.383 15.6412C20.2998 15.5832 20.2102 15.563 20.1076 15.5832L19.35 15.7194C19.2545 15.7395 19.1772 15.7852 19.1133 15.8687C19.0553 15.9528 19.0307 16.0446 19.0483 16.1477L19.1449 16.7052C18.9123 16.8041 18.6815 16.9481 18.484 17.108L17.9707 16.7502C17.8881 16.6921 17.7985 16.6667 17.7018 16.6868C17.6063 16.7052 17.5225 16.7573 17.4645 16.842L17.0285 17.4711C16.9711 17.5547 16.9453 17.6518 16.9647 17.7496C16.9834 17.8532 17.035 17.9309 17.1182 17.9895L17.5799 18.3207C17.4826 18.5428 17.4158 18.8319 17.3813 19.0724L16.7789 19.1767C16.6764 19.1962 16.599 19.2478 16.5405 19.3254C16.4836 19.4101 16.4649 19.5007 16.4836 19.6038L16.6172 20.3692C16.6371 20.4669 16.6822 20.5451 16.766 20.6097C16.8481 20.6683 16.9389 20.6938 17.042 20.6743L17.5934 20.5771C17.6947 20.8218 17.8342 21.041 17.9906 21.2519L17.6379 21.7637C17.5799 21.8478 17.5547 21.9396 17.574 22.0368C17.5934 22.1334 17.6449 22.2181 17.7276 22.2761L18.3563 22.7234C18.4401 22.7826 18.5356 22.8016 18.6317 22.7826C18.7283 22.7631 18.811 22.7169 18.876 22.6328L19.203 22.1594C19.4274 22.2601 19.7039 22.3229 19.9471 22.3608L20.0502 22.9704C20.069 23.0747 20.1199 23.1529 20.1967 23.2103C20.2811 23.2684 20.3707 23.288 20.4727 23.2684L21.2303 23.1327C21.3264 23.1132 21.4026 23.0676 21.4676 22.9829C21.525 22.8987 21.5502 22.8087 21.5315 22.7044L21.4354 22.147C21.6791 22.0427 21.8912 21.9035 22.1028 21.7447L22.6096 22.1014C22.6922 22.1594 22.7819 22.1855 22.885 22.1659C22.9869 22.147 23.0643 22.0949 23.1223 22.0107L23.5647 21.3745C23.6221 21.2904 23.6414 21.1932 23.6221 21.0967C23.6033 20.9983 23.5582 20.9142 23.4756 20.8496L23.0069 20.525C23.1041 20.3034 23.1709 20.0143 23.2055 19.7738L23.8078 19.6696C23.911 19.65 23.9883 19.5979 24.0469 19.5197C24.1037 19.4361 24.1231 19.3455 24.1037 19.2412L23.9696 18.4765C23.9496 18.3781 23.9045 18.3011 23.8213 18.2365C23.7387 18.1773 23.6479 18.1512 23.5447 18.1708L22.9934 18.2685C22.8879 18.0262 22.7608 17.8082 22.5961 17.6009L22.9489 17.0819C23.0069 16.9972 23.0326 16.9066 23.0127 16.8094C22.9934 16.7117 22.9418 16.6282 22.8592 16.5689L22.2369 16.1282L22.2182 16.1341ZM20.2946 17.791C21.1875 17.791 21.9117 18.5227 21.9117 19.4261C21.9117 20.3295 21.1875 21.0611 20.2946 21.0611C19.401 21.0611 18.6768 20.3295 18.6768 19.4261C18.6768 18.5227 19.401 17.791 20.2946 17.791Z" fill="white"/>
</g>
<defs>
<clipPath id="clip0_124_58">
<rect width="30" height="26" fill="white"/>
</clipPath>
</defs>
</svg>
