<svg width="40" height="40" viewBox="0 0 40 40" fill="none" xmlns="http://www.w3.org/2000/svg">
<g clip-path="url(#clip0_100_20)">
<path d="M27.4127 12.4025C27.5087 12.4022 27.6046 12.4019 27.7035 12.4016C27.81 12.402 27.9165 12.4024 28.023 12.4029C28.135 12.4028 28.2471 12.4026 28.3591 12.4024C28.6635 12.4021 28.9679 12.4027 29.2724 12.4034C29.5907 12.4041 29.909 12.404 30.2273 12.404C30.7619 12.404 31.2966 12.4047 31.8312 12.4058C32.4496 12.407 33.068 12.4074 33.6864 12.4074C34.2808 12.4073 34.8753 12.4077 35.4698 12.4084C35.7229 12.4086 35.9761 12.4088 36.2293 12.4088C36.5274 12.4089 36.8254 12.4094 37.1235 12.4102C37.233 12.4104 37.3425 12.4105 37.452 12.4104C37.6012 12.4104 37.7505 12.4109 37.8997 12.4114C37.9833 12.4115 38.0669 12.4117 38.153 12.4118C38.3593 12.4219 38.3593 12.4219 38.5937 12.5C39.301 13.8392 39.6147 15.4697 39.8437 16.9531C39.8646 17.0854 39.8646 17.0854 39.886 17.2204C40.0149 18.1226 40.0278 19.0164 40.0244 19.9267C40.0241 20.0435 40.0241 20.0435 40.0239 20.1626C40.0204 21.2963 39.9847 22.4002 39.7656 23.5156C39.753 23.5856 39.7404 23.6555 39.7275 23.7276C38.8826 28.3973 36.226 32.9016 32.4218 35.7812C32.3797 35.8137 32.3376 35.8461 32.2943 35.8795C29.5796 37.9665 26.4293 39.3121 23.0468 39.8437C22.99 39.8529 22.9332 39.862 22.8747 39.8715C22.1797 39.9797 21.4892 40.0164 20.7861 40.0244C20.7106 40.0258 20.635 40.0272 20.5572 40.0286C20.487 40.0285 20.4168 40.0284 20.3445 40.0284C20.2504 40.0287 20.2504 40.0287 20.1544 40.0291C20.0779 40.0147 20.0779 40.0147 19.9999 40C19.8437 39.7656 19.8437 39.7656 19.8578 39.5838C19.9323 39.3408 20.0369 39.1443 20.1644 38.9242C20.2149 38.8365 20.2654 38.7487 20.3175 38.6583C20.3728 38.5635 20.428 38.4688 20.4833 38.374C20.5404 38.2753 20.5974 38.1766 20.6544 38.0778C20.8261 37.7806 20.9989 37.484 21.1718 37.1875C21.22 37.1048 21.2682 37.022 21.3179 36.9368C21.4957 36.6318 21.6737 36.3268 21.8521 36.0221C22.2023 35.4232 22.5471 34.8214 22.8906 34.2187C23.3234 33.4593 23.7604 32.7024 24.2018 31.9479C24.5332 31.3811 24.8624 30.813 25.1904 30.2441C25.239 30.1598 25.2876 30.0755 25.3376 29.9887C25.4855 29.7321 25.6334 29.4754 25.7812 29.2187C26.3632 28.2083 26.946 27.1983 27.5341 26.1914C27.6244 26.0366 27.7146 25.8817 27.8048 25.7269C27.9482 25.481 28.0922 25.2356 28.2376 24.9908C29.5276 22.8055 30.0023 20.2192 29.3749 17.7344C29.362 17.6829 29.349 17.6314 29.3356 17.5784C28.9737 16.2032 28.3491 14.9192 27.4032 13.8513C27.3602 13.8026 27.3172 13.754 27.2728 13.7038C27.1886 13.6098 27.1031 13.5169 27.0163 13.4252C26.8236 13.2131 26.7234 13.0762 26.6775 12.7902C26.6911 12.7202 26.7047 12.6502 26.7187 12.5781C26.99 12.3972 27.0927 12.4024 27.4127 12.4025Z" fill="#F79222"/>
<path d="M2.84239 9.97681C3.04688 10 3.04688 10 3.16851 10.121C3.20259 10.1779 3.23668 10.2347 3.27179 10.2933C3.31128 10.3579 3.35077 10.4224 3.39146 10.4889C3.43243 10.5596 3.47341 10.6303 3.51563 10.7031C3.57905 10.8099 3.57905 10.8099 3.64376 10.9189C3.78363 11.1568 3.92085 11.3961 4.05762 11.6358C4.13507 11.7707 4.21252 11.9057 4.29 12.0407C4.36985 12.1799 4.44961 12.3191 4.52934 12.4584C4.7781 12.8927 5.02821 13.3262 5.27832 13.7598C5.32686 13.844 5.3754 13.9282 5.42542 14.0149C5.74886 14.5755 6.07458 15.1347 6.40137 15.6934C6.82494 16.4176 7.24235 17.1452 7.65775 17.8741C8.02014 18.5098 8.38546 19.1437 8.75488 19.7754C9.47132 21.0005 10.1847 22.2274 10.8804 23.4645C11.7153 24.9576 11.7153 24.9576 12.7344 26.3281C12.8036 26.4144 12.8036 26.4144 12.8741 26.5024C14.2809 28.1935 16.5979 29.3048 18.7637 29.5874C19.8498 29.6673 20.9142 29.6602 21.98 29.4263C22.2984 29.3691 22.5679 29.3557 22.8906 29.375C23.0469 29.5313 23.0469 29.5313 23.0475 29.7617C22.97 30.195 22.7161 30.5527 22.4902 30.9229C22.3898 31.0912 22.2894 31.2595 22.189 31.4279C22.137 31.5146 22.085 31.6013 22.0314 31.6907C21.781 32.1108 21.5376 32.5349 21.2939 32.959C21.1956 33.1297 21.0972 33.3004 20.9988 33.4711C20.95 33.5559 20.9012 33.6406 20.8509 33.728C20.5579 34.2365 20.2645 34.7449 19.9711 35.2532C19.6749 35.7665 19.3791 36.28 19.0837 36.7937C18.9378 37.0468 18.7913 37.2995 18.6447 37.5522C18.4522 37.8844 18.2633 38.2183 18.0765 38.5538C17.9869 38.712 17.8973 38.8702 17.8076 39.0283C17.7676 39.1018 17.7276 39.1753 17.6864 39.251C17.629 39.3512 17.629 39.3512 17.5705 39.4534C17.5379 39.5121 17.5052 39.5708 17.4716 39.6312C17.2861 39.8263 17.1396 39.8278 16.875 39.8438C16.6507 39.8195 16.6507 39.8195 16.4166 39.7708C16.329 39.7527 16.2415 39.7345 16.1512 39.7158C16.0581 39.6952 15.9651 39.6746 15.8691 39.6533C15.7723 39.6321 15.6755 39.6109 15.5758 39.5891C13.0487 39.0148 10.5353 37.94 8.4375 36.4063C8.38376 36.3671 8.33002 36.3279 8.27465 36.2876C7.53324 35.7428 6.83209 35.1728 6.17188 34.5313C6.09512 34.4575 6.09512 34.4575 6.01681 34.3823C5.27513 33.6676 4.59198 32.9412 3.98438 32.1094C3.91734 32.0195 3.8503 31.9295 3.78327 31.8396C3.31154 31.1997 2.8929 30.5345 2.5 29.8438C2.47153 29.7944 2.44305 29.7451 2.41371 29.6942C0.944094 27.1266 -0.000307653 24.0114 -0.0158671 21.0422C-0.0164187 20.972 -0.0169702 20.9017 -0.0175384 20.8293C-0.0355407 17.8614 -0.0355407 17.8614 0.234377 16.4844C0.257659 16.3642 0.257659 16.3642 0.281412 16.2416C1.50109 10.1441 1.50109 10.1441 2.84239 9.97681Z" fill="#F79222"/>
<path d="M33.3602 5.01299C34.2215 5.80648 35.0846 6.63352 35.7813 7.57811C35.8204 7.63066 35.8596 7.68322 35.8999 7.73737C37.3215 9.65199 37.3215 9.65199 37.2657 10.1562C37.0583 10.3636 36.9052 10.3316 36.6231 10.3336C36.5198 10.3331 36.5198 10.3331 36.4145 10.3327C36.3416 10.3329 36.2687 10.3332 36.1936 10.3335C35.9478 10.3343 35.7019 10.334 35.4561 10.3337C35.2805 10.334 35.1048 10.3344 34.9291 10.3349C34.5499 10.3358 34.1706 10.3362 33.7913 10.3363C33.1907 10.3365 32.5901 10.3379 31.9895 10.3395C31.1464 10.3417 30.3033 10.3435 29.4601 10.3448C29.4066 10.3449 29.3531 10.3449 29.2979 10.345C28.7021 10.3459 28.1063 10.3467 27.5105 10.3474C27.2952 10.3476 27.0799 10.3479 26.8646 10.3481C26.785 10.3482 26.785 10.3482 26.7037 10.3483C25.8146 10.3493 24.9255 10.3513 24.0364 10.3539C23.4404 10.3556 22.8444 10.3562 22.2483 10.356C21.8756 10.3562 21.5029 10.3573 21.1301 10.3586C20.9585 10.3591 20.7868 10.3591 20.6152 10.3587C17.7799 10.3529 15.1839 11.1757 13.1272 13.1912C12.0211 14.3199 11.1389 15.7862 10.7374 17.3193C10.6654 17.5763 10.638 17.6443 10.4346 17.832C10.2344 17.8906 10.2344 17.8906 10.081 17.8404C9.87501 17.7031 9.79724 17.562 9.67627 17.3462C9.63045 17.2655 9.58463 17.1848 9.53741 17.1017C9.48867 17.014 9.43993 16.9263 9.38971 16.8359C9.33782 16.744 9.28583 16.6522 9.23376 16.5603C9.12562 16.3695 9.01787 16.1784 8.91039 15.9872C8.66528 15.5519 8.41442 15.1199 8.16412 14.6875C8.06644 14.5182 7.96878 14.349 7.87115 14.1797C7.82282 14.0959 7.77448 14.0121 7.72467 13.9258C7.57819 13.6719 7.4317 13.418 7.28522 13.164C7.23686 13.0802 7.1885 12.9964 7.13868 12.91C7.04121 12.7411 6.94374 12.5721 6.84628 12.4032C6.54924 11.8883 6.25204 11.3734 5.95467 10.8587C5.8563 10.6882 5.75807 10.5177 5.65998 10.347C5.42657 9.94106 5.19163 9.5362 4.95245 9.13359C4.90851 9.05884 4.86457 8.9841 4.8193 8.90709C4.73723 8.76753 4.65438 8.62843 4.57062 8.48988C4.21394 7.87954 4.21394 7.87954 4.29694 7.49998C4.41461 7.31964 4.52419 7.1783 4.66803 7.02146C4.70883 6.97561 4.74963 6.92976 4.79166 6.88251C5.74363 5.82947 6.73826 4.81702 7.89069 3.98436C7.98035 3.91769 8.06997 3.85095 8.15955 3.78416C8.7996 3.31185 9.46516 2.89309 10.1563 2.49998C10.2057 2.4715 10.255 2.44303 10.3059 2.41369C16.8439 -1.32844 25.4665 -0.744501 33.3602 5.01299Z" fill="#F79222"/>
<path d="M24.6031 14.0106C24.7929 14.1795 24.976 14.3523 25.1563 14.5313C25.224 14.5957 25.2917 14.6602 25.3614 14.7266C25.4533 14.8233 25.4533 14.8233 25.547 14.9219C25.6149 14.9891 25.6149 14.9891 25.6843 15.0577C27.0035 16.4313 27.5417 18.3593 27.5277 20.224C27.4796 22.2071 26.6464 24.081 25.2345 25.4688C24.2172 26.414 23.0538 26.9937 21.7188 27.3438C21.6498 27.363 21.5807 27.3822 21.5095 27.4021C19.6185 27.8401 17.5684 27.3534 15.9342 26.3727C14.2256 25.2943 13.1623 23.6485 12.6563 21.7188C12.6371 21.6497 12.6179 21.5806 12.598 21.5094C12.156 19.601 12.6598 17.5651 13.6402 15.9152C13.8907 15.5146 14.1964 15.1755 14.5313 14.8438C14.5958 14.7761 14.6602 14.7084 14.7267 14.6387C14.7911 14.5775 14.8556 14.5162 14.922 14.4532C14.9892 14.3852 14.9892 14.3852 15.0578 14.3158C17.5596 11.9129 21.9294 11.8703 24.6031 14.0106Z" fill="#F79222"/>
</g>
<defs>
<clipPath id="clip0_100_20">
<rect width="40" height="40" fill="white"/>
</clipPath>
</defs>
</svg>
