<svg width="162" height="162" viewBox="0 0 162 162" fill="none" xmlns="http://www.w3.org/2000/svg">
<g clip-path="url(#clip0_66_9)">
<path d="M122.291 162H45.7365C34.7256 162 25.7555 153.03 25.7555 142.019V9.58711C25.7555 4.30312 30.0586 0 35.3426 0H137.21C142.494 0 146.797 4.30312 146.797 9.58711V137.479C146.797 151.005 135.802 162 122.291 162ZM35.3426 6.39141C33.5865 6.39141 32.1469 7.83105 32.1469 9.58711V142.019C32.1469 149.502 38.2377 155.609 45.7365 155.609H122.291C132.274 155.609 140.405 147.477 140.405 137.494V9.58711C140.405 7.83105 138.966 6.39141 137.21 6.39141H35.3426Z" fill="#F79221"/>
<path d="M125.835 162H26.2617C14.697 162 5.28394 152.587 5.28394 141.022C5.28394 129.458 14.697 120.045 26.2617 120.045H125.835V126.436C117.798 126.436 111.248 132.97 111.248 141.022C111.248 149.059 117.798 155.609 125.835 155.609V162ZM26.2617 126.436C18.225 126.436 11.6753 132.97 11.6753 141.022C11.6753 149.059 18.225 155.609 26.2617 155.609H110.758C107.103 151.828 104.841 146.686 104.841 141.022C104.841 135.359 107.103 130.217 110.758 126.436H26.2617Z" fill="#F79221"/>
<path d="M125.835 162V155.609C133.871 155.609 140.421 149.059 140.421 141.022H146.812C146.797 152.587 137.399 162 125.835 162Z" fill="#F79221"/>
<path d="M125.835 162C114.27 162 104.857 152.587 104.857 141.022C104.857 129.458 114.27 120.045 125.835 120.045V126.436C117.798 126.436 111.248 132.97 111.248 141.022C111.248 149.059 117.798 155.609 125.835 155.609C133.872 155.609 140.421 149.059 140.421 141.022H146.813C146.797 152.587 137.399 162 125.835 162Z" fill="#F79221"/>
<path d="M63.0281 25.8504H46.4643C44.6924 25.8504 43.2686 24.4266 43.2686 22.6547C43.2686 20.8828 44.7082 19.459 46.4643 19.459H63.0281C64.8 19.459 66.2238 20.8828 66.2238 22.6547C66.2238 24.4266 64.8 25.8504 63.0281 25.8504Z" fill="#F79221"/>
<path d="M123.224 74.4662H103.765C98.4815 74.4662 94.1783 70.1631 94.1783 64.8791V45.4201C94.1783 40.1361 98.4815 35.833 103.765 35.833H123.224C128.508 35.833 132.812 40.1361 132.812 45.4201V64.8791C132.812 70.1631 128.508 74.4662 123.224 74.4662ZM103.765 42.2244C102.009 42.2244 100.57 43.6641 100.57 45.4201V64.8791C100.57 66.6352 102.009 68.0748 103.765 68.0748H123.224C124.98 68.0748 126.42 66.6352 126.42 64.8791V45.4201C126.42 43.6641 124.98 42.2244 123.224 42.2244H103.765Z" fill="#F79221"/>
<path d="M113.495 67.2205H113.289C112.34 67.1572 111.47 66.6826 110.916 65.9074L95.6496 44.9139C94.6055 43.49 94.9219 41.4809 96.3457 40.4525C97.7695 39.4084 99.7629 39.7248 100.807 41.1486L113.827 59.0414L151.211 19.7754C152.429 18.494 154.454 18.4465 155.735 19.6647C157.017 20.8828 157.064 22.9078 155.846 24.1893L115.805 66.2238C115.204 66.8567 114.365 67.2205 113.495 67.2205ZM80.2248 47.1604H46.4643C44.6924 47.1604 43.2686 45.7365 43.2686 43.9647C43.2686 42.1928 44.7082 40.769 46.4643 40.769H80.209C81.9809 40.769 83.4047 42.1928 83.4047 43.9647C83.4205 45.7365 81.9809 47.1604 80.2248 47.1604ZM80.2248 68.4703H46.4643C44.6924 68.4703 43.2686 67.0465 43.2686 65.2746C43.2686 63.5027 44.7082 62.0789 46.4643 62.0789H80.209C81.9809 62.0789 83.4047 63.5027 83.4047 65.2746C83.4205 67.0465 81.9809 68.4703 80.2248 68.4703ZM80.2248 89.7961H46.4643C44.6924 89.7961 43.2686 88.3723 43.2686 86.6004C43.2686 84.8285 44.7082 83.4047 46.4643 83.4047H80.209C81.9809 83.4047 83.4047 84.8285 83.4047 86.6004C83.4047 88.3723 81.9809 89.7961 80.2248 89.7961ZM80.2248 111.106H46.4643C44.6924 111.106 43.2686 109.682 43.2686 107.91C43.2686 106.138 44.7082 104.715 46.4643 104.715H80.209C81.9809 104.715 83.4047 106.138 83.4047 107.91C83.4205 109.682 81.9809 111.106 80.2248 111.106Z" fill="#F79221"/>
</g>
<defs>
<clipPath id="clip0_66_9">
<rect width="162" height="162" fill="white"/>
</clipPath>
</defs>
</svg>
