<svg width="30" height="30" viewBox="0 0 30 30" fill="none" xmlns="http://www.w3.org/2000/svg">
<path d="M8.50458 7.08238e-05C8.54964 0.000125437 8.59471 0.00018005 8.64114 0.000236318C10.4918 0.00760843 12.2855 0.59751 13.7366 1.76875C13.7868 1.8086 13.7868 1.8086 13.838 1.84925C14.409 2.30547 14.9171 2.80412 15.3572 3.38939C15.3572 3.43053 15.3572 3.47167 15.3572 3.51406C15.4058 3.5135 15.4544 3.51295 15.5045 3.51238C15.9648 3.50736 16.4251 3.50358 16.8854 3.50114C17.1219 3.49984 17.3585 3.49809 17.5951 3.49525C17.8238 3.49252 18.0526 3.49104 18.2814 3.4904C18.3682 3.48994 18.455 3.48905 18.5418 3.48769C19.3535 3.47553 19.8266 3.5908 20.4216 4.15691C20.5209 4.25373 20.6194 4.35134 20.7178 4.44904C20.7876 4.51698 20.8574 4.58486 20.9273 4.65267C21.1561 4.87558 21.383 5.10053 21.6095 5.32583C21.6503 5.36637 21.6911 5.40692 21.7331 5.44869C21.9483 5.66262 22.1633 5.87675 22.3782 6.09103C22.5986 6.31069 22.8196 6.52961 23.0409 6.74838C23.2126 6.9185 23.3838 7.08918 23.5549 7.26001C23.6361 7.34095 23.7176 7.42169 23.7993 7.5022C24.8506 8.53944 24.8506 8.53944 24.9564 9.12397C24.9538 9.27835 24.9473 9.4298 24.9369 9.58366C24.9311 9.68041 24.9254 9.77715 24.9196 9.8739C24.9164 9.92561 24.9132 9.97732 24.9099 10.0306C24.8105 11.6567 24.7541 13.2844 24.7188 14.9131C24.7172 14.983 24.7157 15.0529 24.7141 15.1249C24.4742 19.4944 24.4742 19.4944 26.2683 23.2974C27.0405 24.1002 27.9706 24.7582 28.94 25.3003C29.3452 25.528 29.58 25.7698 29.756 26.203C29.7765 26.2525 29.7971 26.3019 29.8182 26.3529C30.0698 27.0003 30.0556 27.6862 29.8042 28.3316C29.4898 28.999 29.1084 29.4253 28.447 29.756C28.3851 29.7879 28.3851 29.7879 28.3219 29.8205C27.7573 30.0585 26.9595 30.0349 26.3862 29.8417C25.7792 29.5752 25.3466 29.1743 24.8941 28.6963C24.8736 28.7363 24.8531 28.7762 24.832 28.8173C24.5369 29.3539 24.1876 29.6905 23.6065 29.903C23.3397 29.976 23.0738 29.9688 22.7989 29.9671C22.7012 29.9676 22.7012 29.9676 22.6015 29.9681C22.3839 29.969 22.1664 29.9686 21.9489 29.9681C21.7926 29.9685 21.6364 29.9689 21.4801 29.9694C21.1001 29.9704 20.7202 29.9706 20.3402 29.9702C20.0313 29.97 19.7223 29.9701 19.4133 29.9704C19.3693 29.9705 19.3252 29.9705 19.2799 29.9706C19.1904 29.9707 19.1009 29.9707 19.0114 29.9708C18.173 29.9717 17.3346 29.9714 16.4962 29.9706C15.73 29.97 14.9638 29.9708 14.1976 29.9723C13.41 29.9738 12.6224 29.9744 11.8347 29.974C11.3929 29.9738 10.9511 29.9739 10.5092 29.975C10.0937 29.9761 9.67815 29.9758 9.26261 29.9746C9.11029 29.9744 8.95797 29.9746 8.80565 29.9752C8.59733 29.976 8.38908 29.9753 8.18076 29.9742C8.12083 29.9748 8.0609 29.9754 7.99915 29.976C7.44295 29.97 6.95067 29.8101 6.53917 29.4258C6.14855 28.9913 5.9877 28.535 5.9924 27.9524C5.9923 27.9037 5.99219 27.855 5.99208 27.8049C5.99187 27.6424 5.99256 27.4799 5.99324 27.3174C5.99328 27.2006 5.99326 27.0839 5.99319 26.9672C5.99315 26.6506 5.99388 26.3341 5.99475 26.0176C5.99553 25.6867 5.99561 25.3557 5.99575 25.0248C5.99614 24.3983 5.99716 23.7718 5.99841 23.1453C5.99981 22.432 6.00049 21.7187 6.00112 21.0054C6.00242 19.5382 6.00462 18.071 6.00739 16.6038C5.96887 16.5956 5.93034 16.5873 5.89065 16.5787C5.84012 16.5677 5.78959 16.5567 5.73752 16.5454C5.68743 16.5345 5.63733 16.5236 5.58572 16.5125C5.31083 16.4468 5.0647 16.3213 4.81139 16.1987C4.75406 16.171 4.69672 16.1434 4.63765 16.1149C4.13911 15.868 3.69631 15.5823 3.26477 15.2325C3.22775 15.2028 3.19073 15.173 3.15258 15.1424C1.44647 13.7589 0.273435 11.7631 0.0234892 9.56029C0.00377057 9.21727 -0.000826266 8.87533 0.000114577 8.53181C0.000148475 8.48516 0.000182373 8.4385 0.000217297 8.39044C0.00273747 7.63454 0.0570502 6.9229 0.272819 6.19435C0.285514 6.14991 0.298209 6.10548 0.311289 6.0597C0.944356 3.90649 2.42905 2.09927 4.38675 1.02076C4.93427 0.727169 5.49083 0.492934 6.08531 0.311732C6.15811 0.28942 6.15811 0.28942 6.23239 0.266657C6.9804 0.0511139 7.72971 -0.00223662 8.50458 7.08238e-05ZM3.20244 3.26473C3.14242 3.31896 3.14242 3.31896 3.08118 3.3743C2.43117 3.97593 2.00273 4.77284 1.64413 5.57102C1.614 5.63755 1.58387 5.70408 1.55282 5.77263C0.927116 7.27128 0.855039 9.06985 1.33247 10.6199C1.35201 10.6841 1.35201 10.6841 1.37194 10.7496C1.97964 12.6738 3.3673 14.2488 5.14177 15.1847C6.97909 16.1031 9.06023 16.1865 10.994 15.5442C12.0825 15.1587 12.9829 14.5445 13.7989 13.7366C13.8402 13.699 13.8815 13.6615 13.9241 13.6229C14.848 12.7698 15.3918 11.5565 15.7312 10.3706C15.7525 10.3002 15.7738 10.2298 15.7958 10.1573C16.0967 8.96464 16.0301 7.554 15.6689 6.38134C15.6559 6.33855 15.6429 6.29575 15.6294 6.25166C15.0217 4.32752 13.6341 2.75244 11.8596 1.8166C8.93061 0.352478 5.50585 1.01732 3.20244 3.26473ZM16.0429 4.51137C16.1333 4.78714 16.2353 5.0537 16.3468 5.32169C16.7675 6.35919 16.9405 7.36673 16.935 8.48506C16.935 8.5287 16.935 8.57234 16.9349 8.6173C16.9335 9.28323 16.8781 9.90743 16.7286 10.5576C16.708 10.7016 16.6874 10.8456 16.6662 10.9939C17.0982 10.9939 17.5301 10.9939 17.9752 10.9939C17.9752 11.3231 17.9752 11.6522 17.9752 11.9913C17.3993 11.9913 16.8233 11.9913 16.2299 11.9913C16.0872 12.2458 16.0872 12.2458 15.9416 12.5055C15.896 12.5851 15.896 12.5851 15.8494 12.6663C15.8263 12.7087 15.8032 12.7511 15.7794 12.7948C15.7553 12.8378 15.7311 12.8809 15.7062 12.9253C15.6559 13.0502 15.6559 13.0502 15.7094 13.1693C15.7372 13.2125 15.765 13.2557 15.7936 13.3002C15.8263 13.3573 15.8591 13.4143 15.8929 13.4731C16.1108 13.7586 16.2971 13.9492 16.6592 14.0222C17.1945 14.0731 17.7309 14.0482 18.2674 14.0287C18.4324 14.0253 18.5975 14.0222 18.7625 14.0194C19.1651 14.0118 19.5674 14 19.9698 13.9859C19.9698 14.315 19.9698 14.6441 19.9698 14.9832C19.5584 14.9832 19.147 14.9832 18.7232 14.9832C18.8775 15.1375 18.8775 15.1375 19.0349 15.2949C19.1087 15.3689 19.1826 15.4429 19.2565 15.5169C19.2977 15.5583 19.339 15.5996 19.3815 15.6422C19.4257 15.6865 19.47 15.7309 19.5156 15.7766C19.9966 16.2586 20.4777 16.7404 20.959 17.2222C21.25 17.5136 21.5411 17.8051 21.832 18.0967C22.1135 18.3789 22.3951 18.6609 22.6769 18.9428C22.7844 19.0505 22.8919 19.1582 22.9993 19.2659C23.1488 19.4159 23.2986 19.5657 23.4483 19.7154C23.4931 19.7604 23.5378 19.8054 23.5839 19.8517C23.6448 19.9124 23.6448 19.9124 23.7068 19.9743C23.7422 20.0098 23.7776 20.0452 23.814 20.0817C23.8858 20.1638 23.8858 20.1638 23.9591 20.1568C23.9635 18.793 23.9668 17.4292 23.9688 16.0654C23.9698 15.4321 23.9711 14.7989 23.9732 14.1656C23.9751 13.6136 23.9763 13.0615 23.9767 12.5094C23.9769 12.2172 23.9775 11.925 23.9789 11.6328C23.9802 11.3575 23.9805 11.0822 23.9803 10.8069C23.9803 10.7061 23.9807 10.6054 23.9814 10.5046C23.9938 9.54626 23.9938 9.54626 23.5122 8.75449C23.478 8.72154 23.4438 8.68858 23.4086 8.65463C23.3721 8.61807 23.3357 8.58151 23.2982 8.54384C23.179 8.42456 23.0585 8.30665 22.9379 8.18874C22.8544 8.10577 22.771 8.02272 22.6876 7.93959C22.469 7.72202 22.2492 7.50562 22.0292 7.28942C21.8491 7.11201 21.6698 6.93378 21.4905 6.75551C21.2772 6.54343 21.0635 6.3317 20.8498 6.12008C20.7883 6.05924 20.7884 6.05924 20.7257 5.99717C20.6105 5.88329 20.4951 5.76966 20.3796 5.65611C20.3451 5.62202 20.3107 5.58793 20.2752 5.5528C20.144 5.39336 20.144 5.39336 19.9698 5.32169C19.9652 5.69656 19.9618 6.07141 19.9596 6.44629C19.9586 6.57374 19.9574 6.70119 19.9557 6.82863C19.9535 7.01214 19.9524 7.19562 19.9516 7.37915C19.9501 7.46419 19.9501 7.46419 19.9487 7.55096C19.9486 7.86949 19.9645 8.10787 20.1568 8.37598C20.3783 8.50558 20.573 8.51552 20.8262 8.51282C20.8927 8.51241 20.9592 8.51201 21.0277 8.5116C21.0964 8.51055 21.1651 8.50951 21.236 8.50843C21.3059 8.50787 21.3759 8.50731 21.4479 8.50673C21.6201 8.50526 21.7923 8.50303 21.9645 8.50064C21.9645 8.82976 21.9645 9.15887 21.9645 9.49796C21.6983 9.49476 21.4324 9.49082 21.1663 9.48502C21.076 9.48328 20.9857 9.48195 20.8954 9.48107C20.3255 9.47518 19.8613 9.46917 19.4074 9.07746C19.3796 9.04267 19.3518 9.00788 19.3231 8.97203C19.2944 8.9374 19.2656 8.90277 19.236 8.86709C19.0614 8.59968 19.0188 8.36474 19.015 8.04817C19.0137 7.97082 19.0125 7.89347 19.0112 7.81378C19.0105 7.73002 19.0098 7.64626 19.009 7.56249C19.0079 7.47629 19.0067 7.39009 19.0054 7.30389C19.0022 7.07774 18.9997 6.85159 18.9974 6.62543C18.9949 6.39436 18.9917 6.1633 18.9886 5.93223C18.9826 5.4794 18.9773 5.02656 18.9725 4.57371C18.8259 4.5004 18.7396 4.50384 18.5762 4.5043C18.5201 4.5043 18.4639 4.50431 18.4061 4.50431C18.3454 4.50463 18.2846 4.50495 18.2221 4.50529C18.16 4.50537 18.0979 4.50546 18.034 4.50555C17.8352 4.5059 17.6364 4.50669 17.4376 4.50748C17.303 4.50779 17.1685 4.50807 17.0339 4.50833C16.7036 4.50902 16.3732 4.51006 16.0429 4.51137ZM14.9209 14.0482C14.828 14.1438 14.739 14.2432 14.6521 14.3443C14.4645 14.5622 14.2777 14.7471 14.0483 14.9209C14.1512 15.1884 14.3436 15.3497 14.5469 15.5442C14.8165 15.4408 14.9891 15.2406 15.1858 15.0377C15.2204 15.0026 15.2549 14.9675 15.2905 14.9313C15.3754 14.845 15.4599 14.7583 15.5442 14.6715C15.4623 14.4903 15.3738 14.3595 15.2326 14.2196C15.2004 14.1872 15.1683 14.1547 15.1352 14.1213C15.0487 14.0351 15.0487 14.0351 14.9209 14.0482ZM17.7882 14.9832C17.8499 15.0758 17.8499 15.0758 17.9129 15.1702C18.0157 15.1291 18.1186 15.0879 18.2245 15.0455C18.2245 15.025 18.2245 15.0044 18.2245 14.9832C18.0805 14.9832 17.9366 14.9832 17.7882 14.9832ZM16.2997 15.3979C16.2534 15.4449 16.207 15.4919 16.1593 15.5403C16.1091 15.5909 16.0588 15.6415 16.0071 15.6937C15.9546 15.7472 15.9022 15.8007 15.8481 15.8559C15.7952 15.9094 15.7422 15.9629 15.6877 16.018C15.5565 16.1507 15.4256 16.2836 15.2949 16.4168C15.395 16.6294 15.5072 16.767 15.6767 16.9311C15.7444 16.9971 15.7444 16.9971 15.8135 17.0645C15.8481 17.0976 15.8826 17.1307 15.9182 17.1648C16.1214 17.0759 16.255 16.9674 16.4101 16.8098C16.4543 16.7652 16.4985 16.7206 16.544 16.6747C16.5895 16.6282 16.6349 16.5817 16.6818 16.5337C16.7282 16.4867 16.7747 16.4397 16.8225 16.3913C16.9369 16.2754 17.051 16.1593 17.1649 16.0429C17.0658 15.8335 16.956 15.6925 16.7909 15.5286C16.7472 15.4846 16.7035 15.4405 16.6584 15.3952C16.498 15.2575 16.4586 15.2582 16.2997 15.3979ZM12.8257 15.7899C12.0938 16.1995 11.3664 16.5052 10.5577 16.7285C10.494 16.7465 10.494 16.7465 10.429 16.7648C9.36611 17.0486 8.08793 16.9937 7.00471 16.8532C7.00034 18.2901 6.99704 19.727 6.99502 21.164C6.99406 21.8312 6.99275 22.4984 6.9906 23.1656C6.98874 23.7473 6.98753 24.3289 6.98712 24.9106C6.98687 25.2185 6.9863 25.5264 6.98494 25.8342C6.98367 26.1243 6.98328 26.4143 6.98356 26.7043C6.98351 26.8105 6.98314 26.9168 6.98242 27.023C6.94776 27.8611 6.94776 27.8611 7.27118 28.6069C7.65628 28.9653 8.12495 28.964 8.61865 28.9619C8.71025 28.9623 8.71025 28.9623 8.8037 28.9626C9.00778 28.9633 9.21184 28.963 9.41592 28.9628C9.56246 28.963 9.709 28.9634 9.85554 28.9637C10.2532 28.9646 10.6509 28.9646 11.0486 28.9644C11.4227 28.9644 11.7969 28.9648 12.171 28.9651C12.9574 28.9658 13.7437 28.9656 14.53 28.9653C15.2487 28.9649 15.9674 28.9656 16.686 28.9668C17.4247 28.968 18.1634 28.9685 18.9021 28.9683C19.3165 28.9682 19.7309 28.9684 20.1453 28.9692C20.5351 28.97 20.9248 28.9699 21.3146 28.9691C21.4575 28.9689 21.6004 28.9691 21.7433 28.9696C21.9386 28.9703 22.134 28.9698 22.3293 28.969C22.3856 28.9694 22.4419 28.9699 22.4999 28.9704C22.8873 28.9671 23.3086 28.9301 23.6221 28.6792C23.8209 28.4611 23.907 28.2349 23.9591 27.9483C23.9107 27.3336 23.2034 26.7102 22.7685 26.3175C21.9937 25.6711 20.9577 25.8171 20.012 25.8945C19.8314 25.9122 19.6514 25.9323 19.4712 25.9537C19.4712 25.6246 19.4712 25.2955 19.4712 24.9564C20.0266 24.9564 20.5819 24.9564 21.1542 24.9564C21.0307 24.8124 20.9073 24.6684 20.7802 24.5201C20.702 24.4247 20.702 24.4247 20.6223 24.3275C19.8424 23.3352 19.8424 23.3352 18.7312 22.86C18.3054 22.848 17.8961 22.8914 17.4765 22.9617C17.4765 22.6326 17.4765 22.3035 17.4765 21.9644C17.7028 21.9644 17.9291 21.9644 18.1622 21.9644C18.1141 21.9091 18.0661 21.8537 18.0166 21.7967C17.889 21.6493 17.7667 21.5003 17.6474 21.346C16.9446 20.4093 16.9446 20.4093 15.9375 19.8979C15.2874 19.8174 14.6323 19.8886 13.9859 19.9698C13.9859 19.6407 13.9859 19.3116 13.9859 18.9725C14.3768 18.9725 14.7676 18.9725 15.1702 18.9725C15.1085 18.8491 15.1085 18.8491 15.0456 18.7231C15.0251 18.4 15.0461 18.2119 15.1702 17.9128C15.1391 17.883 15.108 17.8532 15.0759 17.8225C14.934 17.6857 14.7931 17.548 14.6521 17.4103C14.6031 17.3634 14.5542 17.3165 14.5037 17.2682C14.0996 16.8709 14.0996 16.8709 14.0069 16.6253C13.9012 16.3607 13.749 16.2096 13.5457 16.0156C13.495 15.965 13.495 15.965 13.4433 15.9134C13.1942 15.6698 13.1246 15.6182 12.8257 15.7899ZM18.3161 16.3726C18.2787 16.4103 18.2413 16.4479 18.2028 16.4867C18.1604 16.5292 18.118 16.5716 18.0743 16.6153C18.0286 16.6617 17.9829 16.708 17.9358 16.7558C17.8889 16.8028 17.842 16.8499 17.7937 16.8983C17.6436 17.0492 17.4938 17.2005 17.3441 17.3518C17.2426 17.454 17.141 17.5561 17.0395 17.6581C16.7901 17.9089 16.541 18.1601 16.2922 18.4115C16.3938 18.6687 16.5799 18.8408 16.7726 19.0316C16.8094 19.0684 16.8462 19.1053 16.884 19.1433C17.0074 19.2668 17.1312 19.39 17.255 19.5131C17.3435 19.6015 17.4319 19.69 17.5203 19.7785C17.7606 20.0188 18.0013 20.2587 18.242 20.4986C18.4935 20.7493 18.7446 21.0003 18.9957 21.2513C19.4714 21.7266 19.9474 22.2016 20.4236 22.6765C20.9656 23.2171 21.5072 23.758 22.0489 24.299C23.1631 25.412 24.2778 26.5245 25.3927 27.6367C25.578 27.5478 25.7084 27.461 25.8535 27.3147C25.8934 27.2748 25.9333 27.2349 25.9744 27.1938C26.0168 27.1508 26.0591 27.1078 26.1028 27.0635C26.1467 27.0194 26.1906 26.9753 26.2358 26.9299C26.3759 26.7892 26.5154 26.648 26.655 26.5069C26.7499 26.4113 26.8449 26.3158 26.9399 26.2203C27.1725 25.9863 27.4047 25.752 27.6367 25.5174C27.5351 25.2605 27.3495 25.0881 27.1571 24.8973C27.1205 24.8604 27.0838 24.8236 27.046 24.7856C26.9229 24.662 26.7994 24.5389 26.6759 24.4158C26.5876 24.3273 26.4994 24.2389 26.4112 24.1504C26.1714 23.91 25.9313 23.6701 25.691 23.4303C25.44 23.1796 25.1893 22.9285 24.9385 22.6776C24.5174 22.2563 24.0961 21.8352 23.6746 21.4143C23.1867 20.9271 22.6992 20.4394 22.2119 19.9514C21.7941 19.533 21.376 19.1148 20.9577 18.6968C20.7076 18.447 20.4576 18.197 20.2079 17.9469C19.9732 17.7118 19.7383 17.4771 19.5031 17.2427C19.4166 17.1563 19.3302 17.0699 19.2439 16.9833C19.1266 16.8657 19.0089 16.7484 18.8911 16.6313C18.8566 16.5965 18.8222 16.5618 18.7866 16.5259C18.5748 16.2806 18.5748 16.2806 18.3161 16.3726ZM28.3847 26.2654C27.6853 26.9647 26.986 27.6641 26.2654 28.3847C26.3925 28.6389 26.4721 28.7188 26.7261 28.8356C27.1369 28.9561 27.636 28.9644 28.0341 28.7937C28.4132 28.5649 28.7548 28.1874 28.8834 27.7613C28.9359 27.2499 28.9313 26.8194 28.634 26.39C28.5518 26.3489 28.4695 26.3077 28.3847 26.2654Z" fill="white"/>
<path d="M12.3427 3.19192C13.7248 4.24908 14.6321 5.6678 14.9572 7.38304C15.0676 8.42034 15.0583 9.49767 14.734 10.4953C14.7144 10.5557 14.7144 10.5557 14.6945 10.6174C14.366 11.5943 13.8324 12.3856 13.1133 13.1132C13.0732 13.1578 13.0331 13.2024 12.9918 13.2484C12.0679 14.2524 10.5425 14.9134 9.18852 14.9942C8.26678 15.0124 7.38934 15.021 6.5061 14.7339C6.44562 14.7143 6.44562 14.7143 6.38393 14.6944C5.40702 14.3659 4.6158 13.8323 3.88814 13.1132C3.82125 13.0531 3.82125 13.0531 3.75301 12.9917C2.77294 12.0899 2.08377 10.5688 2.00714 9.24503C1.96736 7.14223 2.37132 5.47244 3.85288 3.89926C6.07792 1.60348 9.75174 1.39168 12.3427 3.19192ZM4.76079 4.51136C4.72142 4.54567 4.68205 4.57998 4.64148 4.61533C3.7059 5.48043 3.11472 6.81808 3.0542 8.07867C3.01582 9.47592 3.30744 10.754 4.1998 11.8666C4.30322 11.9709 4.40707 12.0749 4.51146 12.1782C4.51169 12.1148 4.51192 12.0514 4.51215 11.986C4.51446 11.3863 4.51807 10.7866 4.52293 10.1869C4.52538 9.87861 4.52739 9.57035 4.52835 9.26208C4.5293 8.9642 4.53146 8.66635 4.53442 8.36848C4.53534 8.25522 4.53584 8.14195 4.53589 8.02869C4.53653 7.34679 4.54033 6.74601 4.96337 6.17486C5.47785 5.67207 5.99403 5.55261 6.69647 5.55114C6.7996 5.5502 6.7996 5.5502 6.90482 5.54924C7.13146 5.54732 7.35809 5.54626 7.58474 5.54521C7.74212 5.54404 7.89951 5.54282 8.05689 5.54155C8.42841 5.53867 8.79993 5.53634 9.17145 5.53427C9.59459 5.53189 10.0177 5.52881 10.4409 5.52567C11.3109 5.51924 12.1809 5.51367 13.051 5.50868C12.9918 5.41867 12.9324 5.32876 12.873 5.2389C12.8235 5.16378 12.8235 5.16378 12.7729 5.08715C11.9966 3.95841 10.6188 3.32326 9.31105 3.07772C7.65635 2.80854 5.98391 3.4 4.76079 4.51136ZM5.76201 6.86441C5.52005 7.24568 5.48966 7.61874 5.48671 8.05716C5.4859 8.11083 5.48508 8.1645 5.48423 8.2198C5.48179 8.39603 5.48032 8.57226 5.47907 8.7485C5.47857 8.80892 5.47806 8.86933 5.47754 8.93158C5.47494 9.25082 5.47316 9.57005 5.47198 9.88929C5.4706 10.2189 5.4663 10.5484 5.46137 10.878C5.45811 11.1317 5.45706 11.3855 5.45661 11.6393C5.45601 11.7608 5.45456 11.8824 5.45225 12.0039C5.44921 12.1737 5.44932 12.3433 5.45019 12.5132C5.44859 12.5633 5.447 12.6133 5.44535 12.6649C5.44805 12.8096 5.45573 12.9161 5.50878 13.0509C5.65975 13.1895 5.82266 13.2763 6.00744 13.3626C6.0771 13.3974 6.14677 13.4323 6.21854 13.4682C7.61473 14.073 9.07252 14.1384 10.4977 13.5996C11.1142 13.3476 11.6919 13.0112 12.1783 12.5522C12.1783 12.5317 12.1783 12.5111 12.1783 12.4899C10.4711 12.4899 8.76377 12.4899 7.00476 12.4899C7.00476 12.1608 7.00476 11.8317 7.00476 11.4926C7.07967 11.494 7.15459 11.4954 7.23178 11.4968C7.93795 11.5094 8.64411 11.5188 9.35037 11.5249C9.71348 11.5281 10.0765 11.5325 10.4395 11.5396C10.79 11.5464 11.1403 11.5501 11.4908 11.5517C11.6244 11.5529 11.7581 11.5551 11.8917 11.5585C12.595 11.6107 12.595 11.6107 13.2142 11.3574C13.3141 11.1946 13.373 11.0523 13.425 10.8693C13.4768 10.7603 13.4768 10.7603 13.5297 10.6492C13.5543 10.5881 13.5789 10.527 13.6042 10.4641C13.6297 10.4018 13.6553 10.3394 13.6816 10.2752C13.7436 10.1289 13.7436 10.1289 13.7366 9.99661C12.8316 9.99661 11.9265 9.99661 10.994 9.99661C10.994 9.6675 10.994 9.33838 10.994 8.99929C11.9608 8.99929 12.9276 8.99929 13.9236 8.99929C13.9555 7.97056 13.9555 7.97056 13.7678 7.01635C13.7529 6.96577 13.7381 6.91518 13.7228 6.86307C13.6874 6.74357 13.65 6.62469 13.612 6.506C12.6952 6.50162 11.7784 6.49833 10.8616 6.49631C10.4358 6.49535 10.0101 6.49404 9.58438 6.49189C9.17335 6.48982 8.76233 6.48874 8.3513 6.48826C8.19466 6.48791 8.03803 6.48724 7.88139 6.48623C7.66161 6.48487 7.44186 6.48468 7.22208 6.48477C7.15765 6.4841 7.09323 6.48343 7.02684 6.48273C6.57582 6.48465 6.08486 6.51162 5.76201 6.86441Z" fill="white"/>
<path d="M8.99939 24.9564C10.645 24.9564 12.2905 24.9564 13.986 24.9564C13.986 25.2855 13.986 25.6146 13.986 25.9537C12.3404 25.9537 10.6948 25.9537 8.99939 25.9537C8.99939 25.6246 8.99939 25.2954 8.99939 24.9564Z" fill="white"/>
<path d="M11.4927 21.9644C13.1382 21.9644 14.7838 21.9644 16.4793 21.9644C16.4793 22.2935 16.4793 22.6226 16.4793 22.9617C14.8337 22.9617 13.1881 22.9617 11.4927 22.9617C11.4927 22.6326 11.4927 22.3035 11.4927 21.9644Z" fill="white"/>
<path d="M8.99939 18.9725C10.3158 18.9725 11.6323 18.9725 12.9887 18.9725C12.9887 19.3016 12.9887 19.6307 12.9887 19.9698C11.6722 19.9698 10.3557 19.9698 8.99939 19.9698C8.99939 19.6407 8.99939 19.3116 8.99939 18.9725Z" fill="white"/>
<path d="M14.9833 24.9564C16.1352 24.9564 17.2871 24.9564 18.4739 24.9564C18.4739 25.2855 18.4739 25.6146 18.4739 25.9537C17.322 25.9537 16.1701 25.9537 14.9833 25.9537C14.9833 25.6246 14.9833 25.2954 14.9833 24.9564Z" fill="white"/>
<path d="M18.9725 10.994C19.9599 10.994 20.9472 10.994 21.9645 10.994C21.9645 11.3231 21.9645 11.6522 21.9645 11.9913C20.9771 11.9913 19.9898 11.9913 18.9725 11.9913C18.9725 11.6622 18.9725 11.333 18.9725 10.994Z" fill="white"/>
<path d="M7.00476 8.99933C7.9921 8.99933 8.97945 8.99933 9.99671 8.99933C9.99671 9.32844 9.99671 9.65756 9.99671 9.99665C9.00937 9.99665 8.02202 9.99665 7.00476 9.99665C7.00476 9.66753 7.00476 9.33842 7.00476 8.99933Z" fill="white"/>
<path d="M8.99939 21.9644C9.49306 21.9644 9.98673 21.9644 10.4954 21.9644C10.4954 22.2935 10.4954 22.6226 10.4954 22.9617C10.0017 22.9617 9.50802 22.9617 8.99939 22.9617C8.99939 22.6326 8.99939 22.3035 8.99939 21.9644Z" fill="white"/>
<path d="M20.9672 13.9859C21.2963 13.9859 21.6254 13.9859 21.9645 13.9859C21.9645 14.315 21.9645 14.6441 21.9645 14.9832C21.6354 14.9832 21.3063 14.9832 20.9672 14.9832C20.9672 14.6541 20.9672 14.325 20.9672 13.9859Z" fill="white"/>
</svg>
