<svg width="54" height="54" viewBox="0 0 54 54" fill="none" xmlns="http://www.w3.org/2000/svg">
<path d="M27 4.5C14.58 4.5 4.5 14.58 4.5 27C4.5 39.42 14.58 49.5 27 49.5C39.42 49.5 49.5 39.42 49.5 27C49.5 14.58 39.42 4.5 27 4.5ZM27 45C17.0775 45 9 36.9225 9 27C9 17.0775 17.0775 9 27 9C36.9225 9 45 17.0775 45 27C45 36.9225 36.9225 45 27 45ZM14.625 20.25L22.5 12.375L30.375 20.25H24.75L24.75 29.25H20.25L20.25 20.25L14.625 20.25ZM39.375 33.75L31.5 41.625L23.625 33.75L29.25 33.75L29.25 24.75H33.75L33.75 33.75H39.375Z" fill="#FB9110"/>
</svg>
