<svg width="30" height="30" viewBox="0 0 30 30" fill="none" xmlns="http://www.w3.org/2000/svg">
<g clip-path="url(#clip0_124_73)">
<path d="M19.5053 0.800428C19.9844 1.11919 20.3144 1.53628 20.5664 2.05081C20.5989 2.05102 20.6314 2.05124 20.6649 2.05146C21.0033 2.05391 21.3417 2.05797 21.6801 2.06297C21.8063 2.06462 21.9326 2.06587 22.0589 2.06669C22.2405 2.06794 22.4219 2.07068 22.6035 2.0737C22.6599 2.07377 22.7164 2.07384 22.7746 2.07392C23.0009 2.07887 23.1583 2.08434 23.3578 2.19586C23.477 2.417 23.4564 2.62518 23.4375 2.87112C23.4967 2.87073 23.5558 2.87034 23.6168 2.86994C24.1754 2.86637 24.734 2.86374 25.2926 2.86201C25.5797 2.8611 25.8669 2.85986 26.154 2.85786C26.4314 2.85595 26.7087 2.8549 26.9861 2.85444C27.0917 2.85412 27.1972 2.85349 27.3028 2.85254C27.4512 2.85125 27.5995 2.85109 27.7479 2.85117C27.7912 2.85053 27.8344 2.8499 27.879 2.84925C28.3876 2.85224 28.7527 3.04187 29.122 3.38702C29.4301 3.72781 29.5385 4.10462 29.5391 4.55644C29.5393 4.59714 29.5394 4.63785 29.5395 4.67979C29.5399 4.8172 29.5399 4.95461 29.5399 5.09202C29.5401 5.19113 29.5403 5.29024 29.5405 5.38935C29.5411 5.66251 29.5413 5.93567 29.5415 6.20882C29.5417 6.50312 29.5423 6.79742 29.5428 7.09171C29.544 7.80286 29.5445 8.514 29.5451 9.22514C29.5453 9.55989 29.5456 9.89464 29.5459 10.2294C29.5469 11.3419 29.5478 12.4545 29.5482 13.567C29.5483 13.8558 29.5484 14.1446 29.5486 14.4334C29.5486 14.5052 29.5486 14.577 29.5486 14.651C29.5491 15.814 29.5506 16.977 29.5525 18.1401C29.5544 19.3337 29.5555 20.5273 29.5557 21.7209C29.5558 22.3912 29.5563 23.0616 29.5578 23.7319C29.5591 24.3028 29.5596 24.8737 29.559 25.4445C29.5587 25.7358 29.5588 26.0271 29.56 26.3184C29.561 26.5851 29.561 26.8518 29.56 27.1186C29.5599 27.215 29.5602 27.3114 29.5609 27.4078C29.5656 28.11 29.487 28.6105 29.0003 29.1371C28.6861 29.4171 28.3201 29.5384 27.9047 29.5393C27.8339 29.5396 27.763 29.5399 27.6901 29.5402C27.6111 29.5402 27.5321 29.5403 27.4531 29.5403C27.3695 29.5405 27.2859 29.5408 27.2023 29.5411C26.972 29.5418 26.7417 29.5421 26.5115 29.5424C26.2633 29.5427 26.0151 29.5434 25.767 29.544C25.1673 29.5455 24.5677 29.5463 23.968 29.5471C23.7987 29.5473 23.6293 29.5475 23.4599 29.5478C22.4084 29.5492 21.3568 29.5505 20.3052 29.5513C20.0616 29.5514 19.818 29.5516 19.5743 29.5518C19.5138 29.5518 19.4532 29.5519 19.3908 29.5519C18.4101 29.5527 17.4293 29.5546 16.4486 29.5571C15.4418 29.5595 14.435 29.5609 13.4281 29.5612C12.8628 29.5614 12.2975 29.5621 11.7322 29.564C11.2506 29.5657 10.7691 29.5663 10.2876 29.5657C10.042 29.5654 9.79645 29.5655 9.55084 29.567C9.32576 29.5683 9.10071 29.5683 8.87562 29.5672C8.75612 29.5669 8.63662 29.5681 8.51713 29.5694C7.9703 29.5647 7.58025 29.4545 7.15943 29.0991C6.69405 28.5407 6.60323 28.1321 6.6078 27.4061C6.60778 27.3346 6.60776 27.2631 6.60774 27.1895C6.60781 26.9945 6.6084 26.7995 6.60922 26.6045C6.60995 26.4003 6.61002 26.1961 6.61016 25.9919C6.61052 25.6058 6.61148 25.2196 6.61266 24.8334C6.61397 24.3936 6.61462 23.9537 6.6152 23.5139C6.61643 22.6095 6.61849 21.7052 6.6211 20.8008C6.54436 20.8013 6.46762 20.8018 6.38856 20.8023C6.28704 20.8026 6.18552 20.803 6.084 20.8034C6.03352 20.8037 5.98304 20.8041 5.93104 20.8044C5.59631 20.8053 5.28338 20.788 4.9585 20.7019C4.89372 20.686 4.89372 20.686 4.82763 20.6697C3.71715 20.3855 2.84918 19.8524 2.05079 19.043C2.0026 18.9954 1.95441 18.9478 1.90476 18.8988C1.37939 18.3516 1.02931 17.7134 0.765387 17.0069C0.748837 16.9626 0.732286 16.9184 0.715234 16.8728C0.498531 16.2583 0.447367 15.6597 0.450446 15.011C0.450776 14.9383 0.451107 14.8656 0.451447 14.7907C0.458108 14.2893 0.487052 13.8384 0.644538 13.3594C0.655867 13.3233 0.667197 13.2871 0.67887 13.2499C0.980136 12.304 1.46427 11.5357 2.16798 10.8399C2.21858 10.7887 2.26919 10.7375 2.32133 10.6847C3.33339 9.70866 4.69054 9.17943 6.09261 9.19513C6.16921 9.19557 6.16921 9.19557 6.24736 9.19603C6.37194 9.1968 6.49652 9.19798 6.6211 9.19925C6.62051 9.10851 6.62051 9.10851 6.61992 9.01594C6.61635 8.44442 6.61371 7.8729 6.61199 7.30137C6.61108 7.00758 6.60984 6.71379 6.60784 6.42001C6.60592 6.13621 6.60488 5.85242 6.60442 5.56861C6.6041 5.46062 6.60347 5.35263 6.60252 5.24464C6.60123 5.09277 6.60106 4.94093 6.60114 4.78905C6.60051 4.74492 6.59988 4.7008 6.59923 4.65533C6.60194 4.18223 6.7431 3.76086 7.03812 3.39023C7.42377 3.00938 7.84155 2.86195 8.37117 2.86447C8.41806 2.86446 8.46495 2.86445 8.51326 2.86444C8.66829 2.86449 8.82332 2.86494 8.97835 2.8654C9.08583 2.86551 9.1933 2.86559 9.30077 2.86565C9.58368 2.86588 9.86659 2.86645 10.1495 2.8671C10.4382 2.8677 10.7268 2.86797 11.0155 2.86826C11.582 2.86889 12.1484 2.86989 12.7149 2.87112C12.7164 2.83577 12.7179 2.80043 12.7194 2.76401C12.7347 2.54944 12.7507 2.38441 12.8568 2.19506C13.0985 2.05796 13.3347 2.08067 13.6075 2.08652C13.6657 2.08685 13.7239 2.08718 13.7838 2.08752C13.9695 2.08883 14.1552 2.09177 14.3408 2.09476C14.4668 2.09593 14.5927 2.097 14.7187 2.09796C15.0273 2.10054 15.3359 2.10446 15.6445 2.1094C15.6621 2.05419 15.6797 1.99897 15.6978 1.94208C15.8734 1.43585 16.3388 0.982173 16.8054 0.731993C17.6656 0.331668 18.671 0.321243 19.5053 0.800428ZM16.932 1.8613C16.7153 2.10678 16.5932 2.39707 16.4649 2.69534C16.3628 2.92214 16.3628 2.92214 16.2305 2.98831C16.1491 2.99518 16.0675 2.99867 15.9859 3.00034C15.9102 3.00209 15.9102 3.00209 15.8331 3.00388C15.7785 3.00486 15.724 3.00584 15.6679 3.00685C15.5842 3.00868 15.5842 3.00868 15.4989 3.01054C15.3204 3.01438 15.1419 3.01783 14.9634 3.02127C14.8425 3.0238 14.7217 3.02635 14.6008 3.02894C14.3042 3.03527 14.0076 3.04107 13.7109 3.0469C13.7109 3.80101 13.7109 4.55511 13.7109 5.33206C16.592 5.33206 19.4731 5.33206 22.4414 5.33206C22.4414 4.57796 22.4414 3.82386 22.4414 3.0469C22.2616 3.04471 22.0817 3.04252 21.8964 3.04027C21.7225 3.03756 21.5486 3.03456 21.3746 3.03153C21.2536 3.02958 21.1326 3.02793 21.0116 3.0266C20.8378 3.02464 20.664 3.02158 20.4902 3.01829C20.436 3.01792 20.3818 3.01754 20.3259 3.01716C20.2755 3.016 20.2251 3.01484 20.1731 3.01364C20.1066 3.01267 20.1066 3.01267 20.0387 3.01167C19.8907 2.98207 19.8393 2.92895 19.7461 2.81253C19.6921 2.68367 19.6921 2.68367 19.6436 2.53787C19.45 2.03865 19.1491 1.73514 18.6601 1.5182C18.0571 1.29555 17.4208 1.44609 16.932 1.8613ZM7.86668 4.00798C7.63627 4.32021 7.60877 4.54192 7.61054 4.91954C7.61053 4.967 7.61053 5.01446 7.61052 5.06336C7.61056 5.2203 7.61101 5.37723 7.61147 5.53416C7.61158 5.64295 7.61166 5.75173 7.61172 5.86052C7.61195 6.1469 7.61252 6.43328 7.61317 6.71966C7.61377 7.01186 7.61404 7.30407 7.61433 7.59627C7.61496 8.16966 7.61596 8.74305 7.61719 9.31643C7.98982 9.46195 7.98982 9.46195 8.37891 9.55081C8.37926 9.49334 8.3796 9.43587 8.37995 9.37666C8.38331 8.83521 8.38757 8.29378 8.39272 7.75235C8.39535 7.47399 8.39765 7.19564 8.39921 6.91727C8.40074 6.64866 8.4031 6.38007 8.40605 6.11147C8.40703 6.00896 8.4077 5.90645 8.40807 5.80394C8.40863 5.66042 8.41028 5.51694 8.41217 5.37343C8.41209 5.33099 8.412 5.28855 8.41192 5.24482C8.41524 5.067 8.4287 4.93858 8.51233 4.78016C8.71921 4.59034 8.95953 4.62051 9.22927 4.6169C9.26702 4.61632 9.30477 4.61574 9.34367 4.61515C9.46794 4.6133 9.59222 4.61185 9.7165 4.6104C9.80287 4.60919 9.88924 4.60796 9.9756 4.60671C10.2025 4.60348 10.4295 4.60058 10.6564 4.59775C10.8882 4.5948 11.1199 4.59154 11.3516 4.58831C11.806 4.58201 12.2604 4.5761 12.7149 4.57034C12.7149 4.31897 12.7149 4.06761 12.7149 3.80862C12.1566 3.8059 11.5984 3.80382 11.0401 3.80255C10.7808 3.80194 10.5216 3.80111 10.2624 3.79978C10.012 3.7985 9.76164 3.79781 9.51127 3.7975C9.41594 3.79729 9.32061 3.79687 9.22528 3.79623C9.09135 3.79538 8.95743 3.79526 8.8235 3.79532C8.74738 3.79506 8.67127 3.7948 8.59285 3.79453C8.33375 3.8116 8.07387 3.8412 7.86668 4.00798ZM23.4375 3.80862C23.4375 4.05999 23.4375 4.31136 23.4375 4.57034C23.5549 4.5715 23.6723 4.57266 23.7932 4.57386C24.1815 4.57778 24.5697 4.58233 24.9579 4.58719C25.1932 4.59011 25.4286 4.59283 25.6639 4.59506C25.8911 4.59722 26.1183 4.59994 26.3455 4.60304C26.4321 4.60412 26.5187 4.60501 26.6053 4.60569C26.7267 4.60669 26.8482 4.60839 26.9697 4.61025C27.0387 4.61103 27.1078 4.61181 27.179 4.61262C27.3673 4.62929 27.4931 4.65048 27.6563 4.74612C27.7744 4.97481 27.7881 5.1679 27.7882 5.42297C27.7884 5.46091 27.7885 5.49885 27.7887 5.53794C27.7891 5.66526 27.7887 5.79255 27.7883 5.91986C27.7885 6.01199 27.7886 6.10412 27.7889 6.19625C27.7894 6.44955 27.7891 6.70285 27.7888 6.95616C27.7885 7.22928 27.7889 7.5024 27.7892 7.77552C27.7898 8.31062 27.7896 8.84572 27.7893 9.38083C27.789 9.81563 27.789 10.2504 27.7891 10.6852C27.7891 10.7471 27.7892 10.8089 27.7892 10.8726C27.7892 10.9982 27.7893 11.1238 27.7893 11.2494C27.7896 12.4278 27.7892 13.6062 27.7886 14.7846C27.7881 15.7962 27.7882 16.8078 27.7887 17.8194C27.7893 18.9935 27.7896 20.1676 27.7892 21.3417C27.7892 21.4669 27.7892 21.592 27.7891 21.7172C27.7891 21.7787 27.7891 21.8403 27.7891 21.9038C27.789 22.3381 27.7891 22.7725 27.7894 23.2069C27.7897 23.7362 27.7897 24.2654 27.789 24.7946C27.7887 25.0647 27.7886 25.3349 27.789 25.605C27.7893 25.8521 27.7891 26.0993 27.7885 26.3464C27.7884 26.4359 27.7885 26.5255 27.7887 26.615C27.7891 26.7365 27.7887 26.858 27.7882 26.9794C27.7882 27.047 27.7882 27.1145 27.7881 27.1841C27.7728 27.3709 27.751 27.4944 27.6563 27.6563C27.4514 27.7729 27.2717 27.7881 27.0389 27.7882C26.974 27.7885 26.9091 27.7888 26.8422 27.7891C26.7712 27.7889 26.7002 27.7886 26.6271 27.7883C26.5136 27.7886 26.5136 27.7886 26.3979 27.7889C26.188 27.7894 25.9781 27.7891 25.7682 27.7888C25.5418 27.7885 25.3154 27.7889 25.089 27.7893C24.6456 27.7898 24.2021 27.7897 23.7587 27.7893C23.3983 27.7891 23.038 27.789 22.6776 27.7891C22.6007 27.7892 22.6007 27.7892 22.5222 27.7892C22.4181 27.7892 22.314 27.7893 22.2098 27.7893C21.2331 27.7896 20.2563 27.7893 19.2795 27.7886C18.4411 27.7881 17.6028 27.7882 16.7644 27.7887C15.7911 27.7894 14.8179 27.7896 13.8446 27.7893C13.7409 27.7892 13.6371 27.7892 13.5334 27.7891C13.4823 27.7891 13.4313 27.7891 13.3787 27.7891C13.0187 27.789 12.6587 27.7892 12.2987 27.7894C11.8601 27.7898 11.4215 27.7897 10.9828 27.7891C10.759 27.7887 10.5351 27.7886 10.3113 27.789C10.0688 27.7894 9.82633 27.7889 9.58385 27.7883C9.51286 27.7886 9.44187 27.7889 9.36873 27.7891C9.30383 27.7888 9.23893 27.7885 9.17206 27.7882C9.11608 27.7882 9.06011 27.7882 9.00243 27.7882C8.83092 27.7719 8.7078 27.735 8.55469 27.6563C8.42781 27.466 8.42257 27.4124 8.42119 27.1924C8.42021 27.1033 8.42021 27.1033 8.41921 27.0124C8.41908 26.9473 8.41895 26.8822 8.41882 26.8151C8.41794 26.7122 8.41794 26.7122 8.41704 26.6072C8.41554 26.4191 8.41455 26.231 8.41379 26.0429C8.41288 25.8463 8.41131 25.6497 8.40981 25.4531C8.40706 25.0808 8.40491 24.7085 8.40297 24.3362C8.40073 23.9124 8.39784 23.4886 8.39489 23.0648C8.38883 22.1929 8.3836 21.3211 8.37891 20.4492C8.26289 20.4771 8.14693 20.5052 8.03101 20.5335C7.93414 20.5569 7.93414 20.5569 7.83532 20.5809C7.68199 20.6092 7.68199 20.6092 7.61719 20.6836C7.61119 20.777 7.60927 20.8706 7.60897 20.9641C7.60863 21.0248 7.6083 21.0855 7.60795 21.1481C7.60789 21.2153 7.60782 21.2824 7.60775 21.3517C7.60746 21.422 7.60717 21.4923 7.60687 21.5647C7.60616 21.7582 7.60572 21.9517 7.60546 22.1451C7.60529 22.266 7.60505 22.3869 7.60479 22.5078C7.60399 22.8859 7.60342 23.2641 7.6032 23.6423C7.60293 24.0788 7.60191 24.5153 7.60021 24.9519C7.59894 25.2892 7.59835 25.6265 7.59827 25.9639C7.59821 26.1653 7.59787 26.3668 7.59682 26.5683C7.59567 26.7933 7.59593 27.0183 7.59631 27.2433C7.59577 27.3099 7.59523 27.3765 7.59467 27.4451C7.59641 27.7733 7.60211 28.0201 7.79298 28.3008C8.07768 28.578 8.33183 28.601 8.71671 28.6013C8.7846 28.6015 8.85249 28.6017 8.92243 28.6019C8.99676 28.6018 9.07109 28.6017 9.14768 28.6016C9.22763 28.6017 9.30759 28.6019 9.38755 28.602C9.60723 28.6024 9.8269 28.6024 10.0466 28.6023C10.2835 28.6023 10.5204 28.6026 10.7574 28.6029C11.2216 28.6034 11.6857 28.6035 12.1499 28.6036C12.5272 28.6036 12.9044 28.6037 13.2817 28.6039C14.3511 28.6044 15.4206 28.6047 16.49 28.6046C16.5477 28.6046 16.6053 28.6046 16.6647 28.6046C16.7224 28.6046 16.7802 28.6046 16.8397 28.6046C17.7754 28.6046 18.7112 28.6052 19.647 28.606C20.6076 28.6068 21.5683 28.6072 22.529 28.6072C23.0684 28.6072 23.6078 28.6073 24.1472 28.608C24.6065 28.6085 25.0657 28.6086 25.5249 28.6082C25.7592 28.608 25.9935 28.608 26.2278 28.6085C26.4424 28.609 26.6569 28.6089 26.8715 28.6084C26.9857 28.6083 27.1 28.6087 27.2143 28.6092C27.8201 28.6129 27.8201 28.6129 28.3484 28.3484C28.58 28.0506 28.6084 27.7312 28.6085 27.3627C28.6088 27.3035 28.6088 27.3035 28.609 27.2432C28.6094 27.1116 28.609 26.9799 28.6086 26.8482C28.6088 26.7527 28.609 26.6572 28.6092 26.5617C28.6097 26.2995 28.6094 26.0373 28.6091 25.7752C28.6088 25.4923 28.6092 25.2094 28.6095 24.9266C28.6101 24.3726 28.6099 23.8186 28.6096 23.2646C28.6093 22.8143 28.6093 22.3641 28.6094 21.9139C28.6095 21.8178 28.6095 21.8178 28.6095 21.7198C28.6095 21.5896 28.6096 21.4595 28.6096 21.3294C28.6099 20.1089 28.6096 18.8884 28.6089 17.6679C28.6084 16.6205 28.6085 15.5731 28.609 14.5258C28.6097 13.3097 28.6099 12.0936 28.6095 10.8775C28.6095 10.7478 28.6095 10.6182 28.6094 10.4885C28.6094 10.4247 28.6094 10.3609 28.6094 10.2952C28.6093 9.84547 28.6095 9.39576 28.6097 8.94604C28.6101 8.39803 28.61 7.85003 28.6093 7.30203C28.609 7.0224 28.6089 6.74276 28.6093 6.46313C28.6097 6.20717 28.6095 5.95121 28.6088 5.69526C28.6087 5.60264 28.6088 5.51002 28.6091 5.41741C28.6094 5.2915 28.609 5.16562 28.6085 5.03971C28.6085 4.96979 28.6085 4.89986 28.6084 4.82781C28.5863 4.52811 28.5341 4.2927 28.3484 4.05398C28.0397 3.81386 27.7099 3.79402 27.3289 3.79532C27.2865 3.7953 27.2442 3.79528 27.2005 3.79527C27.062 3.79535 26.9234 3.79626 26.7849 3.79718C26.6883 3.7974 26.5916 3.79756 26.495 3.79768C26.2418 3.79813 25.9885 3.79928 25.7353 3.80058C25.4765 3.80178 25.2176 3.80231 24.9588 3.8029C24.4517 3.80415 23.9446 3.80615 23.4375 3.80862ZM9.37501 5.56643C9.35111 6.35256 9.35111 6.35256 9.33495 7.13874C9.33006 7.45991 9.32431 7.78089 9.31312 8.10192C9.30415 8.36104 9.29929 8.61996 9.29718 8.87923C9.29567 8.97767 9.29273 9.0761 9.28827 9.17446C9.25409 9.70709 9.25409 9.70709 9.45542 10.1821C9.65026 10.3723 9.868 10.5194 10.0996 10.6612C11.1446 11.3324 11.6733 12.7397 11.9531 13.8867C12.226 15.3376 11.9353 16.9229 11.1328 18.1641C10.6327 18.8837 10.0862 19.3885 9.37501 19.9219C9.37501 22.2035 9.37501 24.4852 9.37501 26.836C15.1371 26.836 20.8992 26.836 26.8359 26.836C26.8359 19.817 26.8359 12.7981 26.8359 5.56643C25.7145 5.56643 24.593 5.56643 23.4375 5.56643C23.3988 5.75979 23.3602 5.95315 23.3203 6.15237C23.1526 6.32006 23.0382 6.28446 22.8032 6.28484C22.7616 6.28506 22.72 6.28528 22.6771 6.28551C22.537 6.28612 22.3968 6.28589 22.2567 6.28565C22.1565 6.28591 22.0564 6.28621 21.9562 6.28656C21.6836 6.28735 21.4109 6.28738 21.1383 6.28723C20.911 6.28717 20.6837 6.28745 20.4564 6.28774C19.9203 6.28839 19.3842 6.28841 18.848 6.28806C18.2943 6.2877 17.7406 6.28842 17.1869 6.28967C16.7121 6.2907 16.2373 6.29106 15.7625 6.29087C15.4786 6.29076 15.1948 6.29092 14.911 6.29173C14.6441 6.29246 14.3772 6.29235 14.1104 6.29159C14.0123 6.29145 13.9142 6.29161 13.8161 6.29209C13.6824 6.2927 13.5489 6.29223 13.4152 6.29149C13.3404 6.2915 13.2655 6.29151 13.1883 6.29152C13.0078 6.26956 13.0078 6.26956 12.832 6.09378C12.7934 5.91976 12.7547 5.74573 12.7149 5.56643C11.6127 5.56643 10.5106 5.56643 9.37501 5.56643ZM2.64405 11.7737C1.66083 12.9262 1.3528 14.218 1.46485 15.7032C1.54006 16.3531 1.8206 17.3155 2.34376 17.7539C2.37148 17.6931 2.3992 17.6322 2.42776 17.5695C2.67038 17.0518 2.92143 16.6295 3.33985 16.2305C3.38139 16.1892 3.42293 16.1479 3.46574 16.1053C3.79798 15.7904 4.16908 15.5688 4.57032 15.3516C4.54275 15.3105 4.51518 15.2694 4.48678 15.2271C4.07082 14.5932 3.81402 13.9693 3.95486 13.2008C4.08164 12.6886 4.28182 12.2436 4.68751 11.8946C4.71915 11.8657 4.7508 11.8369 4.78341 11.8071C5.25395 11.4106 5.84707 11.2653 6.4547 11.2901C7.14635 11.3671 7.71773 11.6921 8.16262 12.2241C8.579 12.8088 8.62653 13.483 8.55469 14.1797C8.44321 14.6067 8.23328 14.9453 7.96876 15.293C7.96876 15.3317 7.96876 15.3703 7.96876 15.4102C8.00426 15.4259 8.03976 15.4416 8.07633 15.4578C9.06 15.9178 9.81156 16.7361 10.1953 17.7539C10.3854 17.5341 10.5182 17.3063 10.6384 17.0435C10.6562 17.0049 10.674 16.9664 10.6924 16.9267C11.2284 15.7346 11.2 14.4205 10.7666 13.2019C10.6165 12.8334 10.4272 12.5102 10.1953 12.1875C10.1575 12.1345 10.1196 12.0815 10.0806 12.0269C9.32059 11.0313 8.20088 10.4133 6.97266 10.1953C5.28618 10.0767 3.81836 10.5241 2.64405 11.7737ZM5.21851 12.6966C4.95952 13.0278 4.84263 13.3516 4.86329 13.7732C4.92931 14.2263 5.1753 14.5225 5.51697 14.811C5.84814 15.0313 6.17661 15.0414 6.56251 15C6.98195 14.8952 7.26116 14.6522 7.50001 14.2969C7.66685 13.9565 7.66508 13.6132 7.61719 13.2422C7.45694 12.7962 7.15904 12.512 6.73829 12.3047C6.18331 12.1331 5.618 12.2743 5.21851 12.6966ZM3.75001 17.168C3.44151 17.5589 3.18736 18.0192 3.10548 18.5157C3.24511 18.9406 3.75901 19.151 4.13087 19.3433C5.30204 19.9196 6.61409 19.9902 7.85157 19.5703C7.9132 19.5498 7.97484 19.5293 8.03834 19.5081C8.52822 19.3244 9.13828 19.0172 9.4336 18.5742C9.29054 17.791 8.79523 17.0699 8.16285 16.6004C6.69094 15.6221 4.93951 15.8897 3.75001 17.168Z" fill="white"/>
<path d="M21.8662 20.2403C21.9473 20.24 22.0283 20.2396 22.1094 20.2392C22.2788 20.2386 22.4481 20.2388 22.6175 20.2397C22.8335 20.2407 23.0494 20.2393 23.2654 20.2373C23.4327 20.236 23.5999 20.236 23.7672 20.2365C23.8852 20.2366 24.0032 20.2354 24.1212 20.2343C24.4987 20.2381 24.7872 20.2557 25.1051 20.4693C25.335 20.7168 25.3932 20.9669 25.3948 21.2966C25.3955 21.3705 25.3963 21.4444 25.397 21.5205C25.3969 21.6005 25.3967 21.6804 25.3965 21.7603C25.3968 21.843 25.3971 21.9257 25.3974 22.0085C25.398 22.1814 25.3978 22.3544 25.3972 22.5274C25.3966 22.7484 25.3978 22.9695 25.3995 23.1905C25.4005 23.3612 25.4005 23.5319 25.4002 23.7026C25.4002 23.7841 25.4005 23.8656 25.4013 23.9471C25.4067 24.6613 25.4068 24.6613 25.2741 24.8818C25.0028 25.1539 24.7888 25.2832 24.4012 25.2843C24.3261 25.285 24.251 25.2857 24.1737 25.2865C24.0925 25.2861 24.0113 25.2856 23.9301 25.2851C23.846 25.2852 23.762 25.2854 23.6779 25.2857C23.5022 25.2861 23.3265 25.2856 23.1508 25.2845C22.9261 25.2831 22.7016 25.2839 22.477 25.2853C22.3035 25.2862 22.1301 25.2859 21.9567 25.2853C21.8739 25.2851 21.7911 25.2853 21.7083 25.2859C21.5924 25.2865 21.4765 25.2854 21.3605 25.2843C21.2947 25.2841 21.2289 25.2839 21.1611 25.2837C20.8719 25.237 20.6906 25.0855 20.4878 24.8816C20.3025 24.5737 20.3572 24.1746 20.3595 23.8278C20.3594 23.7452 20.3591 23.6626 20.3588 23.58C20.3585 23.4073 20.359 23.2346 20.3601 23.0618C20.3614 22.8413 20.3607 22.6208 20.3592 22.4003C20.3584 22.2298 20.3587 22.0594 20.3593 21.8889C20.3594 21.8076 20.3592 21.7264 20.3587 21.6451C20.3544 20.8281 20.3544 20.8281 20.625 20.5078C20.9942 20.1981 21.402 20.2385 21.8662 20.2403ZM21.3867 21.2696C21.3867 22.2557 21.3867 23.2418 21.3867 24.2578C22.3729 24.2578 23.359 24.2578 24.375 24.2578C24.375 23.2717 24.375 22.2856 24.375 21.2696C23.3889 21.2696 22.4027 21.2696 21.3867 21.2696Z" fill="white"/>
<path d="M21.4898 13.8187C21.5577 13.8181 21.6255 13.8176 21.6955 13.817C21.7686 13.8167 21.8417 13.8165 21.9171 13.8162C21.9925 13.8159 22.0679 13.8156 22.1456 13.8152C22.3053 13.8146 22.4649 13.8142 22.6245 13.814C22.8282 13.8137 23.0319 13.8123 23.2356 13.8106C23.4309 13.8093 23.6261 13.8092 23.8213 13.8089C23.8941 13.8082 23.9669 13.8074 24.0419 13.8067C24.4532 13.8078 24.7991 13.8096 25.1216 14.0939C25.3227 14.3649 25.3785 14.4886 25.3815 14.8246C25.3826 14.9355 25.3826 14.9355 25.3838 15.0487C25.3842 15.1298 25.3847 15.2109 25.3851 15.292C25.3853 15.3329 25.3855 15.3737 25.3858 15.4158C25.387 15.632 25.3879 15.8482 25.3884 16.0644C25.3891 16.2873 25.3911 16.5101 25.3934 16.733C25.3949 16.9047 25.3954 17.0765 25.3956 17.2482C25.3959 17.3303 25.3966 17.4124 25.3977 17.4946C25.3991 17.6098 25.3989 17.7251 25.3986 17.8404C25.399 17.9058 25.3993 17.9713 25.3997 18.0388C25.3542 18.3312 25.2035 18.5124 24.9902 18.7097C24.7545 18.8689 24.5528 18.8747 24.2719 18.8766C24.2041 18.8772 24.1362 18.8777 24.0663 18.8783C23.9932 18.8786 23.92 18.8788 23.8447 18.8791C23.7693 18.8794 23.6938 18.8798 23.6161 18.8801C23.4565 18.8807 23.2969 18.8811 23.1372 18.8813C22.9335 18.8816 22.7298 18.883 22.5261 18.8847C22.3309 18.886 22.1356 18.8861 21.9404 18.8864C21.8676 18.8871 21.7949 18.8879 21.7199 18.8886C21.3086 18.8875 20.9627 18.8857 20.6401 18.6015C20.4391 18.3304 20.3832 18.2067 20.3803 17.8707C20.3795 17.7968 20.3788 17.7228 20.378 17.6466C20.3775 17.5655 20.3771 17.4844 20.3767 17.4033C20.3764 17.3624 20.3762 17.3216 20.376 17.2795C20.3747 17.0633 20.3739 16.8471 20.3733 16.6309C20.3727 16.408 20.3707 16.1852 20.3684 15.9623C20.3668 15.7906 20.3663 15.6188 20.3661 15.4471C20.3658 15.365 20.3652 15.2829 20.3641 15.2007C20.3626 15.0855 20.3628 14.9702 20.3631 14.8549C20.3628 14.7895 20.3624 14.724 20.3621 14.6565C20.4075 14.3641 20.5582 14.1829 20.7715 13.9856C21.0073 13.8264 21.209 13.8206 21.4898 13.8187ZM21.3867 14.8242C21.3867 15.8297 21.3867 16.8352 21.3867 17.8711C22.3729 17.8711 23.359 17.8711 24.375 17.8711C24.375 16.8656 24.375 15.8602 24.375 14.8242C23.3889 14.8242 22.4027 14.8242 21.3867 14.8242Z" fill="white"/>
<path d="M21.4898 7.19758C21.5577 7.19702 21.6255 7.19646 21.6955 7.19588C21.7686 7.19563 21.8417 7.19538 21.9171 7.19512C21.9925 7.19479 22.0679 7.19446 22.1456 7.19411C22.3053 7.1935 22.4649 7.19315 22.6245 7.19295C22.8282 7.19263 23.0319 7.19122 23.2356 7.18955C23.4309 7.18819 23.6261 7.18808 23.8213 7.1878C23.8941 7.18708 23.9669 7.18635 24.0419 7.18561C24.4532 7.18667 24.7991 7.18853 25.1216 7.47276C25.3227 7.7438 25.3785 7.86746 25.3815 8.20352C25.3826 8.31442 25.3826 8.31442 25.3838 8.42756C25.3842 8.50869 25.3847 8.58982 25.3851 8.67095C25.3853 8.71178 25.3855 8.75261 25.3858 8.79467C25.387 9.01087 25.3879 9.22706 25.3884 9.44326C25.3891 9.66617 25.3911 9.88904 25.3934 10.1119C25.3949 10.2837 25.3954 10.4554 25.3956 10.6271C25.3959 10.7092 25.3966 10.7914 25.3977 10.8735C25.3991 10.9887 25.3989 11.104 25.3986 11.2193C25.399 11.2848 25.3993 11.3502 25.3997 11.4177C25.3542 11.7101 25.2035 11.8913 24.9902 12.0886C24.7545 12.2478 24.5528 12.2536 24.2719 12.2555C24.2041 12.2561 24.1362 12.2567 24.0663 12.2572C23.9932 12.2575 23.92 12.2577 23.8447 12.258C23.7693 12.2583 23.6938 12.2587 23.6161 12.259C23.4565 12.2596 23.2969 12.26 23.1372 12.2602C22.9335 12.2605 22.7298 12.2619 22.5261 12.2636C22.3309 12.2649 22.1356 12.265 21.9404 12.2653C21.8676 12.266 21.7949 12.2668 21.7199 12.2675C21.3086 12.2664 20.9627 12.2646 20.6401 11.9804C20.4391 11.7093 20.3832 11.5857 20.3803 11.2496C20.3795 11.1757 20.3788 11.1017 20.378 11.0256C20.3775 10.9444 20.3771 10.8633 20.3767 10.7822C20.3764 10.7413 20.3762 10.7005 20.376 10.6584C20.3747 10.4422 20.3739 10.2261 20.3733 10.0099C20.3727 9.78695 20.3707 9.56407 20.3684 9.34118C20.3668 9.16946 20.3663 8.99775 20.3661 8.82603C20.3658 8.7439 20.3652 8.66176 20.3641 8.57963C20.3626 8.46438 20.3628 8.34911 20.3631 8.23385C20.3628 8.16836 20.3624 8.10288 20.3621 8.03541C20.4075 7.74304 20.5582 7.56179 20.7715 7.3645C21.0073 7.20534 21.209 7.19947 21.4898 7.19758ZM21.3867 8.20312C21.3867 9.20859 21.3867 10.2141 21.3867 11.25C22.3729 11.25 23.359 11.25 24.375 11.25C24.375 10.2445 24.375 9.23906 24.375 8.20312C23.3889 8.20312 22.4027 8.20312 21.3867 8.20312Z" fill="white"/>
<path d="M11.3856 23.4077C11.4487 23.4071 11.5118 23.4064 11.5768 23.4057C11.6801 23.4064 11.6801 23.4064 11.7856 23.4072C11.8948 23.4065 11.8948 23.4065 12.0062 23.4059C12.2058 23.4051 12.4052 23.4053 12.6048 23.406C12.8136 23.4066 13.0224 23.406 13.2313 23.4057C13.582 23.4053 13.9327 23.4058 14.2834 23.4069C14.6888 23.4082 15.0942 23.4078 15.4996 23.4065C15.8477 23.4054 16.1958 23.4053 16.544 23.4059C16.7519 23.4063 16.9598 23.4063 17.1677 23.4055C17.3994 23.4047 17.6311 23.4059 17.8629 23.4072C17.9318 23.4067 18.0007 23.4062 18.0717 23.4057C18.1664 23.4067 18.1664 23.4067 18.2629 23.4077C18.3177 23.4078 18.3725 23.4079 18.4289 23.408C18.6193 23.4466 18.6885 23.5222 18.8086 23.6719C18.8758 23.8824 18.8857 23.9805 18.7976 24.1846C18.6845 24.3249 18.6221 24.3681 18.4571 24.4336C18.3156 24.4485 18.3156 24.4485 18.155 24.4489C18.0635 24.4495 18.0635 24.4495 17.9701 24.4501C17.9034 24.45 17.8368 24.4498 17.7681 24.4497C17.6977 24.45 17.6273 24.4503 17.5547 24.4506C17.3617 24.4513 17.1688 24.4514 16.9758 24.4513C16.8146 24.4512 16.6534 24.4515 16.4922 24.4518C16.1119 24.4524 15.7316 24.4524 15.3513 24.4521C14.9591 24.4517 14.567 24.4524 14.1748 24.4537C13.8379 24.4547 13.501 24.4551 13.1642 24.4549C12.963 24.4548 12.7619 24.4549 12.5608 24.4557C12.3365 24.4566 12.1122 24.4561 11.8879 24.4554C11.8214 24.4558 11.7549 24.4563 11.6864 24.4568C11.6252 24.4563 11.564 24.4559 11.5009 24.4555C11.4479 24.4555 11.3949 24.4555 11.3403 24.4555C11.1179 24.4227 10.954 24.3311 10.8179 24.1516C10.766 23.9699 10.7872 23.8526 10.8399 23.6719C11.0099 23.4591 11.1152 23.4082 11.3856 23.4077Z" fill="white"/>
<path d="M11.4323 10.3554C11.4942 10.3549 11.5561 10.3544 11.62 10.3539C11.6879 10.354 11.7558 10.354 11.8258 10.3541C11.8974 10.3537 11.969 10.3533 12.0427 10.3529C12.2391 10.352 12.4354 10.3516 12.6318 10.3515C12.7957 10.3514 12.9597 10.351 13.1237 10.3505C13.5105 10.3496 13.8974 10.3493 14.2843 10.3494C14.6832 10.3495 15.0822 10.3482 15.4812 10.3464C15.8238 10.3448 16.1664 10.3442 16.509 10.3443C16.7136 10.3443 16.9182 10.344 17.1228 10.3427C17.351 10.3414 17.5792 10.3419 17.8074 10.3426C17.8751 10.342 17.9428 10.3413 18.0126 10.3406C18.4692 10.3442 18.4692 10.3442 18.7027 10.4793C18.8403 10.6432 18.8672 10.7434 18.8672 10.957C18.7732 11.1638 18.7065 11.2399 18.5156 11.3672C18.3795 11.3823 18.3795 11.3823 18.2162 11.3829C18.1542 11.3834 18.0923 11.3839 18.0285 11.3844C17.9605 11.3843 17.8926 11.3843 17.8226 11.3842C17.751 11.3846 17.6795 11.385 17.6057 11.3854C17.4094 11.3863 17.213 11.3867 17.0166 11.3868C16.8527 11.3869 16.6887 11.3873 16.5248 11.3878C16.1379 11.3887 15.751 11.389 15.3642 11.3889C14.9652 11.3888 14.5663 11.3901 14.1673 11.3919C13.8247 11.3935 13.4821 11.3941 13.1394 11.394C12.9349 11.394 12.7303 11.3943 12.5257 11.3956C12.2974 11.3969 12.0692 11.3964 11.841 11.3957C11.7394 11.3966 11.7394 11.3966 11.6358 11.3977C11.1792 11.3941 11.1792 11.3941 10.9457 11.259C10.8082 11.0951 10.7812 10.9949 10.7812 10.7813C10.9261 10.4627 11.0872 10.3567 11.4323 10.3554Z" fill="white"/>
<path d="M12.7358 16.9765C12.7865 16.976 12.8372 16.9755 12.8894 16.975C12.9721 16.9751 12.9721 16.9751 13.0564 16.9752C13.1441 16.9746 13.1441 16.9746 13.2335 16.974C13.4267 16.9729 13.62 16.9726 13.8132 16.9725C13.9475 16.9721 14.0818 16.9717 14.2161 16.9713C14.4976 16.9706 14.7791 16.9704 15.0606 16.9705C15.4214 16.9705 15.7822 16.9689 16.143 16.9669C16.4204 16.9656 16.6977 16.9653 16.975 16.9654C17.108 16.9653 17.2411 16.9647 17.3741 16.9638C17.5601 16.9627 17.7461 16.963 17.9321 16.9637C17.9871 16.9631 18.0421 16.9624 18.0988 16.9617C18.3447 16.9641 18.4805 16.971 18.6949 17.1004C18.8416 17.2632 18.8672 17.3598 18.8672 17.5781C18.7732 17.7849 18.7065 17.861 18.5156 17.9883C18.3995 18.0034 18.3995 18.0034 18.2647 18.004C18.188 18.0047 18.188 18.0047 18.1096 18.0055C18.0537 18.0054 17.9977 18.0054 17.94 18.0053C17.8809 18.0057 17.8218 18.0061 17.761 18.0065C17.5652 18.0076 17.3695 18.0078 17.1737 18.008C17.0379 18.0083 16.9021 18.0087 16.7663 18.0092C16.4814 18.0099 16.1966 18.0101 15.9117 18.01C15.5463 18.01 15.181 18.0116 14.8156 18.0136C14.5351 18.0149 14.2545 18.0151 13.974 18.0151C13.8393 18.0152 13.7045 18.0157 13.5698 18.0166C13.3816 18.0178 13.1933 18.0175 13.0051 18.0168C12.9492 18.0174 12.8934 18.0181 12.8358 18.0188C12.4599 18.0152 12.4599 18.0152 12.2714 17.8821C12.1537 17.7023 12.1365 17.557 12.1289 17.3438C12.176 17.1853 12.2108 17.1306 12.3521 17.0456C12.4909 16.9879 12.5862 16.9772 12.7358 16.9765Z" fill="white"/>
<path d="M13.5952 8.05564C13.6479 8.05523 13.7007 8.05482 13.755 8.05439C13.9289 8.05336 14.1028 8.05404 14.2767 8.05484C14.3978 8.05468 14.5188 8.05445 14.6399 8.05416C14.8934 8.05381 15.147 8.05431 15.4005 8.05541C15.7255 8.05674 16.0503 8.05597 16.3752 8.05457C16.6252 8.05372 16.8751 8.05399 17.125 8.0546C17.2448 8.05476 17.3646 8.05457 17.4844 8.05402C17.6519 8.05342 17.8193 8.05433 17.9868 8.05564C18.0362 8.05516 18.0856 8.05469 18.1366 8.0542C18.3697 8.05756 18.4885 8.06929 18.6915 8.19429C18.8421 8.35647 18.8672 8.45146 18.8672 8.6719C18.7732 8.87868 18.7065 8.95478 18.5156 9.08206C18.342 9.09409 18.1738 9.09927 18.0001 9.09908C17.9474 9.09947 17.8947 9.09987 17.8404 9.10027C17.6658 9.10139 17.4913 9.10162 17.3167 9.10174C17.1955 9.10212 17.0743 9.10251 16.9531 9.10292C16.6988 9.10363 16.4445 9.10384 16.1903 9.10377C15.8644 9.10376 15.5386 9.10536 15.2128 9.10738C14.9624 9.10868 14.712 9.10892 14.4615 9.10886C14.3414 9.109 14.2213 9.10951 14.1012 9.11042C13.9331 9.11157 13.7651 9.11123 13.5971 9.11052C13.5474 9.11118 13.4978 9.11184 13.4467 9.11252C13.2108 9.11 13.0939 9.0993 12.8892 8.97122C12.7575 8.83066 12.7335 8.77402 12.7368 8.58401C12.736 8.5399 12.7353 8.49579 12.7345 8.45034C12.8569 8.04153 13.2413 8.05224 13.5952 8.05564Z" fill="white"/>
<path d="M13.8081 14.67C13.8585 14.6696 13.9089 14.6692 13.9609 14.6688C14.1272 14.6678 14.2935 14.6689 14.4598 14.6702C14.5756 14.6701 14.6914 14.67 14.8072 14.6697C15.0497 14.6696 15.2922 14.6704 15.5348 14.672C15.8455 14.674 16.1562 14.6737 16.4669 14.6726C16.706 14.672 16.945 14.6725 17.1841 14.6734C17.2987 14.6737 17.4132 14.6737 17.5278 14.6733C17.688 14.673 17.8481 14.6742 18.0083 14.6758C18.0555 14.6754 18.1028 14.675 18.1515 14.6746C18.3705 14.6783 18.5024 14.6988 18.6901 14.8154C18.8424 14.9773 18.8672 15.0717 18.8672 15.293C18.7732 15.4997 18.7065 15.5758 18.5156 15.7031C18.349 15.7151 18.1882 15.7203 18.0216 15.7201C17.9712 15.7205 17.9207 15.7209 17.8688 15.7213C17.7019 15.7224 17.5349 15.7227 17.368 15.7228C17.252 15.7232 17.1361 15.7236 17.0201 15.724C16.7769 15.7247 16.5336 15.7249 16.2904 15.7248C15.9788 15.7248 15.6671 15.7264 15.3555 15.7284C15.1159 15.7297 14.8764 15.73 14.6368 15.7299C14.5219 15.7301 14.407 15.7306 14.2921 15.7315C14.1314 15.7326 13.9707 15.7323 13.8099 15.7316C13.7388 15.7326 13.7388 15.7326 13.6662 15.7336C13.4484 15.7311 13.3134 15.7107 13.1247 15.5986C12.9851 15.4436 12.973 15.3292 12.9689 15.1229C13.0998 14.7092 13.426 14.6645 13.8081 14.67Z" fill="white"/>
<path d="M13.9208 21.1154C13.9708 21.1149 14.0207 21.1145 14.0722 21.1141C14.2369 21.1131 14.4015 21.1142 14.5663 21.1155C14.6809 21.1154 14.7955 21.1153 14.9101 21.1151C15.1502 21.1149 15.3901 21.1157 15.6302 21.1174C15.9379 21.1194 16.2455 21.119 16.5533 21.1179C16.7899 21.1173 17.0265 21.1178 17.2631 21.1187C17.3765 21.119 17.49 21.119 17.6035 21.1186C17.762 21.1183 17.9204 21.1195 18.0789 21.1211C18.1258 21.1207 18.1727 21.1203 18.2211 21.1199C18.429 21.1235 18.5502 21.1343 18.7189 21.2607C18.8362 21.4255 18.863 21.5363 18.8672 21.7383C18.7981 21.8983 18.7407 21.9968 18.5972 22.0971C18.3945 22.1713 18.1963 22.1652 17.9832 22.1645C17.9357 22.1648 17.8881 22.1651 17.8391 22.1654C17.682 22.1662 17.5249 22.1662 17.3678 22.1661C17.2585 22.1663 17.1491 22.1665 17.0398 22.1668C16.8107 22.1672 16.5817 22.1672 16.3526 22.1669C16.0591 22.1666 15.7657 22.1676 15.4723 22.1689C15.2465 22.1698 15.0208 22.1699 14.795 22.1697C14.6868 22.1697 14.5786 22.17 14.4705 22.1706C14.3191 22.1713 14.1678 22.1709 14.0165 22.1702C13.9719 22.1707 13.9273 22.1711 13.8813 22.1716C13.6188 22.169 13.4499 22.1364 13.2422 21.9726C13.1047 21.7665 13.091 21.688 13.125 21.4453C13.3534 21.1406 13.5596 21.1101 13.9208 21.1154Z" fill="white"/>
<path d="M23.9648 21.6797C24.1113 21.7676 24.1113 21.7676 24.1992 21.9141C24.2435 22.1517 24.2534 22.2891 24.1317 22.4995C24.0225 22.6411 23.9059 22.7748 23.7891 22.9102C23.7302 22.9848 23.6717 23.0597 23.6135 23.1349C23.5827 23.1745 23.5519 23.2141 23.5202 23.2548C23.4585 23.3341 23.3971 23.4135 23.3358 23.493C23.3069 23.5296 23.278 23.5662 23.2482 23.6039C23.2098 23.6532 23.2098 23.6532 23.1706 23.7034C23.0107 23.8651 22.885 23.9057 22.6588 23.9097C22.3616 23.8249 22.2159 23.6635 22.0093 23.4412C21.9725 23.4033 21.9357 23.3654 21.8978 23.3264C21.5684 22.9838 21.5684 22.9838 21.5442 22.6831C21.5477 22.51 21.5587 22.4478 21.6504 22.2949C21.8576 22.1706 22.0349 22.1498 22.2656 22.207C22.4372 22.308 22.5861 22.4261 22.7344 22.5586C22.7795 22.5001 22.8247 22.4415 22.8712 22.3812C22.9306 22.3048 22.9899 22.2285 23.0493 22.1521C23.0791 22.1135 23.1088 22.0748 23.1395 22.035C23.1682 21.9982 23.1969 21.9614 23.2265 21.9234C23.2529 21.8894 23.2792 21.8553 23.3064 21.8202C23.479 21.625 23.7239 21.6468 23.9648 21.6797Z" fill="white"/>
<path d="M23.9062 15.2344C24.0747 15.3186 24.0747 15.3186 24.1992 15.4687C24.2531 15.7032 24.2448 15.9137 24.1275 16.1258C24.0275 16.2571 23.9221 16.3794 23.811 16.5014C23.7749 16.5431 23.7387 16.5848 23.7014 16.6278C23.6296 16.7103 23.5573 16.7922 23.4844 16.8737C23.3531 17.0211 23.2266 17.1723 23.1005 17.3241C22.9928 17.4392 22.9113 17.4607 22.7563 17.4902C22.4522 17.4451 22.3039 17.2606 22.0898 17.0508C22.0413 17.0085 21.9927 16.9662 21.9427 16.9226C21.5288 16.5483 21.5288 16.5483 21.5112 16.2744C21.5725 16.0117 21.6346 15.9154 21.8555 15.7617C22.0239 15.7214 22.0239 15.7214 22.207 15.7617C22.3567 15.8664 22.4878 15.9846 22.6172 16.1133C22.8403 16.0251 22.9433 15.8964 23.0859 15.7068C23.4873 15.1745 23.4873 15.1745 23.9062 15.2344Z" fill="white"/>
<path d="M23.9062 8.61326C24.0747 8.69749 24.0747 8.69749 24.1992 8.84764C24.2531 9.08208 24.2448 9.29257 24.1275 9.50468C24.0275 9.63599 23.9221 9.75832 23.811 9.88035C23.7749 9.92204 23.7387 9.96374 23.7014 10.0067C23.6296 10.0892 23.5573 10.1711 23.4844 10.2526C23.3531 10.4 23.2266 10.5512 23.1005 10.703C22.9928 10.8181 22.9113 10.8396 22.7563 10.8691C22.4522 10.8241 22.3039 10.6395 22.0898 10.4297C22.0413 10.3874 21.9927 10.3451 21.9427 10.3015C21.5288 9.92723 21.5288 9.92723 21.5112 9.6533C21.5725 9.39064 21.6346 9.29427 21.8555 9.1406C22.0239 9.10032 22.0239 9.10032 22.207 9.1406C22.3567 9.24533 22.4878 9.36351 22.6172 9.49217C22.8403 9.40401 22.9433 9.27533 23.0859 9.08567C23.4873 8.55341 23.4873 8.55341 23.9062 8.61326Z" fill="white"/>
<path d="M18.3399 2.10939C18.5513 2.28037 18.6788 2.40806 18.7097 2.68068C18.6869 2.91851 18.6038 3.03711 18.4571 3.22267C18.2695 3.31647 18.0747 3.31051 17.8711 3.28127C17.7065 3.17617 17.6069 3.10438 17.5196 2.9297C17.4855 2.5143 17.4855 2.5143 17.6294 2.28883C17.8402 2.08424 18.0544 2.05907 18.3399 2.10939Z" fill="white"/>
</g>
<defs>
<clipPath id="clip0_124_73">
<rect width="30" height="30" fill="white"/>
</clipPath>
</defs>
</svg>
