<svg width="42" height="42" viewBox="0 0 42 42" fill="none" xmlns="http://www.w3.org/2000/svg">
<g clip-path="url(#clip0_103_52)">
<path d="M14.5419 26.3346C14.3629 26.3346 14.1797 26.339 13.9964 26.339C10.1913 26.339 6.60006 25.8939 3.88152 25.0866C2.48079 24.6721 1.35934 24.1746 0.547701 23.603C0.429883 23.5201 0.320792 23.4372 0.216064 23.3542V29.6553C0.216064 31.9113 6.38625 33.7397 13.9964 33.7397C14.3847 33.7397 14.7687 33.7353 15.1484 33.7266C14.5942 32.1819 14.3149 30.5586 14.3149 28.8961C14.315 28.0277 14.3892 27.1724 14.5419 26.3346Z" fill="#F79222"/>
<path d="M18.5215 18.7375C19.0844 18.1746 19.6866 17.664 20.3237 17.2102C18.3775 17.4982 16.2219 17.6509 13.9964 17.6509C10.1913 17.6509 6.60006 17.2058 3.88152 16.3986C2.48079 15.984 1.35934 15.4866 0.547701 14.9149C0.429883 14.832 0.320792 14.7491 0.216064 14.6662V20.9411C0.216064 21.1244 0.259701 21.3033 0.338246 21.4822C1.23279 23.4851 7.00588 25.0254 13.9964 25.0254C14.2801 25.0254 14.5637 25.0211 14.8429 25.0167C15.0044 24.4363 15.2051 23.8603 15.4451 23.3018C15.7113 22.6691 16.0211 22.0626 16.3746 21.4822C16.968 20.4917 17.688 19.5709 18.5215 18.7375Z" fill="#F79222"/>
<path d="M13.9964 9.47783C10.1913 9.47783 6.60006 9.03274 3.88152 8.22547C2.48079 7.81092 1.35934 7.31347 0.547701 6.74183C0.429883 6.65892 0.320792 6.57601 0.216064 6.4931V11.4633V12.1178V12.2575C0.216064 12.432 0.255337 12.6066 0.325155 12.7724C1.18043 14.784 6.97534 16.3418 13.9964 16.3418C21.0175 16.3418 26.8124 14.784 27.6677 12.7724C27.7375 12.6022 27.7767 12.432 27.7767 12.2575V12.1178V11.4633V6.4931C27.672 6.58038 27.5629 6.66328 27.4451 6.74183C26.6335 7.3091 25.512 7.80656 24.1113 8.22547C21.3928 9.03274 17.8015 9.47783 13.9964 9.47783Z" fill="#F79222"/>
<path d="M27.7768 4.08436C27.7768 3.86182 27.7157 3.64364 27.5979 3.42982C27.4757 3.20291 27.2924 2.98473 27.0524 2.77527C25.211 1.16073 20.0619 0 13.9964 0C7.93097 0 2.77747 1.16073 0.940428 2.77527C0.700428 2.98473 0.517155 3.20291 0.394974 3.42982C0.277155 3.64364 0.216064 3.86182 0.216064 4.08436C0.216064 6.34036 6.38625 8.16873 13.9964 8.16873C21.6066 8.16873 27.7768 6.34036 27.7768 4.08436Z" fill="#F79222"/>
<path d="M29.0859 15.792C28.9506 15.7876 28.8154 15.7833 28.6757 15.7833C28.5929 15.7833 28.5099 15.7833 28.4313 15.7876C28.2132 15.792 27.995 15.8007 27.7768 15.8138C23.6619 16.0931 20.0662 18.2705 17.8626 21.4821C17.1339 22.5425 16.5535 23.7207 16.1608 24.9774C16.091 25.1956 16.0299 25.4182 15.9732 25.6407C15.9164 25.8589 15.8684 26.0814 15.8248 26.2996C15.6547 27.1374 15.5674 28.0058 15.5674 28.8916C15.5674 30.5803 15.8859 32.1905 16.4663 33.6698C18.3775 38.544 23.1252 42 28.6757 42C35.9149 42 41.784 36.1309 41.784 28.8917C41.7884 21.792 36.1375 16.0102 29.0859 15.792ZM32.5157 35.2058C31.8567 35.8996 30.9579 36.3578 29.9281 36.5411V37.0648C29.9281 37.5448 29.5397 37.9331 29.0597 37.9331H28.5884C28.1084 37.9331 27.7201 37.5448 27.7201 37.0648V36.5193C27.1528 36.4102 26.6074 36.2269 26.1186 35.9782C25.5427 35.6815 25.0408 35.1972 24.6219 34.5426C24.3427 34.1063 24.1419 33.6 24.0197 33.0328C23.9717 32.819 24.011 32.6051 24.1113 32.4306C24.2336 32.2124 24.4517 32.0509 24.7179 32.0029L25.1847 31.92C25.2808 31.9026 25.3768 31.9026 25.464 31.92C25.8001 31.9724 26.0837 32.2168 26.171 32.5615C26.3019 33.0808 26.4808 33.4822 26.7033 33.7659C27.2007 34.403 28.0211 34.7826 28.8982 34.7826C29.0465 34.7826 29.1949 34.7695 29.3433 34.7477C29.9717 34.6517 30.5346 34.3549 30.9229 33.9099C31.3374 33.4386 31.5469 32.8452 31.5469 32.147C31.5469 31.5579 31.4029 31.0779 31.1149 30.7244C30.5869 30.0786 29.6837 29.7994 28.8677 29.6161C28.4881 29.5288 28.1258 29.4459 27.7681 29.3455C27.1746 29.1754 26.6029 28.9659 26.0313 28.6474C25.4422 28.3201 24.984 27.8575 24.6655 27.2772C24.3513 26.7012 24.1899 26.0379 24.1899 25.3048C24.1899 25.2176 24.1942 25.1347 24.1942 25.0517C24.2074 24.803 24.2379 24.5674 24.2815 24.3404C24.3383 24.0699 24.4168 23.8124 24.5215 23.5681C24.7528 23.027 25.1062 22.547 25.5732 22.1368C25.8786 21.8706 26.2452 21.6481 26.6597 21.4779C26.9826 21.3426 27.3361 21.2423 27.707 21.1724V20.4654C27.707 20.3607 27.7288 20.256 27.7637 20.1644C27.8684 19.8807 28.1172 19.6713 28.4183 19.6145C28.4706 19.6058 28.5229 19.6014 28.5754 19.6014H29.0466C29.0554 19.6014 29.0641 19.6014 29.0729 19.6014C29.5397 19.6145 29.915 19.9985 29.915 20.4654V21.1854C30.6961 21.3382 31.39 21.6436 31.9136 22.0756C32.4677 22.5338 32.8692 23.1142 33.118 23.8124C33.3012 24.3229 32.9652 24.877 32.4285 24.9556L31.9703 25.0254C31.5557 25.0865 31.1543 24.8422 31.0234 24.4494C30.9143 24.1266 30.766 23.8604 30.5827 23.6553C30.1682 23.1927 29.518 22.9266 28.798 22.9266C28.5798 22.9266 28.366 22.9528 28.1609 22.9964C28.0256 23.0269 27.8947 23.0662 27.7682 23.1142C27.4103 23.2539 27.0962 23.4589 26.8562 23.7251C26.7427 23.8516 26.651 23.9825 26.5725 24.1222C26.398 24.4364 26.3107 24.7855 26.3107 25.1739C26.3107 25.7237 26.4634 26.1906 26.7689 26.5615C27.0394 26.8844 27.3798 27.1114 27.7637 27.2771C28.2874 27.504 28.8809 27.6262 29.4656 27.744C30.0547 27.8619 30.6656 27.984 31.198 28.2197C31.7609 28.4684 32.2321 28.7782 32.59 29.136C32.9521 29.4982 33.2314 29.9302 33.4277 30.4277C33.6197 30.9208 33.7202 31.4619 33.7202 32.0335C33.7245 33.2945 33.3186 34.3593 32.5157 35.2058Z" fill="#F79222"/>
</g>
<defs>
<clipPath id="clip0_103_52">
<rect width="42" height="42" fill="white"/>
</clipPath>
</defs>
</svg>
