<svg width="163" height="163" viewBox="0 0 163 163" fill="none" xmlns="http://www.w3.org/2000/svg">
<g clip-path="url(#clip0_67_2)">
<path d="M64.3086 152.812C64.9841 152.812 65.6319 152.544 66.1095 152.067C66.5871 151.589 66.8555 150.941 66.8555 150.266C66.8555 149.59 66.5871 148.942 66.1095 148.465C65.6319 147.987 64.9841 147.719 64.3086 147.719H41.3867C40.7112 147.719 40.0634 147.987 39.5858 148.465C39.1082 148.942 38.8398 149.59 38.8398 150.266C38.8398 150.941 39.1082 151.589 39.5858 152.067C40.0634 152.544 40.7112 152.812 41.3867 152.812H64.3086ZM101.238 71.8409V77.9356C101.26 77.9407 101.279 77.9484 101.301 77.9522C106.139 75.1273 109.91 70.7858 112.031 65.6002C114.152 60.4146 114.503 54.6744 113.031 49.2688C111.558 43.8633 108.345 39.0941 103.887 35.7003C99.4294 32.3065 93.9771 30.4774 88.3746 30.4964C82.7722 30.5154 77.3324 32.3814 72.8979 35.8054C68.4635 39.2294 65.282 44.0202 63.8464 49.4356C62.4107 54.851 62.801 60.5888 64.9568 65.7599C67.1126 70.931 70.9136 75.2468 75.7708 78.0388V71.9021C72.4699 69.2718 70.0673 65.6813 68.8952 61.6266C67.7231 57.5719 67.8393 53.2533 69.2277 49.2675C70.6162 45.2817 73.2083 41.8255 76.6459 39.3766C80.0834 36.9276 84.1968 35.6068 88.4175 35.5967C92.6382 35.5866 96.7578 36.8876 100.207 39.32C103.656 41.7524 106.265 45.1961 107.673 49.1752C109.08 53.1543 109.217 57.4723 108.064 61.5326C106.912 65.5929 104.527 69.1949 101.238 71.8409Z" fill="#F79221"/>
<path d="M143.898 20.375H29.2891C27.2634 20.3774 25.3213 21.1831 23.8889 22.6155C22.4565 24.0479 21.6508 25.9899 21.6484 28.0156V84.0469C21.6508 86.0726 22.4565 88.0146 23.8889 89.447C25.3213 90.8794 27.2634 91.6851 29.2891 91.6875H75.7708V86.5938H46.9669C46.382 81.4314 44.0632 76.6201 40.3895 72.9464C36.7158 69.2727 31.9045 66.9539 26.7422 66.369V45.6935C31.9045 45.1086 36.7158 42.7898 40.3895 39.1161C44.0632 35.4424 46.382 30.6311 46.9669 25.4688H126.221C126.805 30.6311 129.124 35.4424 132.798 39.1161C136.472 42.7898 141.283 45.1086 146.445 45.6935V66.369C141.283 66.9539 136.472 69.2727 132.798 72.9464C129.124 76.6201 126.805 81.4314 126.221 86.5938H114.418C116.716 87.7013 118.625 89.4767 119.897 91.6875H143.898C145.924 91.6851 147.866 90.8794 149.299 89.447C150.731 88.0146 151.537 86.0726 151.539 84.0469V28.0156C151.537 25.9899 150.731 24.0479 149.299 22.6155C147.866 21.1831 145.924 20.3774 143.898 20.375ZM41.8197 86.5938H29.2891C28.6139 86.5927 27.9667 86.3241 27.4893 85.8467C27.0119 85.3693 26.7432 84.722 26.7422 84.0469V71.5162C30.5439 72.0706 34.065 73.8376 36.7817 76.5543C39.4983 79.2709 41.2653 82.792 41.8197 86.5938ZM26.7422 40.5463V28.0156C26.7432 27.3405 27.0119 26.6932 27.4893 26.2158C27.9667 25.7384 28.6139 25.4698 29.2891 25.4688H41.8197C41.2653 29.2705 39.4983 32.7916 36.7817 35.5082C34.065 38.2249 30.5439 39.9919 26.7422 40.5463ZM146.445 84.0469C146.444 84.722 146.176 85.3693 145.698 85.8467C145.221 86.3241 144.574 86.5927 143.898 86.5938H131.368C131.922 82.792 133.689 79.2709 136.406 76.5543C139.122 73.8376 142.644 72.0706 146.445 71.5162V84.0469ZM146.445 40.5463C142.644 39.9919 139.122 38.2249 136.406 35.5082C133.689 32.7916 131.922 29.2705 131.368 25.4688H143.898C144.574 25.4698 145.221 25.7384 145.698 26.2158C146.176 26.6932 146.444 27.3405 146.445 28.0156V40.5463Z" fill="#F79221"/>
<path d="M88.6797 40.7907C88.2564 40.7917 87.8507 40.9597 87.5507 41.2583C87.2507 41.5569 87.0807 41.9618 87.0777 42.385V44.3156C82.6206 44.7906 80.6697 47.3973 80.6697 50.4128C80.6697 53.7874 82.841 55.3779 85.3866 56.4336C87.452 55.898 89.6198 55.8971 91.6857 56.4309C93.7517 56.9647 95.6477 58.0156 97.1951 59.4848C95.5269 53.0717 84.7104 54.5094 84.7104 50.4128C84.7104 49.0591 85.7877 47.7373 88.6797 47.7373C90.4694 47.7178 92.2038 48.3569 93.5531 49.5328C93.9427 49.9582 94.4764 50.2237 95.0507 50.2778C95.5377 50.2877 96.0088 50.1044 96.361 49.7679C96.7132 49.4315 96.9179 48.9692 96.9303 48.4823C96.9263 48.0936 96.8047 47.7153 96.5813 47.3973C95.7923 46.4979 94.8318 45.765 93.7559 45.2415C92.6801 44.7181 91.5106 44.4145 90.316 44.3487V42.385C90.3135 42.1728 90.2692 41.9632 90.1856 41.7681C90.1019 41.5731 89.9806 41.3965 89.8286 41.2484C89.6766 41.1003 89.4969 40.9836 89.2997 40.9051C89.1026 40.8265 88.8919 40.7877 88.6797 40.7907Z" fill="#F79221"/>
<path d="M79.5898 157.906H21.6484C20.2975 157.906 19.0019 157.37 18.0466 156.414C17.0913 155.459 16.5547 154.163 16.5547 152.812V10.1875C16.5547 8.83655 17.0913 7.54094 18.0466 6.58567C19.0019 5.63041 20.2975 5.09375 21.6484 5.09375H38.5928L43.3555 13.9416C43.5737 14.3469 43.8977 14.6856 44.293 14.9215C44.6883 15.1574 45.1402 15.2817 45.6005 15.2812H70.2848C70.7448 15.2812 71.1961 15.1567 71.5909 14.9208C71.9858 14.6849 72.3094 14.3466 72.5274 13.9416L77.29 5.09375H92.9609C94.3119 5.09375 95.6075 5.63041 96.5628 6.58567C97.518 7.54094 98.0547 8.83655 98.0547 10.1875V15.2812H103.148V10.1875C103.145 7.48654 102.071 4.89707 100.161 2.9872C98.2514 1.07733 95.6619 0.00303347 92.9609 0L21.6484 0C18.9475 0.00303347 16.358 1.07733 14.4481 2.9872C12.5383 4.89707 11.464 7.48654 11.4609 10.1875V152.812C11.4643 155.513 12.5387 158.103 14.4485 160.012C16.3583 161.922 18.9476 162.997 21.6484 163H80.0355C79.7424 162.183 79.5916 161.321 79.5898 160.453V157.906ZM71.5048 5.09375L68.7631 10.1875H47.1197L44.378 5.09375H71.5048Z" fill="#F79221"/>
<path d="M119.066 96.7813C118.182 96.7832 117.305 96.9397 116.475 97.2435C116.356 96.0953 115.977 94.9891 115.367 94.0088C114.758 93.0284 113.933 92.1994 112.956 91.5845C111.979 90.9696 110.875 90.5848 109.728 90.4592C108.58 90.3337 107.419 90.4706 106.332 90.8598V90.4141C106.336 89.1907 106.044 87.9845 105.483 86.8975C104.922 85.8104 104.108 84.8744 103.108 84.1687C102.109 83.463 100.955 83.0083 99.7425 82.843C98.5304 82.6777 97.2963 82.8067 96.1445 83.2191V68.7656C96.1576 67.754 95.9696 66.7499 95.5915 65.8115C95.2135 64.8732 94.6528 64.0192 93.942 63.2992C93.2313 62.5793 92.3847 62.0076 91.4512 61.6174C90.5178 61.2273 89.5162 61.0264 88.5045 61.0264C87.4929 61.0264 86.4913 61.2273 85.5578 61.6174C84.6244 62.0076 83.7778 62.5793 83.067 63.2992C82.3563 64.0192 81.7956 64.8732 81.4175 65.8115C81.0395 66.7499 80.8515 67.754 80.8646 68.7656V106.327C78.5142 104.089 76.1766 101.838 73.8517 99.5739C72.3919 98.2146 70.4725 97.4568 68.4778 97.4524C67.182 97.4616 65.9079 97.7853 64.7648 98.3957C63.6218 99.0062 62.6441 99.8851 61.9158 100.957C60.9023 102.513 60.4141 104.353 60.5228 106.207C60.6314 108.061 61.3311 109.832 62.5194 111.259L78.948 130.311C80.4405 132.185 81.7476 134.2 82.8511 136.327C84.7207 139.92 86.0121 143.786 86.6778 147.782C86.1125 147.908 85.6069 148.222 85.2444 148.674C84.8819 149.125 84.684 149.687 84.6836 150.266V160.453C84.6836 161.129 84.9519 161.776 85.4296 162.254C85.9072 162.732 86.555 163 87.2305 163H120.34C121.015 163 121.663 162.732 122.141 162.254C122.618 161.776 122.887 161.129 122.887 160.453V150.266C122.887 149.59 122.618 148.942 122.141 148.465C121.663 147.987 121.015 147.719 120.34 147.719H119.313C119.813 145.067 120.758 142.518 122.107 140.181C122.196 140.046 122.277 139.907 122.351 139.764C126.21 133.176 126.707 124.908 126.707 118.43V104.422C126.705 102.396 125.899 100.454 124.467 99.0218C123.034 97.5894 121.092 96.7836 119.066 96.7813ZM117.793 157.906H89.7773V152.813H117.793V157.906ZM121.613 118.43C121.613 124.282 121.193 131.71 117.872 137.353C117.831 137.406 117.796 137.464 117.761 137.522C115.943 140.672 114.717 144.128 114.145 147.719H91.8187C91.1098 142.92 89.6052 138.273 87.3667 133.969C86.0963 131.524 84.5895 129.209 82.8677 127.057L66.4403 108.009C65.952 107.44 65.6569 106.731 65.5976 105.983C65.5384 105.236 65.718 104.489 66.1105 103.85C66.368 103.455 66.7187 103.129 67.1318 102.902C67.5449 102.675 68.0076 102.552 68.4791 102.546C69.1712 102.544 69.8386 102.803 70.3485 103.271C82.5862 115.184 82.5862 115.18 84.3983 114.418C84.8604 114.221 85.2545 113.893 85.5318 113.474C85.8091 113.056 85.9574 112.565 85.9583 112.063V68.7656C85.9507 68.4265 86.011 68.0892 86.1355 67.7736C86.2601 67.4581 86.4464 67.1706 86.6836 66.928C86.9208 66.6855 87.2041 66.4927 87.5168 66.3612C87.8295 66.2296 88.1653 66.1618 88.5045 66.1618C88.8438 66.1618 89.1796 66.2296 89.4923 66.3612C89.805 66.4927 90.0883 66.6855 90.3255 66.928C90.5627 67.1706 90.749 67.4581 90.8736 67.7736C90.9981 68.0892 91.0584 68.4265 91.0508 68.7656V113.336C91.0508 114.011 91.3191 114.659 91.7967 115.137C92.2744 115.614 92.9222 115.883 93.5977 115.883C94.2731 115.883 94.9209 115.614 95.3986 115.137C95.8762 114.659 96.1445 114.011 96.1445 113.336V90.4141C96.1445 89.7386 96.4129 89.0908 96.8905 88.6132C97.3681 88.1355 98.0159 87.8672 98.6914 87.8672C99.3669 87.8672 100.015 88.1355 100.492 88.6132C100.97 89.0908 101.238 89.7386 101.238 90.4141V113.336C101.238 114.011 101.507 114.659 101.984 115.137C102.462 115.614 103.11 115.883 103.785 115.883C104.461 115.883 105.108 115.614 105.586 115.137C106.064 114.659 106.332 114.011 106.332 113.336V98.0547C106.332 97.3792 106.6 96.7314 107.078 96.2538C107.556 95.7761 108.203 95.5078 108.879 95.5078C109.554 95.5078 110.202 95.7761 110.68 96.2538C111.157 96.7314 111.426 97.3792 111.426 98.0547V113.336C111.426 114.011 111.694 114.659 112.172 115.137C112.649 115.614 113.297 115.883 113.973 115.883C114.648 115.883 115.296 115.614 115.774 115.137C116.251 114.659 116.52 114.011 116.52 113.336V104.422C116.52 103.746 116.788 103.099 117.265 102.621C117.743 102.143 118.391 101.875 119.066 101.875C119.742 101.875 120.39 102.143 120.867 102.621C121.345 103.099 121.613 103.746 121.613 104.422V118.43Z" fill="#F79221"/>
</g>
<defs>
<clipPath id="clip0_67_2">
<rect width="163" height="163" fill="white"/>
</clipPath>
</defs>
</svg>
