<svg width="30" height="30" viewBox="0 0 30 30" fill="none" xmlns="http://www.w3.org/2000/svg">
<path d="M3.10547 5.74219C4.07227 5.74219 5.03906 5.74219 6.03516 5.74219C6.18018 6.03223 6.18018 6.03223 6.32812 6.32812C6.56982 6.6207 6.88659 6.84423 7.26562 6.91406C7.38509 6.91965 7.50473 6.92197 7.62432 6.92229C7.69792 6.92263 7.77152 6.92296 7.84734 6.92331C7.92876 6.92338 8.01018 6.92344 8.0916 6.9235C8.17747 6.92378 8.26333 6.92407 8.3492 6.92439C8.58237 6.92515 8.81554 6.92553 9.04872 6.92579C9.1945 6.92596 9.34028 6.9262 9.48605 6.92647C9.94244 6.92727 10.3988 6.92783 10.8552 6.92806C11.3815 6.92832 11.9078 6.92935 12.4341 6.93105C12.8413 6.93232 13.2484 6.93291 13.6556 6.93298C13.8986 6.93305 14.1416 6.93339 14.3846 6.93444C14.6133 6.93541 14.842 6.93553 15.0708 6.93502C15.1545 6.93497 15.2382 6.93522 15.3219 6.93581C15.9546 6.93994 16.4512 6.88303 16.9336 6.44531C17.0496 6.21328 17.1656 5.98125 17.2852 5.74219C18.252 5.74219 19.2188 5.74219 20.2148 5.74219C20.2148 7.28906 20.2148 8.83594 20.2148 10.4297C19.9248 10.5747 19.9248 10.5747 19.6289 10.7227C19.2915 11.0385 19.1772 11.3736 19.1434 11.8254C19.1233 12.4382 19.2 12.92 19.5703 13.418C19.5396 13.4301 19.5088 13.4423 19.4772 13.4548C19.3776 13.4944 19.2781 13.5343 19.1787 13.5743C19.0753 13.6158 18.9719 13.6572 18.8683 13.698C18.392 13.8856 17.9388 14.0646 17.5184 14.363C17.4023 14.4141 17.4023 14.4141 17.2815 14.3719C17.244 14.3472 17.2066 14.3224 17.168 14.2969C16.8116 14.0663 16.5326 13.9811 16.1064 14.0133C15.8014 14.0798 15.6821 14.207 15.5064 14.4599C15.2973 14.7339 15.0901 14.9099 14.747 14.9826C14.2129 15.0358 13.6764 15.0201 13.1407 15.0038C12.791 14.9938 12.4412 14.99 12.0914 14.9871C11.9699 14.9854 11.8486 14.9815 11.7271 14.9774C11.6534 14.9761 11.5796 14.9748 11.5036 14.9734C11.4389 14.9715 11.3742 14.9696 11.3075 14.9677C11.0727 15.0111 10.9855 15.1081 10.8398 15.293C10.8294 15.4796 10.8294 15.4796 10.8984 15.6445C11.0942 15.775 11.1612 15.7773 11.39 15.7804C11.4868 15.7821 11.4868 15.7821 11.5855 15.7839C11.6551 15.7846 11.7246 15.7853 11.7963 15.786C11.9033 15.7877 11.9033 15.7877 12.0123 15.7894C12.2404 15.7929 12.4685 15.7956 12.6965 15.7983C12.851 15.8006 13.0054 15.8029 13.1599 15.8052C13.5389 15.8108 13.9179 15.8158 14.2969 15.8203C14.3068 15.8986 14.3068 15.8986 14.317 15.9786C14.3264 16.0471 14.3359 16.1157 14.3456 16.1863C14.3592 16.2882 14.3592 16.2882 14.373 16.3922C14.4131 16.5776 14.4557 16.6734 14.5715 16.8201C14.6162 16.8769 14.661 16.9337 14.707 16.9922C14.6862 17.1201 14.6862 17.1201 14.6484 17.2266C14.5855 17.2273 14.5855 17.2273 14.5214 17.228C14.1257 17.2326 13.73 17.2377 13.3343 17.2434C13.1309 17.2463 12.9275 17.249 12.7241 17.2513C12.49 17.2539 12.256 17.2574 12.022 17.2609C11.9128 17.2619 11.9128 17.2619 11.8013 17.2629C11.6993 17.2647 11.6993 17.2647 11.5952 17.2665C11.5056 17.2676 11.5056 17.2676 11.4142 17.2688C11.2389 17.2863 11.1134 17.3215 10.957 17.4023C10.8203 17.568 10.8203 17.568 10.8545 17.7576C10.8843 17.9355 10.8843 17.9355 11.0156 18.0469C11.1907 18.1059 11.3563 18.1142 11.5402 18.1175C11.5976 18.1187 11.6551 18.1198 11.7143 18.121C11.7759 18.122 11.8375 18.123 11.9009 18.124C11.996 18.1258 11.996 18.1258 12.093 18.1277C12.2954 18.1315 12.4978 18.135 12.7002 18.1384C12.8374 18.141 12.9747 18.1435 13.112 18.1461C13.4483 18.1524 13.7847 18.1583 14.1211 18.1641C14.1092 18.2019 14.0974 18.2397 14.0852 18.2786C14.0308 18.453 13.9768 18.6275 13.9229 18.802C13.9042 18.8614 13.8856 18.9209 13.8664 18.9821C13.6464 19.6966 13.5466 20.4102 13.4766 21.1523C13.4071 21.1526 13.3376 21.1528 13.2661 21.1531C13.0078 21.1544 12.7496 21.1575 12.4913 21.1613C12.3796 21.1626 12.2679 21.1635 12.1563 21.1638C11.9955 21.1643 11.8349 21.1668 11.6741 21.1695C11.6244 21.1693 11.5746 21.169 11.5233 21.1688C11.2678 21.1751 11.1621 21.1886 10.9525 21.3483C10.8216 21.4971 10.8216 21.4971 10.8398 21.6907C10.886 21.8725 10.886 21.8725 11.0742 21.9727C11.1888 21.9917 11.1888 21.9917 11.3147 21.9913C11.3628 21.9925 11.4109 21.9937 11.4604 21.9949C11.5121 21.9955 11.5637 21.9962 11.6169 21.9969C11.67 21.9981 11.723 21.9992 11.7777 22.0004C11.9473 22.0039 12.1168 22.0066 12.2864 22.0093C12.4013 22.0115 12.5163 22.0138 12.6312 22.0161C12.913 22.0218 13.1948 22.0267 13.4766 22.0312C13.5159 22.2326 13.5549 22.434 13.5938 22.6355C13.6049 22.6927 13.6161 22.7499 13.6276 22.8089C13.6382 22.8638 13.6488 22.9188 13.6597 22.9754C13.6695 23.026 13.6793 23.0766 13.6894 23.1288C13.7109 23.2617 13.7109 23.2617 13.7109 23.4375C13.5988 23.4388 13.5988 23.4388 13.4843 23.4401C13.2064 23.4435 12.9285 23.448 12.6506 23.4529C12.5304 23.4548 12.4102 23.4565 12.29 23.4578C12.117 23.4598 11.9441 23.4628 11.7712 23.4661C11.7176 23.4665 11.664 23.4669 11.6087 23.4672C11.3282 23.4737 11.1219 23.4821 10.8984 23.6719C10.8302 23.842 10.8302 23.842 10.8398 24.0234C10.9046 24.1548 10.9046 24.1548 11.0156 24.2578C11.1532 24.2939 11.1532 24.2939 11.3099 24.2898C11.3697 24.291 11.4295 24.2921 11.4912 24.2933C11.5878 24.2934 11.5878 24.2934 11.6865 24.2935C11.7526 24.2945 11.8186 24.2955 11.8867 24.2965C12.0981 24.2993 12.3094 24.3005 12.5208 24.3018C12.6639 24.3034 12.8071 24.3052 12.9502 24.307C13.3015 24.3114 13.6527 24.3144 14.0039 24.3164C14.0342 24.3824 14.0644 24.4484 14.0956 24.5164C14.4052 25.1866 14.4052 25.1866 14.7803 25.8215C14.8041 25.8588 14.828 25.8961 14.8526 25.9345C14.9967 26.1587 15.1451 26.3798 15.293 26.6016C11.2711 26.6016 7.24922 26.6016 3.10547 26.6016C3.10547 19.718 3.10547 12.8344 3.10547 5.74219ZM5.24048 9.06601C4.90274 9.50628 4.77075 10.028 4.81728 10.5787C4.90313 11.1061 5.16917 11.6219 5.59868 11.9501C6.16054 12.3038 6.63545 12.4488 7.2995 12.3381C7.79856 12.211 8.22503 11.9415 8.52173 11.5173C8.57375 11.4294 8.62397 11.3403 8.67188 11.25C8.70167 11.1971 8.70167 11.1971 8.73207 11.1431C8.9314 10.7197 8.91317 10.1781 8.80714 9.73183C8.57692 9.10858 8.19917 8.74646 7.61719 8.4375C6.76483 8.08106 5.83828 8.40544 5.24048 9.06601ZM10.8984 8.90625C10.7635 9.07125 10.7635 9.07125 10.7886 9.25781C10.849 9.46485 10.8916 9.50247 11.0742 9.60938C11.2244 9.63564 11.2244 9.63564 11.39 9.6317C11.4541 9.63219 11.5182 9.63269 11.5842 9.6332C11.6892 9.63266 11.6892 9.63266 11.7963 9.63212C11.9073 9.63258 11.9073 9.63258 12.0204 9.63305C12.2231 9.63385 12.4257 9.63354 12.6284 9.63299C12.8405 9.63254 13.0526 9.63295 13.2648 9.63323C13.621 9.63355 13.9772 9.63313 14.3334 9.63229C14.7452 9.63134 15.157 9.63164 15.5688 9.63261C15.9224 9.63341 16.276 9.63352 16.6296 9.63306C16.8408 9.63279 17.0519 9.63275 17.2631 9.63333C17.4985 9.63394 17.7339 9.6331 17.9693 9.63212C18.0393 9.63248 18.1093 9.63283 18.1815 9.6332C18.2455 9.6327 18.3096 9.63221 18.3756 9.6317C18.4313 9.63163 18.4869 9.63156 18.5443 9.6315C18.7187 9.60527 18.7984 9.55378 18.9258 9.43359C18.9895 9.29551 18.9895 9.29551 18.9844 9.14062C18.8861 8.91821 18.7984 8.81874 18.5742 8.73047C18.4279 8.7128 18.4279 8.7128 18.2677 8.71519C18.1747 8.71457 18.1747 8.71457 18.0798 8.71394C17.9782 8.71415 17.9782 8.71415 17.8745 8.71438C17.803 8.71408 17.7314 8.71378 17.6577 8.71347C17.4615 8.71279 17.2654 8.71265 17.0693 8.7128C16.9055 8.71286 16.7417 8.71257 16.5779 8.71229C16.1914 8.71164 15.8049 8.71162 15.4184 8.71197C15.0198 8.71233 14.6213 8.7116 14.2227 8.71036C13.8804 8.70932 13.538 8.70897 13.1957 8.70916C12.9913 8.70927 12.7869 8.70912 12.5825 8.7083C12.3545 8.70743 12.1266 8.70797 11.8987 8.70865C11.8311 8.70821 11.7634 8.70776 11.6938 8.7073C11.6316 8.70771 11.5694 8.70812 11.5053 8.70854C11.4515 8.70853 11.3976 8.70852 11.3421 8.70851C11.1575 8.73541 11.0487 8.79703 10.8984 8.90625ZM10.8526 11.2114C10.761 11.4114 10.7721 11.511 10.8398 11.7188C10.9522 11.8668 11.0106 11.8929 11.1914 11.9531C11.2911 11.9588 11.391 11.961 11.4909 11.9614C11.5528 11.9617 11.6147 11.962 11.6785 11.9624C11.7465 11.9624 11.8144 11.9625 11.8844 11.9626C11.956 11.9629 12.0276 11.9631 12.1013 11.9634C12.2977 11.9642 12.494 11.9646 12.6904 11.9649C12.8131 11.965 12.9358 11.9653 13.0585 11.9655C13.4425 11.9663 13.8264 11.9669 14.2104 11.9671C14.6535 11.9674 15.0966 11.9684 15.5398 11.9701C15.8824 11.9714 16.225 11.972 16.5676 11.972C16.7722 11.9721 16.9768 11.9725 17.1813 11.9735C17.4096 11.9746 17.6378 11.9744 17.866 11.974C17.9676 11.9748 17.9676 11.9748 18.0712 11.9756C18.1335 11.9753 18.1957 11.975 18.2599 11.9747C18.3138 11.9747 18.3678 11.9748 18.4234 11.9749C18.608 11.9482 18.7174 11.8872 18.8672 11.7773C18.9644 11.6128 18.9644 11.6128 18.9844 11.4258C18.9077 11.2533 18.8617 11.1594 18.6914 11.0742C18.5902 11.0681 18.4888 11.0658 18.3875 11.0652C18.3231 11.0647 18.2587 11.0642 18.1923 11.0637C18.1213 11.0634 18.0503 11.0632 17.9772 11.0629C17.9027 11.0624 17.8282 11.062 17.7514 11.0615C17.504 11.0599 17.2566 11.059 17.0091 11.0582C16.924 11.0579 16.8389 11.0576 16.7537 11.0573C16.3997 11.056 16.0456 11.0549 15.6915 11.0542C15.1838 11.0533 14.6762 11.0513 14.1685 11.048C13.8116 11.0457 13.4548 11.0446 13.0979 11.0443C12.8847 11.0441 12.6716 11.0433 12.4583 11.0415C12.2205 11.0394 11.9828 11.0396 11.745 11.04C11.6742 11.0391 11.6035 11.0381 11.5306 11.0371C11.1603 11.0309 11.1603 11.0309 10.8526 11.2114ZM5.33203 15.1758C4.94341 15.6545 4.7659 16.1716 4.81705 16.7901C4.89996 17.293 5.11954 17.7128 5.50781 18.0469C5.5415 18.0764 5.57519 18.1059 5.60989 18.1364C6.01547 18.4695 6.46875 18.6153 6.99417 18.5939C7.60516 18.5159 8.0281 18.2685 8.4375 17.8125C8.84181 17.2883 8.90117 16.7649 8.84766 16.1133C8.73849 15.6309 8.45652 15.1903 8.06076 14.8931C7.14966 14.3213 6.10415 14.4097 5.33203 15.1758ZM5.27458 21.4687C4.92538 21.9482 4.74447 22.4306 4.83009 23.0292C4.9665 23.6395 5.26125 24.1614 5.79758 24.5071C6.30428 24.7763 6.82462 24.8658 7.38281 24.7156C7.95987 24.5241 8.37664 24.1766 8.69476 23.6556C8.91455 23.1905 8.92577 22.6503 8.80692 22.1542C8.59924 21.5878 8.25925 21.208 7.73438 20.918C7.68033 20.8879 7.68033 20.8879 7.6252 20.8573C6.81221 20.483 5.8245 20.8027 5.27458 21.4687Z" fill="white"/>
<path d="M25.126 17.3005C25.2714 17.4278 25.4101 17.5588 25.5469 17.6953C25.587 17.7348 25.6271 17.7742 25.6684 17.8148C26.2344 18.4086 26.6087 19.1386 26.8359 19.9219C26.8546 19.9841 26.8732 20.0462 26.8925 20.1103C27.2477 21.4872 26.9792 22.9432 26.285 24.1665C26.1345 24.4075 25.9632 24.6259 25.7812 24.8438C25.7514 24.8821 25.7216 24.9205 25.6908 24.96C24.8808 25.9601 23.5948 26.5319 22.3425 26.7005C20.97 26.8299 19.5681 26.5101 18.4767 25.6454C18.2636 25.467 18.0665 25.2758 17.8711 25.0781C17.8235 25.0312 17.7759 24.9842 17.7269 24.9358C16.7862 23.9565 16.3729 22.5921 16.3855 21.2533C16.4308 19.7529 17.0981 18.4286 18.1714 17.395C20.1445 15.6617 23.104 15.6767 25.126 17.3005ZM21.394 16.5051C21.199 16.8092 21.2144 17.1102 21.2695 17.461C21.3737 17.668 21.3737 17.668 21.5625 17.7539C21.7757 17.7688 21.7757 17.7688 21.9727 17.6953C22.1114 17.5582 22.1462 17.4765 22.1738 17.2817C22.1739 17.2164 22.174 17.1511 22.1741 17.0838C22.1752 17.0186 22.1763 16.9534 22.1775 16.8862C22.1426 16.6616 22.0746 16.5647 21.9141 16.4063C21.6873 16.358 21.5935 16.3881 21.394 16.5051ZM18.0469 17.9883C17.993 18.1538 17.993 18.1538 18.0469 18.3399C18.2539 18.6607 18.4925 18.8942 18.8672 18.9844C19.0808 18.899 19.1491 18.8253 19.2773 18.6328C19.2624 18.2654 19.0899 18.102 18.8331 17.8599C18.6898 17.7373 18.6898 17.7373 18.468 17.7063C18.2517 17.7615 18.1696 17.8017 18.0469 17.9883ZM24.1919 18.3142C24.1262 18.4612 24.1262 18.4612 24.1699 18.6402C24.2753 18.8421 24.334 18.9121 24.5508 18.9844C24.9255 18.8942 25.1641 18.6607 25.3711 18.3399C25.425 18.1538 25.425 18.1538 25.3711 17.9883C25.2531 17.8159 25.1781 17.7643 24.9756 17.7136C24.6292 17.7869 24.4117 18.0492 24.1919 18.3142ZM23.1293 19.3463C23.085 19.3945 23.0408 19.4426 22.9953 19.4923C22.9458 19.5446 22.8962 19.5969 22.8452 19.6508C22.7421 19.7606 22.6398 19.8713 22.5385 19.9827C22.1642 20.3737 22.1642 20.3737 21.9424 20.4243C21.8021 20.4227 21.8021 20.4227 21.6778 20.4048C21.4673 20.379 21.3302 20.4624 21.1523 20.5664C20.9003 20.8122 20.7343 21.0099 20.7239 21.3684C20.7275 21.6802 20.7915 21.8397 20.9766 22.0899C21.254 22.347 21.4714 22.4012 21.8392 22.3952C22.1229 22.3689 22.2839 22.2455 22.4854 22.0532C22.6734 21.8108 22.7535 21.4955 22.7188 21.1913C22.7409 20.9697 22.839 20.9007 22.9994 20.7498C23.0544 20.6968 23.1094 20.6438 23.166 20.5892C23.2247 20.5339 23.2835 20.4787 23.3423 20.4236C23.457 20.3157 23.5708 20.2071 23.6842 20.0979C23.7352 20.0501 23.7861 20.0022 23.8386 19.9529C23.9786 19.7886 24.036 19.6632 24.082 19.4531C23.9918 19.2443 23.9213 19.1702 23.7305 19.043C23.4637 19.043 23.3179 19.1646 23.1293 19.3463ZM16.7908 21.1011C16.6846 21.2644 16.6846 21.2644 16.6992 21.4527C16.774 21.6676 16.8497 21.755 17.0508 21.8555C17.3669 21.884 17.6548 21.9031 17.9443 21.7639C18.0865 21.566 18.0852 21.4493 18.0469 21.211C17.9144 21.0304 17.8434 20.9819 17.6205 20.9434C17.1767 20.922 17.1767 20.922 16.7908 21.1011ZM25.3711 21.211C25.3416 21.4132 25.3467 21.5196 25.448 21.698C25.6212 21.8712 25.8044 21.8663 26.0376 21.8701C26.2315 21.8673 26.3655 21.8561 26.5503 21.7932C26.6763 21.68 26.6763 21.68 26.7224 21.482C26.7358 21.2701 26.7358 21.2701 26.6288 21.1119C26.4321 20.9276 26.3108 20.9392 26.0449 20.9436C25.9682 20.9435 25.8914 20.9435 25.8124 20.9434C25.5799 20.9807 25.5075 21.0226 25.3711 21.211ZM18.4497 24.0381C18.4109 24.0735 18.3721 24.1088 18.3321 24.1452C18.2239 24.2566 18.1298 24.3608 18.0469 24.4922C18.0507 24.7113 18.0607 24.8473 18.2007 25.0195C18.4173 25.1108 18.5251 25.0908 18.75 25.0195C19.0103 24.8283 19.1867 24.6407 19.2957 24.3347C19.2931 24.1317 19.2931 24.1317 19.1528 23.9685C18.8716 23.7668 18.6953 23.8089 18.4497 24.0381ZM24.2944 23.9429C24.1567 24.1407 24.1567 24.1407 24.1406 24.375C24.3071 24.6783 24.5294 24.9275 24.8437 25.0781C25.0521 25.0781 25.1498 25.0605 25.3052 24.9207C25.3917 24.7428 25.3913 24.6302 25.3711 24.4336C25.1934 24.1737 24.9399 23.8961 24.6204 23.8294C24.4314 23.8328 24.4314 23.8328 24.2944 23.9429ZM21.3281 25.2539C21.2491 25.4119 21.2596 25.539 21.2585 25.7154C21.2577 25.7768 21.2569 25.8383 21.256 25.9017C21.2694 26.0723 21.2948 26.1663 21.3867 26.3086C21.5357 26.4204 21.6127 26.4261 21.8005 26.4185C22.0066 26.3571 22.0442 26.3176 22.1484 26.1328C22.1785 25.9357 22.1785 25.9357 22.1741 25.7227C22.1752 25.6514 22.1763 25.5801 22.1775 25.5066C22.1437 25.2807 22.0929 25.2149 21.9141 25.0781C21.6401 24.9658 21.5314 25.0563 21.3281 25.2539Z" fill="white"/>
<path d="M20.9347 11.2697C20.9987 11.2694 21.0628 11.2691 21.1288 11.2688C21.264 11.2686 21.3992 11.2692 21.5343 11.2704C21.7414 11.272 21.9483 11.2704 22.1554 11.2685C22.2868 11.2687 22.4182 11.2691 22.5497 11.2697C22.6116 11.2691 22.6736 11.2685 22.7374 11.2679C23.1639 11.2747 23.1639 11.2747 23.3593 11.4434C23.4636 11.6544 23.4697 11.8438 23.4631 12.074C23.4635 12.1154 23.464 12.1568 23.4644 12.1995C23.4622 12.3769 23.4453 12.5212 23.3743 12.6844C23.129 12.8784 22.7329 12.7841 22.4414 12.7734C22.4414 13.1988 22.4414 13.6242 22.4414 14.0625C22.5248 14.0661 22.6082 14.0697 22.6941 14.0735C23.8082 14.1792 24.9032 14.6037 25.8156 15.2464C26.0045 15.3777 26.0687 15.4102 26.3086 15.4102C26.4491 15.2837 26.5692 15.1453 26.6945 15.0039C26.8646 14.8583 26.9647 14.8272 27.1875 14.8242C27.3038 14.8876 27.3038 14.8876 27.4072 14.989C27.4463 15.0267 27.4853 15.0644 27.5255 15.1032C27.5687 15.1465 27.6118 15.1898 27.6562 15.2344C27.7084 15.2831 27.7606 15.3318 27.8144 15.382C28.2816 15.8266 28.2816 15.8266 28.3008 16.1133C28.1748 16.424 27.8943 16.6471 27.6562 16.875C27.7346 17.0363 27.8199 17.1899 27.9135 17.3428C28.9546 19.0695 29.389 21.113 28.9356 23.1082C28.6465 24.2518 28.1227 25.2899 27.3633 26.1914C27.3198 26.2437 27.2764 26.2961 27.2317 26.35C26.1055 27.6568 24.3917 28.5586 22.676 28.7551C20.5961 28.9052 18.6403 28.467 17.0112 27.1161C16.8648 26.9868 16.723 26.8539 16.582 26.7187C16.5339 26.6743 16.4858 26.6299 16.4362 26.5842C15.4559 25.6511 14.8988 24.4892 14.5312 23.2031C14.5141 23.1442 14.5141 23.1442 14.4966 23.0841C14.196 21.9968 14.2362 20.6575 14.5312 19.5703C14.5423 19.529 14.5533 19.4876 14.5646 19.445C14.8094 18.5608 15.2145 17.7287 15.7617 16.9922C15.6765 16.7899 15.5665 16.6784 15.4028 16.5344C15.2407 16.374 15.1811 16.309 15.1208 16.084C15.201 15.7848 15.3702 15.6254 15.5859 15.4102C15.6514 15.3384 15.6514 15.3384 15.7182 15.2653C15.7851 15.1938 15.7851 15.1938 15.8533 15.1208C15.8944 15.0768 15.9356 15.0328 15.978 14.9874C16.1434 14.8595 16.2575 14.8351 16.4648 14.8242C16.769 14.9795 16.9937 15.2235 17.2265 15.4687C17.2622 15.4446 17.2979 15.4204 17.3346 15.3955C18.4162 14.6829 19.7151 14.0625 21.0351 14.0625C21.0351 13.6371 21.0351 13.2117 21.0351 12.7734C20.7537 12.785 20.7537 12.785 20.4725 12.7998C20.3657 12.802 20.3657 12.802 20.1562 12.7734C19.9512 12.5578 19.9535 12.329 19.9512 12.041C19.9493 11.9655 19.9475 11.89 19.9457 11.8121C20.0385 11.25 20.4627 11.2652 20.9347 11.2697ZM17.1238 17.2213C15.9714 18.5567 15.4344 20.1599 15.5273 21.9141C15.6625 23.569 16.4729 25.0267 17.6953 26.1328C19.0027 27.1945 20.5938 27.7274 22.2791 27.5868C23.6188 27.4467 24.8396 26.9223 25.8398 26.0156C25.8684 25.99 25.8969 25.9643 25.9263 25.9379C27.053 24.9121 27.8175 23.4307 27.8978 21.8937C27.9541 20.085 27.4545 18.4758 26.2135 17.1363C25.16 16.0193 23.6673 15.2718 22.12 15.2204C20.19 15.186 18.4554 15.7777 17.1238 17.2213Z" fill="white"/>
<path d="M2.27686 3.5676C2.31746 3.56759 2.35806 3.56758 2.3999 3.56757C2.53401 3.56761 2.66811 3.56807 2.80222 3.56853C2.89524 3.56863 2.98826 3.56872 3.08128 3.56878C3.32604 3.569 3.57081 3.56958 3.81558 3.57022C4.06537 3.57082 4.31516 3.57109 4.56495 3.57139C5.05502 3.57201 5.5451 3.57305 6.03517 3.57425C6.03517 3.99964 6.03517 4.42503 6.03517 4.86331C5.87993 4.86505 5.87993 4.86505 5.72155 4.86683C5.37939 4.8708 5.03724 4.8753 4.69509 4.88016C4.48767 4.88308 4.28025 4.8858 4.07282 4.88803C3.83429 4.89061 3.59578 4.8941 3.35725 4.89764C3.28285 4.89832 3.20844 4.899 3.13177 4.89969C3.02798 4.90144 3.02798 4.90144 2.92209 4.90322C2.8612 4.904 2.80031 4.90478 2.73757 4.90559C2.57609 4.92211 2.47906 4.95092 2.34377 5.03909C2.26264 5.20134 2.27759 5.33244 2.27731 5.51411C2.27705 5.59095 2.27678 5.66778 2.27652 5.74694C2.27652 5.83302 2.27653 5.9191 2.27655 6.00519C2.27636 6.09599 2.27614 6.1868 2.2759 6.27761C2.27531 6.52809 2.27509 6.77856 2.27494 7.02903C2.27471 7.2988 2.27415 7.56857 2.27363 7.83834C2.27247 8.49023 2.27189 9.14213 2.27136 9.79403C2.27111 10.1007 2.27079 10.4074 2.27049 10.7142C2.26949 11.7332 2.26864 12.7523 2.26822 13.7713C2.2681 14.0359 2.26799 14.3004 2.26788 14.565C2.26785 14.6308 2.26782 14.6965 2.26779 14.7643C2.2673 15.8303 2.26582 16.8964 2.26392 17.9624C2.26198 19.056 2.26092 20.1496 2.26074 21.2431C2.26061 21.8575 2.26009 22.4719 2.2586 23.0862C2.25733 23.6093 2.25685 24.1323 2.25743 24.6554C2.25769 24.9224 2.25758 25.1895 2.25644 25.4565C2.25542 25.7007 2.25546 25.945 2.25638 26.1892C2.25652 26.2778 2.25626 26.3664 2.25557 26.4549C2.25469 26.5749 2.25539 26.6949 2.25617 26.8149C2.25611 26.8817 2.25605 26.9485 2.256 27.0173C2.29202 27.2275 2.34898 27.2968 2.51955 27.4219C2.63559 27.4558 2.63559 27.4558 2.75964 27.45C2.80723 27.4503 2.85481 27.4506 2.90385 27.451C2.9558 27.4501 3.00776 27.4493 3.0613 27.4484C3.11675 27.4484 3.1722 27.4484 3.22934 27.4484C3.41566 27.4483 3.60193 27.4464 3.78824 27.4446C3.92164 27.4441 4.05503 27.4438 4.18843 27.4436C4.47603 27.4429 4.76361 27.4415 5.05119 27.4396C5.50626 27.4368 5.96131 27.436 6.41637 27.4357C6.57218 27.4356 6.72799 27.4355 6.8838 27.4353C6.92274 27.4353 6.96168 27.4352 7.0018 27.4352C7.44504 27.4347 7.88828 27.4337 8.33152 27.4324C8.37203 27.4323 8.41254 27.4322 8.45428 27.4321C9.10986 27.4303 9.76542 27.427 10.421 27.4235C11.0948 27.4199 11.7685 27.4186 12.4423 27.4191C12.8944 27.4194 13.3463 27.417 13.7983 27.4128C14.0802 27.4107 14.3621 27.4112 14.644 27.4123C14.7743 27.4123 14.9046 27.4113 15.0349 27.4093C16.1717 27.3922 16.1717 27.3922 16.5925 27.7683C16.688 27.8663 16.7824 27.9656 16.875 28.0664C17.0065 28.1637 17.1395 28.2408 17.2815 28.3228C17.5138 28.4581 17.7214 28.5999 17.9297 28.7696C15.8934 28.7749 13.8571 28.7791 11.8208 28.7815C11.5803 28.7818 11.3399 28.7821 11.0994 28.7824C11.0515 28.7825 11.0036 28.7826 10.9543 28.7826C10.1794 28.7836 9.40455 28.7855 8.62969 28.7876C7.83441 28.7898 7.03915 28.7911 6.24387 28.7916C5.75327 28.7919 5.26267 28.7929 4.77207 28.7949C4.43551 28.7961 4.09895 28.7965 3.76238 28.7962C3.56828 28.796 3.37421 28.7964 3.18012 28.7975C2.96937 28.7987 2.75868 28.7984 2.54793 28.7977C2.487 28.7984 2.42607 28.7991 2.36329 28.7998C1.93004 28.7963 1.54527 28.7217 1.22133 28.4159C1.19535 28.3767 1.16936 28.3375 1.14259 28.2971C1.1154 28.2578 1.08821 28.2184 1.0602 28.1779C0.929691 27.9509 0.930031 27.7611 0.929651 27.5043C0.929513 27.4647 0.929375 27.425 0.929233 27.3842C0.928841 27.2504 0.928868 27.1167 0.928892 26.9829C0.928699 26.8864 0.92848 26.7899 0.928239 26.6934C0.927651 26.4275 0.927434 26.1616 0.927279 25.8956C0.92705 25.6091 0.926489 25.3226 0.925977 25.0361C0.924819 24.3438 0.924229 23.6516 0.923708 22.9593C0.923451 22.6334 0.923137 22.3076 0.92283 21.9817C0.921833 20.8988 0.920984 19.8158 0.920559 18.7329C0.920448 18.4518 0.920335 18.1707 0.92022 17.8896C0.920192 17.8197 0.920164 17.7498 0.920134 17.6778C0.919648 16.5456 0.918163 15.4134 0.916261 14.2812C0.914324 13.1193 0.913268 11.9575 0.91308 10.7956C0.912953 10.143 0.912439 9.49044 0.910944 8.83787C0.909673 8.28219 0.9092 7.72651 0.90977 7.17082C0.910037 6.88726 0.909923 6.60371 0.908788 6.32015C0.907758 6.06053 0.907811 5.80092 0.908723 5.5413C0.908863 5.44741 0.908607 5.35352 0.907913 5.25964C0.901842 4.38373 0.901842 4.38373 1.17189 3.9844C1.30396 3.86378 1.30396 3.86378 1.43922 3.78299C1.48401 3.75527 1.5288 3.72755 1.57495 3.69899C1.81584 3.57078 2.00751 3.56712 2.27686 3.5676Z" fill="white"/>
<path d="M12.8465 1.54218C13.2413 1.81537 13.5259 2.1946 13.711 2.6367C13.711 2.6947 13.711 2.75271 13.711 2.81248C13.7783 2.81125 13.8457 2.81002 13.9152 2.80876C14.1661 2.8045 14.417 2.80182 14.668 2.7996C14.7764 2.79843 14.8848 2.79683 14.9933 2.7948C15.1495 2.79194 15.3057 2.79062 15.4619 2.78959C15.5101 2.78838 15.5583 2.78717 15.6079 2.78592C15.9189 2.7858 16.1093 2.8276 16.3477 3.04685C16.4807 3.31529 16.4829 3.58531 16.4825 3.87975C16.4827 3.9251 16.483 3.97045 16.4833 4.01718C16.4836 4.11266 16.4836 4.20815 16.4834 4.30363C16.4832 4.44881 16.4846 4.59392 16.486 4.73909C16.4862 4.83228 16.4862 4.92548 16.4862 5.01867C16.4867 5.06159 16.4872 5.10451 16.4878 5.14873C16.4851 5.44638 16.4367 5.65694 16.2891 5.91795C16.0682 6.08404 15.9075 6.11583 15.634 6.11644C15.5612 6.11702 15.4883 6.1176 15.4132 6.1182C15.333 6.11795 15.2527 6.11769 15.1724 6.1174C15.0875 6.11774 15.0026 6.11815 14.9177 6.11862C14.6874 6.11967 14.4572 6.1196 14.2269 6.11927C14.0345 6.11909 13.8422 6.11945 13.6498 6.1198C13.196 6.12062 12.7422 6.12053 12.2883 6.11986C11.8204 6.11919 11.3524 6.12002 10.8845 6.12159C10.4825 6.12288 10.0805 6.12327 9.67843 6.12293C9.43843 6.12273 9.19845 6.12287 8.95846 6.12388C8.73275 6.12479 8.50706 6.12456 8.28135 6.12345C8.19863 6.12324 8.11592 6.12342 8.0332 6.12403C7.2533 6.12937 7.2533 6.12937 6.97268 5.85935C6.90559 5.72517 6.90531 5.64612 6.90279 5.49685C6.90185 5.44619 6.90091 5.39552 6.89994 5.34333C6.89733 5.11153 6.89493 4.87974 6.89358 4.64792C6.89261 4.52568 6.89101 4.40343 6.88877 4.2812C6.88556 4.10495 6.88428 3.92877 6.88342 3.7525C6.88209 3.69798 6.88076 3.64347 6.87939 3.5873C6.88027 3.31764 6.88372 3.20271 7.05517 2.98444C7.316 2.78976 7.51963 2.80482 7.83557 2.80676C7.9114 2.80688 7.9114 2.80688 7.98877 2.80701C8.15056 2.80734 8.31235 2.80807 8.47415 2.80882C8.58371 2.80911 8.69326 2.80938 8.80282 2.80962C9.07168 2.81026 9.34054 2.81128 9.6094 2.81248C9.62107 2.7762 9.63273 2.73993 9.64475 2.70255C9.66027 2.655 9.67578 2.60745 9.69177 2.55846C9.70706 2.51131 9.72235 2.46416 9.7381 2.41558C9.92414 1.90014 10.3721 1.57989 10.8447 1.3458C11.5074 1.08022 12.2428 1.18732 12.8465 1.54218ZM11.1914 2.69529C11.1131 2.89193 11.1131 2.89193 11.1328 3.10545C11.2582 3.3046 11.3512 3.42451 11.5686 3.51927C11.7757 3.51421 11.8973 3.45137 12.0703 3.33982C12.1968 3.18593 12.1875 3.10235 12.1839 2.90037C12.1443 2.69073 12.1443 2.69073 12.0008 2.55247C11.6757 2.37188 11.4389 2.41952 11.1914 2.69529Z" fill="white"/>
<path d="M17.3438 3.57423C17.8694 3.56891 18.3951 3.56462 18.9208 3.56208C19.1649 3.56086 19.409 3.55921 19.6532 3.55654C19.8891 3.55398 20.125 3.55259 20.3609 3.55199C20.4506 3.55156 20.5403 3.55072 20.63 3.54944C21.1745 3.54203 21.6708 3.53898 22.0969 3.91961C22.1351 3.97524 22.1351 3.97524 22.1741 4.03199C22.2006 4.06862 22.2271 4.10525 22.2544 4.143C22.4449 4.50956 22.458 4.85667 22.4547 5.26118C22.4547 5.31725 22.4547 5.37332 22.4548 5.43108C22.4547 5.61528 22.4538 5.79947 22.4529 5.98366C22.4526 6.11182 22.4525 6.23997 22.4523 6.36813C22.4519 6.7046 22.4508 7.04106 22.4495 7.37753C22.4483 7.7212 22.4477 8.06488 22.4471 8.40855C22.4459 9.08227 22.4438 9.75598 22.4414 10.4297C21.9967 10.4297 21.552 10.4297 21.0937 10.4297C21.0932 10.2712 21.0927 10.1127 21.0921 9.94933C21.0901 9.42592 21.0869 8.90252 21.083 8.37913C21.0807 8.06175 21.0788 7.74438 21.0779 7.42699C21.077 7.12077 21.075 6.81457 21.0722 6.50836C21.0713 6.39146 21.0708 6.27456 21.0708 6.15766C21.0706 5.99406 21.0691 5.83053 21.0671 5.66695C21.0674 5.61848 21.0677 5.57001 21.068 5.52008C21.0643 5.31558 21.0519 5.18143 20.9375 5.00915C20.7659 4.89962 20.6599 4.89163 20.4568 4.8899C20.3876 4.88874 20.3184 4.88758 20.2471 4.88639C20.1727 4.88632 20.0983 4.88625 20.0217 4.88618C19.9453 4.88521 19.8689 4.88424 19.7901 4.88324C19.5875 4.88068 19.3848 4.87951 19.1821 4.87863C18.9751 4.87748 18.7682 4.87502 18.5612 4.87267C18.1554 4.86826 17.7496 4.86543 17.3438 4.86329C17.3438 4.4379 17.3438 4.01251 17.3438 3.57423Z" fill="white"/>
<path d="M7.78954 21.7685C7.91016 21.7969 7.91016 21.7969 8.0603 21.9214C8.16389 22.1286 8.19377 22.2131 8.14453 22.4414C7.83608 22.9214 7.26911 23.4157 6.79688 23.7305C6.58772 23.7674 6.44967 23.7716 6.26816 23.6531C6.14462 23.5476 6.03101 23.437 5.91797 23.3203C5.88239 23.286 5.84682 23.2516 5.81017 23.2162C5.63894 23.0385 5.57198 22.9431 5.52979 22.6941C5.56641 22.5 5.56641 22.5 5.65796 22.3609C5.85326 22.2307 5.97552 22.2031 6.21094 22.2071C6.3674 22.2898 6.48397 22.3853 6.62109 22.5C6.64662 22.4738 6.67215 22.4476 6.69846 22.4206C6.80824 22.3091 6.91973 22.1996 7.03125 22.0899C7.05995 22.0593 7.08865 22.0288 7.11823 21.9974C7.32874 21.7916 7.50611 21.7513 7.78954 21.7685Z" fill="white"/>
<path d="M7.85156 15.586C8.04326 15.7246 8.12733 15.8144 8.18848 16.0437C8.0576 16.5999 7.34044 17.1019 6.91406 17.461C6.72302 17.5565 6.59894 17.5469 6.38672 17.5196C6.20845 17.4038 6.0653 17.2618 5.91797 17.1094C5.88239 17.0744 5.84682 17.0393 5.81017 17.0032C5.65552 16.8402 5.5745 16.7397 5.52979 16.5161C5.57682 16.2998 5.63563 16.2029 5.80078 16.0547C5.99487 15.9888 5.99487 15.9888 6.21094 15.9961C6.36725 16.0791 6.48398 16.1744 6.62109 16.2891C6.67049 16.2432 6.71989 16.1974 6.77078 16.1502C6.83563 16.0903 6.90048 16.0304 6.96533 15.9705C6.99789 15.9402 7.03044 15.91 7.06398 15.8788C7.33986 15.6245 7.469 15.5471 7.85156 15.586Z" fill="white"/>
<path d="M7.85156 9.37503C8.04326 9.5137 8.12733 9.6035 8.18848 9.83279C8.0576 10.389 7.34044 10.891 6.91406 11.25C6.72302 11.3455 6.59894 11.336 6.38672 11.3086C6.20845 11.1929 6.0653 11.0509 5.91797 10.8985C5.88239 10.8634 5.84682 10.8284 5.81017 10.7923C5.65552 10.6292 5.5745 10.5288 5.52979 10.3052C5.57635 10.091 5.63952 9.99231 5.80078 9.84378C6.0139 9.77123 6.10639 9.76274 6.30981 9.86209C6.35453 9.89472 6.39924 9.92735 6.44531 9.96096C6.50332 9.99964 6.56133 10.0383 6.62109 10.0782C6.67049 10.0323 6.71989 9.98646 6.77078 9.93922C6.83563 9.87932 6.90048 9.81943 6.96533 9.75955C6.99789 9.7293 7.03044 9.69905 7.06398 9.66788C7.33986 9.41361 7.469 9.33612 7.85156 9.37503Z" fill="white"/>
</svg>
