<svg width="320" height="320" viewBox="0 0 320 320" fill="none" xmlns="http://www.w3.org/2000/svg">
<path d="M285.728 114.302H228.583V131.447H285.728V114.302Z" fill="black"/>
<path d="M285.728 142.877H228.583V160.022H285.728V142.877Z" fill="black"/>
<path d="M148.579 54.7933L182.866 89.0837L251.441 20.5028L262.87 31.933V0H230.94L242.369 11.4302L182.866 70.9384L148.579 36.6479L65.2175 120.017L74.2894 129.089L148.579 54.7933Z" fill="black"/>
<path d="M228.583 91.4412V102.871H285.728V91.4412C285.728 88.2979 283.157 85.7261 280.014 85.7261H234.297C231.154 85.7261 228.583 88.2979 228.583 91.4412Z" fill="black"/>
<path d="M285.728 171.452H228.583V188.597H285.728V171.452Z" fill="black"/>
<path d="M285.728 200.028H228.583V217.173H285.728V200.028Z" fill="black"/>
<path d="M162.865 251.463H139.364L176.151 265.608C180.152 267.18 184.58 267.108 188.581 265.537V228.603H182.652C184.223 239.533 176.652 249.677 165.722 251.249C164.794 251.392 163.865 251.463 162.865 251.463Z" fill="black"/>
<path d="M228.583 247.963L272.585 228.603H228.583V247.963Z" fill="black"/>
<path d="M188.58 142.877H131.435V160.022H188.58V142.877Z" fill="black"/>
<path d="M63.1459 225.96L65.9317 223.174C66.0032 223.102 66.146 222.959 66.2175 222.888H34.2874V234.318H42.9306C50.5024 234.318 57.7885 231.318 63.1459 225.96Z" fill="black"/>
<path d="M315.015 227.246C312.158 225.46 308.586 225.245 305.443 226.603L193.795 275.752C186.866 278.824 179.08 278.967 172.008 276.252L107.505 251.463H97.1475C94.0045 251.463 91.433 248.892 91.433 245.748C91.433 242.605 94.0045 240.033 97.1475 240.033H162.579C167.079 240.105 170.865 236.747 171.365 232.318C171.794 227.603 168.365 223.388 163.651 222.959C163.365 222.959 163.079 222.888 162.865 222.888H94.2188C86.647 222.888 79.361 225.888 74.0036 231.246L71.2177 234.032C63.7173 241.533 53.574 245.748 42.9306 245.748H0V297.184H61.2887C62.8602 297.184 64.3602 297.398 65.8603 297.827L135.649 317.187C154.507 322.473 174.651 320.259 191.938 310.972L314.515 245.248C319.587 242.534 321.444 236.247 318.801 231.246C317.944 229.603 316.587 228.174 315.015 227.246Z" fill="black"/>
<path d="M91.433 194.313H34.2874V211.458H91.433V194.313Z" fill="black"/>
<path d="M188.58 171.452H131.435V188.597H188.58V171.452Z" fill="black"/>
<path d="M188.58 200.028H131.435V211.458H162.865C168.079 211.458 173.08 213.529 176.866 217.173H188.58V200.028Z" fill="black"/>
<path d="M91.433 171.452C91.433 168.309 88.8614 165.737 85.7184 165.737H40.0019C36.8589 165.737 34.2874 168.309 34.2874 171.452V182.882H91.433V171.452Z" fill="black"/>
<path d="M188.58 120.017C188.58 116.873 186.009 114.302 182.866 114.302H137.149C134.006 114.302 131.435 116.873 131.435 120.017V131.447H188.58V120.017Z" fill="black"/>
</svg>
