<svg width="320" height="395" viewBox="0 0 320 395" fill="none" xmlns="http://www.w3.org/2000/svg">
<path d="M66.6838 307.249C67.8121 307.804 68.6801 308.743 69.1152 309.88C69.5503 311.017 69.5207 312.269 69.0324 313.386C68.544 314.503 67.6326 315.404 66.4792 315.91C65.3258 316.416 64.0148 316.49 62.8068 316.117C58.8227 314.528 54.6028 313.542 50.2995 313.193C46.9347 312.912 43.5505 312.912 40.1857 313.193C40.1857 315.668 40.624 318.11 40.9611 320.52C41.4668 324.247 42.2085 328.103 43.1187 332.023C43.3957 333.246 43.1662 334.524 42.4782 335.59C39.847 340.221 38.1867 345.295 37.5898 350.531C37.3542 352.32 37.534 354.137 38.1166 355.853C38.6992 357.569 39.6702 359.142 40.9611 360.46C44.3305 363.293 48.5086 365.105 52.9628 365.665C63.0586 367.024 73.3255 366.698 83.3041 364.701C95.1057 362.719 106.686 359.685 117.893 355.64C126.583 352.637 134.753 348.413 142.132 343.109C148.538 338.224 151.471 330.256 153.999 323.444L155.955 318.27C159.022 310.141 164.417 296.003 171.361 290.894C172.416 290.114 173.753 289.766 175.078 289.925C176.402 290.085 177.606 290.74 178.424 291.745C179.242 292.751 179.608 294.025 179.44 295.287C179.273 296.55 178.586 297.697 177.531 298.477C172.878 301.883 168.125 314.35 165.394 321.516L163.473 326.593C160.54 334.594 157.067 343.976 148.369 350.595C140.157 356.504 131.067 361.215 121.399 364.573C118.994 365.451 116.567 366.287 114.117 367.079C114.241 370.531 114.128 373.988 113.78 377.426C113.284 382.092 112.393 386.713 111.117 391.243C110.773 392.47 109.931 393.516 108.777 394.152C107.623 394.788 106.252 394.961 104.964 394.633C103.677 394.305 102.579 393.502 101.912 392.403C101.245 391.303 101.063 389.996 101.408 388.769C102.552 384.758 103.341 380.663 103.768 376.526C103.995 374.391 104.107 372.246 104.105 370.1C97.5645 371.835 91.0917 373.313 84.9897 374.245C73.8215 376.47 62.3285 376.796 51.0412 375.209C44.5466 374.281 38.5024 371.49 33.7129 367.208C31.411 364.944 29.6616 362.223 28.5894 359.241C27.5171 356.258 27.1485 353.087 27.5098 349.953C28.1359 343.868 29.9541 337.95 32.8701 332.505C32.1284 329.067 31.4879 325.5 30.9822 321.805C30.4765 318.11 30.0382 313.643 29.8697 309.498V308.438C29.0943 300.662 28.9931 293.079 28.892 285.463V283.278L15.8452 282.539C12.8437 282.448 9.9224 281.593 7.38338 280.065C5.07146 278.608 3.2094 276.589 1.98937 274.217C0.665608 271.786 -0.0170714 269.084 0.000324304 266.345C0.243882 261.593 1.86608 256.999 4.68637 253.074L18.1714 226.918C24.9139 214.065 24.7116 212.33 24.4419 205.55C24.4419 202.562 24.1385 198.674 24.4419 192.89C24.5726 186.28 25.4199 179.701 26.9704 173.257C28.04 168.828 29.5995 164.52 31.6227 160.404L6.74284 150.218C6.12509 149.964 5.56678 149.595 5.10061 149.133C4.63445 148.67 4.26981 148.124 4.02805 147.525C3.7863 146.927 3.67229 146.288 3.69271 145.647C3.71313 145.006 3.86757 144.375 4.14697 143.792C4.32012 143.428 4.53493 143.083 4.78751 142.764C27.6783 114.487 51.5468 94.5653 75.5839 81.2947L75.921 92.3482C53.3126 106.229 33.3408 123.668 16.8566 143.921L41.1297 154.235C42.2184 154.898 43.0019 155.931 43.3212 157.125C43.6404 158.318 43.4716 159.582 42.849 160.661C39.9704 165.269 37.866 170.278 36.6122 175.507C35.2097 181.307 34.4303 187.228 34.286 193.179C34.1174 198.61 34.286 202.305 34.286 205.165C34.6231 213.873 34.7243 216.058 27.0041 231.128L13.2494 258.054C11.3698 260.596 10.2829 263.593 10.1141 266.698C10.0787 267.801 10.2974 268.898 10.7546 269.911C11.1749 270.748 11.8279 271.46 12.6425 271.968C13.6548 272.568 14.8214 272.891 16.0138 272.9L32.0273 273.799C32.5136 273.631 33.0269 273.544 33.5443 273.542L48.3779 274.699C49.719 274.805 50.9609 275.415 51.8302 276.395C52.6995 277.374 53.1251 278.642 53.0133 279.92C52.9016 281.199 52.2616 282.382 51.2342 283.211C50.2068 284.04 48.8762 284.445 47.535 284.339L38.7698 283.825V285.335C38.7698 291.472 38.972 297.545 39.4103 303.65C43.3587 303.328 47.3288 303.328 51.2771 303.65C56.5937 304.092 61.8102 305.294 66.7512 307.217L66.6838 307.249ZM86.5742 212.973C84.8658 212.973 83.1959 213.456 81.7759 214.361C80.3559 215.267 79.2498 216.553 78.5976 218.058C77.9453 219.563 77.7764 221.219 78.1122 222.815C78.4479 224.412 79.2732 225.877 80.4836 227.027C81.6939 228.176 83.2349 228.957 84.9112 229.27C86.5876 229.584 88.3239 229.417 89.9003 228.789C91.4767 228.162 92.8223 227.102 93.7665 225.745C94.7108 224.388 95.2113 222.795 95.2046 221.167C95.2046 220.088 94.9811 219.02 94.547 218.024C94.1129 217.027 93.4766 216.123 92.6748 215.361C91.8729 214.6 90.9213 213.997 89.8744 213.587C88.8275 213.177 87.706 212.969 86.5742 212.973ZM112.735 202.851C113.32 203.144 113.838 203.545 114.26 204.029C114.682 204.513 115 205.071 115.196 205.673C115.391 206.274 115.461 206.906 115.4 207.533C115.339 208.159 115.15 208.769 114.842 209.326C114.534 209.883 114.115 210.377 113.607 210.779C113.099 211.181 112.513 211.484 111.882 211.671C111.251 211.857 110.588 211.924 109.93 211.866C109.273 211.808 108.633 211.627 108.049 211.334C102.245 208.6 95.8457 207.213 89.3723 207.285C82.5004 207.265 75.7047 208.657 69.4482 211.366C68.8483 211.632 68.1994 211.783 67.5384 211.809C66.8775 211.836 66.2174 211.739 65.596 211.522C64.9746 211.306 64.404 210.975 63.9168 210.549C63.4295 210.122 63.0352 209.608 62.7563 209.037C62.4773 208.465 62.3193 207.846 62.2912 207.216C62.2631 206.586 62.3654 205.957 62.5924 205.365C62.8194 204.773 63.1665 204.229 63.614 203.764C64.0615 203.3 64.6005 202.924 65.2004 202.658C72.7915 199.374 81.0357 197.686 89.3723 197.71C97.4764 197.643 105.482 199.405 112.735 202.851ZM219.57 299.987C219.704 298.709 220.366 297.534 221.409 296.72C222.452 295.907 223.792 295.521 225.133 295.649C226.474 295.777 227.707 296.407 228.56 297.402C229.414 298.396 229.818 299.673 229.684 300.951C229.246 304.968 228.909 308.888 228.706 312.776C282.646 280.194 299.199 232.927 291.715 188.874C290.638 182.337 289.026 175.891 286.894 169.594L295.828 164.774C298.395 172.11 300.334 179.633 301.627 187.267C309.886 235.851 291.041 287.905 230.459 322.93C229.852 323.276 229.174 323.495 228.47 323.572C228.467 331.09 228.94 338.601 229.886 346.065C231.596 359.617 234.991 372.928 240 385.716C240.235 386.305 240.345 386.932 240.326 387.561C240.306 388.19 240.157 388.81 239.886 389.384C239.615 389.959 239.228 390.477 238.748 390.909C238.267 391.34 237.702 391.678 237.084 391.901C236.466 392.125 235.809 392.231 235.148 392.212C234.488 392.193 233.838 392.051 233.235 391.793C232.633 391.535 232.089 391.166 231.636 390.708C231.183 390.249 230.829 389.711 230.594 389.122C225.279 375.655 221.669 361.632 219.84 347.35C217.901 331.685 217.822 315.862 219.604 300.18L219.57 299.987ZM200.32 236.269C200.562 237.521 200.271 238.814 199.513 239.863C198.754 240.911 197.589 241.63 196.275 241.86C194.961 242.09 193.604 241.813 192.504 241.09C191.404 240.367 190.65 239.257 190.409 238.004C189.824 234.972 189.963 231.853 190.813 228.878C191.974 225.003 194.322 221.546 197.556 218.949C200.741 216.393 204.58 214.686 208.681 214.001C212.21 213.365 215.845 213.519 219.301 214.451C228.909 217.021 233.022 221.649 233.864 227.593C234.124 233.406 232.639 239.169 229.583 244.205C223.356 257.163 215.885 269.544 207.265 281.19C193.51 298.123 180.295 304.261 178.104 268.337C178.084 267.104 178.564 265.912 179.443 265.009C180.322 264.105 181.533 263.559 182.824 263.485C184.157 263.423 185.463 263.863 186.46 264.711C187.456 265.558 188.063 266.745 188.15 268.015C189.027 283.664 194.117 281.897 199.309 275.502C207.477 264.351 214.574 252.522 220.514 240.157C222.614 236.727 223.773 232.848 223.885 228.878C223.582 226.79 221.526 224.99 216.57 223.641C214.583 223.111 212.496 223.023 210.468 223.384C208.108 223.788 205.9 224.774 204.062 226.243C202.544 227.428 201.391 228.983 200.727 230.743C200.062 232.503 199.91 234.401 200.287 236.237L200.32 236.269ZM235.988 45.5957L208.243 52.0222L215.019 0L176.418 69.8556L202.276 65.582L193.409 117.829L235.988 45.5957ZM311.606 137.366L282.916 129.204L320 85.8896L243.641 128.272L269.701 138.169L231.235 180.712L311.606 137.366ZM135.154 39.105L113.342 59.7018L90.6197 6.68352L93.1144 92.9266L115.331 75.6394L135.255 129.622V39.105H135.154ZM152.482 61.0513C155.516 61.0513 158.584 61.0514 161.585 61.4048L161.079 62.3366C159.652 64.9046 158.966 67.7875 159.09 70.691C156.899 70.691 154.707 70.5304 152.347 70.4982V61.0513H152.482ZM232.617 85.247C240.582 90.4576 248.04 96.3401 254.901 102.823L245.9 107.804C240.188 102.617 234.056 97.8684 227.56 93.6014L232.617 85.247Z" fill="black"/>
</svg>
