<svg width="245" height="161" viewBox="0 0 245 161" fill="none" xmlns="http://www.w3.org/2000/svg">
<path d="M122.5 161.4C147.905 161.4 168.5 140.805 168.5 115.4C168.5 89.9948 147.905 69.3999 122.5 69.3999C97.0949 69.3999 76.5 89.9948 76.5 115.4C76.5 140.805 97.0949 161.4 122.5 161.4Z" fill="#F79221"/>
<path fill-rule="evenodd" clip-rule="evenodd" d="M141.8 98.5999C141.2 97.9999 140.3 97.9999 139.8 98.5999L118.5 119.8C118 120.4 117.1 120.4 116.5 119.8L107.2 110.3C106.6 109.7 105.7 109.7 105.2 110.3L101.1 114C100.8 114.3 100.7 114.6 100.7 115C100.7 115.4 100.9 115.8 101.1 116L110.5 125.9C111.1 126.5 112 127.4 112.5 127.9L116.5 132C117.1 132.6 118 132.6 118.5 132L145.9 104.7C146.5 104.1 146.5 103.2 145.9 102.7L141.8 98.5999Z" fill="white"/>
<path d="M2.83698 114.1C4.4386 114.1 5.737 112.802 5.737 111.2C5.737 109.598 4.4386 108.3 2.83698 108.3C1.23535 108.3 -0.0629883 109.598 -0.0629883 111.2C-0.0629883 112.802 1.23535 114.1 2.83698 114.1Z" fill="#E87073"/>
<path d="M242.137 114.1C243.738 114.1 245.037 112.802 245.037 111.2C245.037 109.598 243.738 108.3 242.137 108.3C240.535 108.3 239.237 109.598 239.237 111.2C239.237 112.802 240.535 114.1 242.137 114.1Z" fill="#44D5A7"/>
<path d="M26.0001 57.1999C27.6017 57.1999 28.9001 55.9015 28.9001 54.2999C28.9001 52.6983 27.6017 51.3999 26.0001 51.3999C24.3985 51.3999 23.1001 52.6983 23.1001 54.2999C23.1001 55.9015 24.3985 57.1999 26.0001 57.1999Z" fill="#44D5A7"/>
<path d="M213.7 57.1999C215.301 57.1999 216.6 55.9015 216.6 54.2999C216.6 52.6983 215.301 51.3999 213.7 51.3999C212.098 51.3999 210.8 52.6983 210.8 54.2999C210.8 55.9015 212.098 57.1999 213.7 57.1999Z" fill="#DEF0FF"/>
<path d="M150.8 54.5999C152.401 54.5999 153.7 53.3015 153.7 51.6999C153.7 50.0983 152.401 48.7999 150.8 48.7999C149.198 48.7999 147.9 50.0983 147.9 51.6999C147.9 53.3015 149.198 54.5999 150.8 54.5999Z" fill="#277EE0"/>
<path d="M181.4 18.6999L184.7 20.4999C185.4 20.8999 185.7 21.7999 185.3 22.4999C185.2 22.6999 185 22.9999 184.7 23.0999L181.4 24.8999C181.2 24.9999 180.9 25.1999 180.8 25.4999L179 28.7999C178.6 29.4999 177.7 29.7999 177 29.3999C176.8 29.2999 176.5 29.0999 176.4 28.7999L174.6 25.4999C174.5 25.2999 174.3 24.9999 174 24.8999L170.7 23.0999C170 22.6999 169.7 21.7999 170.1 21.0999C170.2 20.8999 170.4 20.5999 170.7 20.4999L174 18.6999C174.2 18.5999 174.5 18.3999 174.6 18.0999L176.4 14.7999C176.8 14.0999 177.7 13.7999 178.4 14.1999C178.6 14.2999 178.9 14.4999 179 14.7999L180.8 18.0999C181 18.3999 181.2 18.5999 181.4 18.6999Z" fill="#DEF0FF"/>
<path d="M190 103.7L192 104.8C192.4 105 192.6 105.6 192.4 106C192.3 106.1 192.2 106.3 192 106.4L190 107.5C189.9 107.6 189.7 107.7 189.6 107.9L188.5 109.9C188.3 110.3 187.7 110.5 187.3 110.3C187.2 110.2 187 110.1 186.9 109.9L185.8 107.9C185.7 107.8 185.6 107.6 185.4 107.5L183.4 106.4C183 106.2 182.8 105.6 183 105.2C183.1 105.1 183.2 104.9 183.4 104.8L185.4 103.7C185.5 103.6 185.7 103.5 185.8 103.3L186.9 101.3C187.1 100.9 187.7 100.7 188.1 100.9C188.2 101 188.4 101.1 188.5 101.3L189.6 103.3C189.7 103.4 189.8 103.6 190 103.7Z" fill="#DEF0FF"/>
<path d="M82.9999 7L68.5999 14.1L66.8999 20.3L81.6999 11.7L82.9999 7Z" fill="#277EE0"/>
<path d="M191.8 82.2999L207.5 78.8999L210.6 73.2999L194.1 78.0999L191.8 82.2999Z" fill="#E87073"/>
<path d="M120.743 39.8363L119.734 41.9977C116.711 40.6049 112.906 40.8367 107.896 42.5507C106.155 43.0983 104.555 43.929 103.082 44.9439C103.308 45.1141 103.534 45.2844 103.746 45.3556C106.104 47.0438 106.945 50.157 105.907 52.8275C105.594 53.4774 105.168 54.0421 104.63 54.5217C102.888 55.7764 100.626 55.4884 99.1155 54.0849C97.8175 52.7526 97.2559 50.9128 97.5996 49.0468C97.7436 47.9158 98.0995 46.8559 98.7804 45.9524C98.0733 45.9508 97.3662 45.9492 96.673 46.0466C95.2867 46.2414 94.055 46.8185 93.077 47.7638L93.3029 47.934C96.3401 49.4258 97.1382 52.949 96.8069 55.6212C96.7496 55.9322 96.7062 56.3422 96.437 56.582C96.0114 57.1467 95.3461 57.4422 94.639 57.4406C93.2108 57.3383 91.9112 56.7131 90.9659 55.7352C90.0778 54.4462 89.5442 52.8045 89.5195 51.1923C89.4639 50.7961 89.5072 50.3861 89.5506 49.9761C88.2338 50.6661 87.0717 51.7382 86.5594 53.123C85.4081 55.7084 85.8534 58.8773 86.2292 61.551L83.8525 61.885C83.4489 59.0132 82.934 55.3492 84.299 52.1279C85.1377 50.1924 86.7254 48.5555 88.7354 47.7681C89.2166 47.5995 89.7968 47.4169 90.292 47.3473C91.6259 45.3422 93.7504 43.9328 96.24 43.6839C97.6264 43.489 99.1396 43.4783 100.497 43.7925C102.395 42.2129 104.647 40.9877 107.067 40.2436C112.855 38.3193 117.183 38.216 120.743 39.8363ZM99.9436 50.6361C100.041 51.3293 100.323 51.8956 100.802 52.4341C101.395 53.0577 102.427 53.2156 103.163 52.7082C103.433 52.4684 103.603 52.2425 103.759 51.9176C104.329 50.2218 103.753 48.283 102.285 47.1766C101.946 46.9213 101.607 46.6659 101.183 46.5235C100.489 47.3281 100.02 48.3028 99.8617 49.3348C99.9313 49.83 99.8879 50.24 99.9436 50.6361ZM94.5169 55.1351C94.6625 53.297 94.2295 50.9342 92.379 49.9825C92.2661 49.8974 92.167 49.9113 92.0541 49.8262C91.9256 50.3492 91.8823 50.7592 91.9379 51.1553C91.893 52.2724 92.1451 53.3478 92.7794 54.2685C93.2451 54.708 93.8949 55.0206 94.5169 55.1351Z" fill="#44D5A7"/>
<path d="M40.9255 89.8963L43.117 83.9333C43.6432 82.6476 45.059 81.9437 46.3447 82.4698C46.7687 82.6122 47.2204 82.9527 47.4742 83.3209L51.2243 88.4489C51.478 88.8172 51.9298 89.1576 52.3538 89.3L58.3168 91.4915C59.6025 92.0176 60.3064 93.4334 59.7802 94.7192C59.6379 95.1431 59.2974 95.5949 58.9291 95.8486L53.8012 99.5988C53.4329 99.8525 53.0925 100.304 52.9501 100.728L50.7586 106.691C50.2325 107.977 48.8166 108.681 47.5309 108.155C47.107 108.012 46.6552 107.672 46.4015 107.304L42.6513 102.176C42.3976 101.807 41.9458 101.467 41.5218 101.325L35.5588 99.1331C34.2731 98.6069 33.5692 97.1911 34.0954 95.9054C34.2378 95.4814 34.5782 95.0297 34.9465 94.7759L40.0744 91.0258C40.4288 90.673 40.7832 90.3203 40.9255 89.8963Z" fill="#DEF0FF"/>
<path d="M133.985 9.68394C134.985 3.08394 127.085 0.283936 127.085 0.283936L125.485 4.48393C130.185 5.68393 130.685 12.0839 130.685 12.0839L133.985 9.68394Z" fill="#E87073"/>
</svg>
